<?xml version="1.0" encoding="utf-8" standalone="no"?>
<!DOCTYPE svg PUBLIC "-//W3C//DTD SVG 1.1//EN"
  "http://www.w3.org/Graphics/SVG/1.1/DTD/svg11.dtd">
<svg xmlns:xlink="http://www.w3.org/1999/xlink" width="248.28817pt" height="250.519688pt" viewBox="0 0 248.28817 250.519688" xmlns="http://www.w3.org/2000/svg" version="1.1">
 <metadata>
  <rdf:RDF xmlns:dc="http://purl.org/dc/elements/1.1/" xmlns:cc="http://creativecommons.org/ns#" xmlns:rdf="http://www.w3.org/1999/02/22-rdf-syntax-ns#">
   <cc:Work>
    <dc:type rdf:resource="http://purl.org/dc/dcmitype/StillImage"/>
    <dc:date>2025-04-08T19:07:08.461220</dc:date>
    <dc:format>image/svg+xml</dc:format>
    <dc:creator>
     <cc:Agent>
      <dc:title>Matplotlib v3.8.0, https://matplotlib.org/</dc:title>
     </cc:Agent>
    </dc:creator>
   </cc:Work>
  </rdf:RDF>
 </metadata>
 <defs>
  <style type="text/css">*{stroke-linejoin: round; stroke-linecap: butt}</style>
 </defs>
 <g id="figure_1">
  <g id="patch_1">
   <path d="M 0 250.519688 
L 248.28817 250.519688 
L 248.28817 0 
L 0 0 
L 0 250.519688 
z
" style="fill: none"/>
  </g>
  <g id="axes_1">
   <g id="patch_2">
    <path d="M 25.08817 118.879687 
L 131.373884 118.879687 
L 131.373884 13.279687 
L 25.08817 13.279687 
L 25.08817 118.879687 
z
" style="fill: none"/>
   </g>
   <g id="matplotlib.axis_1">
    <g id="xtick_1">
     <g id="line2d_1">
      <defs>
       <path id="m67f8d52474" d="M 0 0 
L 0 3.5 
" style="stroke: #262626; stroke-width: 0.5"/>
      </defs>
      <g>
       <use xlink:href="#m67f8d52474" x="29.919338" y="118.879687" style="fill: #262626; stroke: #262626; stroke-width: 0.5"/>
      </g>
     </g>
    </g>
    <g id="xtick_2">
     <g id="line2d_2">
      <g>
       <use xlink:href="#m67f8d52474" x="78.231027" y="118.879687" style="fill: #262626; stroke: #262626; stroke-width: 0.5"/>
      </g>
     </g>
    </g>
    <g id="xtick_3">
     <g id="line2d_3">
      <g>
       <use xlink:href="#m67f8d52474" x="126.542715" y="118.879687" style="fill: #262626; stroke: #262626; stroke-width: 0.5"/>
      </g>
     </g>
    </g>
   </g>
   <g id="matplotlib.axis_2">
    <g id="ytick_1">
     <g id="line2d_4">
      <defs>
       <path id="mfa82f55924" d="M 0 0 
L -3.5 0 
" style="stroke: #262626; stroke-width: 0.5"/>
      </defs>
      <g>
       <use xlink:href="#mfa82f55924" x="25.08817" y="114.079687" style="fill: #262626; stroke: #262626; stroke-width: 0.5"/>
      </g>
     </g>
     <g id="text_1">
      <!-- 0 -->
      <g style="fill: #262626" transform="translate(13.63942 116.942812) scale(0.08 -0.08)">
       <defs>
        <path id="ArialMT-30" d="M 266 2259 
Q 266 3072 433 3567 
Q 600 4063 929 4331 
Q 1259 4600 1759 4600 
Q 2128 4600 2406 4451 
Q 2684 4303 2865 4023 
Q 3047 3744 3150 3342 
Q 3253 2941 3253 2259 
Q 3253 1453 3087 958 
Q 2922 463 2592 192 
Q 2263 -78 1759 -78 
Q 1097 -78 719 397 
Q 266 969 266 2259 
z
M 844 2259 
Q 844 1131 1108 757 
Q 1372 384 1759 384 
Q 2147 384 2411 759 
Q 2675 1134 2675 2259 
Q 2675 3391 2411 3762 
Q 2147 4134 1753 4134 
Q 1366 4134 1134 3806 
Q 844 3388 844 2259 
z
" transform="scale(0.015625)"/>
       </defs>
       <use xlink:href="#ArialMT-30"/>
      </g>
     </g>
    </g>
    <g id="ytick_2">
     <g id="line2d_5">
      <g>
       <use xlink:href="#mfa82f55924" x="25.08817" y="18.079687" style="fill: #262626; stroke: #262626; stroke-width: 0.5"/>
      </g>
     </g>
     <g id="text_2">
      <!-- $\omega_1^m$ -->
      <g style="fill: #262626" transform="translate(5.28817 21.199687) scale(0.08 -0.08)">
       <defs>
        <path id="DejaVuSans-Oblique-3c9" d="M 1369 -91 
Q 72 -91 434 1766 
Q 575 2500 1256 3500 
L 1875 3500 
Q 1231 2500 1088 1750 
Q 819 397 1519 397 
Q 2166 397 2478 2078 
L 3009 2078 
Q 2669 388 3316 397 
Q 4013 403 4275 1750 
Q 4419 2500 4169 3500 
L 4788 3500 
Q 5075 2500 4934 1766 
Q 4578 -94 3278 -91 
Q 2428 -88 2503 844 
Q 2194 -91 1369 -91 
z
" transform="scale(0.015625)"/>
        <path id="DejaVuSans-Oblique-6d" d="M 5747 2113 
L 5338 0 
L 4763 0 
L 5166 2094 
Q 5191 2228 5203 2325 
Q 5216 2422 5216 2491 
Q 5216 2772 5059 2928 
Q 4903 3084 4622 3084 
Q 4203 3084 3875 2770 
Q 3547 2456 3450 1953 
L 3066 0 
L 2491 0 
L 2900 2094 
Q 2925 2209 2937 2307 
Q 2950 2406 2950 2484 
Q 2950 2769 2794 2926 
Q 2638 3084 2363 3084 
Q 1938 3084 1609 2770 
Q 1281 2456 1184 1953 
L 800 0 
L 225 0 
L 909 3500 
L 1484 3500 
L 1375 2956 
Q 1609 3263 1923 3423 
Q 2238 3584 2597 3584 
Q 2978 3584 3223 3384 
Q 3469 3184 3519 2828 
Q 3781 3197 4126 3390 
Q 4472 3584 4856 3584 
Q 5306 3584 5551 3325 
Q 5797 3066 5797 2591 
Q 5797 2488 5784 2364 
Q 5772 2241 5747 2113 
z
" transform="scale(0.015625)"/>
        <path id="DejaVuSans-31" d="M 794 531 
L 1825 531 
L 1825 4091 
L 703 3866 
L 703 4441 
L 1819 4666 
L 2450 4666 
L 2450 531 
L 3481 531 
L 3481 0 
L 794 0 
L 794 531 
z
" transform="scale(0.015625)"/>
       </defs>
       <use xlink:href="#DejaVuSans-Oblique-3c9" transform="translate(0 0.51875)"/>
       <use xlink:href="#DejaVuSans-Oblique-6d" transform="translate(88.20638 38.8) scale(0.7)"/>
       <use xlink:href="#DejaVuSans-31" transform="translate(83.740234 -26.825) scale(0.7)"/>
      </g>
     </g>
    </g>
    <g id="ytick_3">
     <g id="line2d_6">
      <defs>
       <path id="m7bc1e6430e" d="M 0 0 
L -1.75 0 
" style="stroke: #262626; stroke-width: 0.25"/>
      </defs>
      <g>
       <use xlink:href="#m7bc1e6430e" x="25.08817" y="90.079687" style="fill: #262626; stroke: #262626; stroke-width: 0.25"/>
      </g>
     </g>
    </g>
    <g id="ytick_4">
     <g id="line2d_7">
      <g>
       <use xlink:href="#m7bc1e6430e" x="25.08817" y="66.079687" style="fill: #262626; stroke: #262626; stroke-width: 0.25"/>
      </g>
     </g>
    </g>
    <g id="ytick_5">
     <g id="line2d_8">
      <g>
       <use xlink:href="#m7bc1e6430e" x="25.08817" y="42.079687" style="fill: #262626; stroke: #262626; stroke-width: 0.25"/>
      </g>
     </g>
    </g>
    <g id="text_3">
     <!-- $\omega_\text{AM}$ -->
     <g style="fill: #262626" transform="translate(7.157813 75.829687) rotate(-90) scale(0.1 -0.1)">
      <defs>
       <path id="DejaVuSans-41" d="M 2188 4044 
L 1331 1722 
L 3047 1722 
L 2188 4044 
z
M 1831 4666 
L 2547 4666 
L 4325 0 
L 3669 0 
L 3244 1197 
L 1141 1197 
L 716 0 
L 50 0 
L 1831 4666 
z
" transform="scale(0.015625)"/>
       <path id="DejaVuSans-4d" d="M 628 4666 
L 1569 4666 
L 2759 1491 
L 3956 4666 
L 4897 4666 
L 4897 0 
L 4281 0 
L 4281 4097 
L 3078 897 
L 2444 897 
L 1241 4097 
L 1241 0 
L 628 0 
L 628 4666 
z
" transform="scale(0.015625)"/>
      </defs>
      <use xlink:href="#DejaVuSans-Oblique-3c9" transform="translate(0 0.3125)"/>
      <use xlink:href="#DejaVuSans-41" transform="translate(83.740234 -16.09375) scale(0.7)"/>
      <use xlink:href="#DejaVuSans-4d" transform="translate(131.625977 -16.09375) scale(0.7)"/>
     </g>
    </g>
   </g>
   <g id="PolyCollection_1"/>
   <g id="PolyCollection_2"/>
   <g id="PolyCollection_3"/>
   <g id="line2d_9">
    <path d="M 29.919338 113.119407 
L 33.784274 112.612603 
L 37.166092 111.954048 
L 40.064793 111.158927 
L 42.480377 110.273674 
L 44.895962 109.12067 
L 46.828429 107.952258 
L 48.760897 106.509958 
L 50.693364 104.730813 
L 52.142715 103.130042 
L 53.592066 101.259428 
L 55.041416 99.076057 
L 56.490767 96.531764 
L 57.940118 93.573469 
L 59.389468 90.144276 
L 60.838819 86.185803 
L 62.28817 81.642437 
L 63.73752 76.468437 
L 65.669988 68.550886 
L 67.602455 59.525968 
L 70.501157 44.580767 
L 72.916741 32.355113 
L 74.366092 26.10096 
L 75.332325 22.733825 
L 76.298559 20.195757 
L 76.781676 19.279626 
L 77.264793 18.616099 
L 77.74791 18.21426 
L 78.231027 18.079687 
L 78.714144 18.21426 
L 79.197261 18.616099 
L 79.680377 19.279626 
L 80.163494 20.195757 
L 81.129728 22.733825 
L 82.095962 26.10096 
L 83.545312 32.355113 
L 85.47778 42.047998 
L 89.342715 61.876092 
L 91.275183 70.639011 
L 93.20765 78.265289 
L 94.657001 83.225009 
L 96.106351 87.567656 
L 97.555702 91.343272 
L 99.005053 94.609021 
L 100.454403 97.423148 
L 101.903754 99.841464 
L 103.353105 101.915489 
L 104.802455 103.691647 
L 106.734923 105.666925 
L 108.66739 107.268989 
L 110.599858 108.567233 
L 112.532325 109.618678 
L 114.94791 110.656072 
L 117.363494 111.452463 
L 120.262196 112.167714 
L 123.644014 112.760088 
L 126.542715 113.119407 
L 126.542715 113.119407 
" clip-path="url(#p163274d868)" style="fill: none; stroke: #023eff; stroke-linecap: round"/>
   </g>
   <g id="line2d_10">
    <path d="M 29.919338 104.477559 
L 32.334923 102.937257 
L 34.750507 101.153802 
L 37.166092 99.091017 
L 39.581676 96.708597 
L 41.997261 93.962357 
L 44.412845 90.805018 
L 46.828429 87.187811 
L 49.244014 83.063354 
L 51.659598 78.390378 
L 54.075183 73.141024 
L 56.490767 67.311468 
L 58.906351 60.936376 
L 62.28817 51.282483 
L 68.568689 33.037968 
L 70.501157 28.125275 
L 71.950507 24.914661 
L 73.399858 22.224699 
L 74.366092 20.76736 
L 75.332325 19.607108 
L 76.298559 18.763581 
L 77.264793 18.251426 
L 78.231027 18.079687 
L 79.197261 18.251426 
L 80.163494 18.763581 
L 81.129728 19.607108 
L 82.095962 20.76736 
L 83.062196 22.224699 
L 84.511546 24.914661 
L 85.960897 28.125275 
L 87.893364 33.037968 
L 90.308949 39.847883 
L 98.038819 62.251633 
L 100.93752 69.711754 
L 103.353105 75.310864 
L 105.768689 80.327581 
L 108.184274 84.776856 
L 110.599858 88.692986 
L 113.015442 92.1204 
L 115.431027 95.107482 
L 117.846611 97.702668 
L 120.262196 99.952139 
L 122.67778 101.898585 
L 125.093364 103.58067 
L 126.542715 104.477559 
L 126.542715 104.477559 
" clip-path="url(#p163274d868)" style="fill: none; stroke: #ff7c00; stroke-linecap: round"/>
   </g>
   <g id="line2d_11">
    <path d="M 29.919338 90.069529 
L 32.81804 87.026542 
L 35.716741 83.635126 
L 38.615442 79.87154 
L 41.514144 75.717709 
L 44.412845 71.165017 
L 47.311546 66.219312 
L 50.693364 59.989529 
L 54.5583 52.380907 
L 64.220637 33.023634 
L 66.636222 28.753668 
L 68.568689 25.70906 
L 70.501157 23.082082 
L 71.950507 21.431604 
L 73.399858 20.086942 
L 74.849209 19.072067 
L 76.298559 18.405621 
L 77.264793 18.161344 
L 78.231027 18.079687 
L 79.197261 18.161344 
L 80.163494 18.405621 
L 81.129728 18.810453 
L 82.579079 19.710969 
L 84.028429 20.948121 
L 85.47778 22.499612 
L 86.927131 24.338475 
L 88.859598 27.184135 
L 90.792066 30.407444 
L 93.20765 34.84333 
L 96.589468 41.536182 
L 105.768689 59.989529 
L 109.150507 66.219312 
L 112.532325 71.95147 
L 115.431027 76.437629 
L 118.329728 80.525511 
L 121.228429 84.225619 
L 124.127131 87.557207 
L 126.542715 90.069529 
L 126.542715 90.069529 
" clip-path="url(#p163274d868)" style="fill: none; stroke: #1ac938; stroke-linecap: round"/>
   </g>
   <g id="patch_3">
    <path d="M 25.08817 118.879687 
L 25.08817 13.279687 
" style="fill: none; stroke: #262626; stroke-width: 0.5; stroke-linejoin: miter; stroke-linecap: square"/>
   </g>
   <g id="patch_4">
    <path d="M 131.373884 118.879687 
L 131.373884 13.279687 
" style="fill: none; stroke: #262626; stroke-width: 0.5; stroke-linejoin: miter; stroke-linecap: square"/>
   </g>
   <g id="patch_5">
    <path d="M 25.08817 118.879687 
L 131.373884 118.879687 
" style="fill: none; stroke: #262626; stroke-width: 0.5; stroke-linejoin: miter; stroke-linecap: square"/>
   </g>
   <g id="patch_6">
    <path d="M 25.08817 13.279687 
L 131.373884 13.279687 
" style="fill: none; stroke: #262626; stroke-width: 0.5; stroke-linejoin: miter; stroke-linecap: square"/>
   </g>
   <g id="text_4">
    <!-- HS1 -->
    <g style="fill: #262626" transform="translate(68.504464 7.279687) scale(0.1 -0.1)">
     <defs>
      <path id="ArialMT-48" d="M 513 0 
L 513 4581 
L 1119 4581 
L 1119 2700 
L 3500 2700 
L 3500 4581 
L 4106 4581 
L 4106 0 
L 3500 0 
L 3500 2159 
L 1119 2159 
L 1119 0 
L 513 0 
z
" transform="scale(0.015625)"/>
      <path id="ArialMT-53" d="M 288 1472 
L 859 1522 
Q 900 1178 1048 958 
Q 1197 738 1509 602 
Q 1822 466 2213 466 
Q 2559 466 2825 569 
Q 3091 672 3220 851 
Q 3350 1031 3350 1244 
Q 3350 1459 3225 1620 
Q 3100 1781 2813 1891 
Q 2628 1963 1997 2114 
Q 1366 2266 1113 2400 
Q 784 2572 623 2826 
Q 463 3081 463 3397 
Q 463 3744 659 4045 
Q 856 4347 1234 4503 
Q 1613 4659 2075 4659 
Q 2584 4659 2973 4495 
Q 3363 4331 3572 4012 
Q 3781 3694 3797 3291 
L 3216 3247 
Q 3169 3681 2898 3903 
Q 2628 4125 2100 4125 
Q 1550 4125 1298 3923 
Q 1047 3722 1047 3438 
Q 1047 3191 1225 3031 
Q 1400 2872 2139 2705 
Q 2878 2538 3153 2413 
Q 3553 2228 3743 1945 
Q 3934 1663 3934 1294 
Q 3934 928 3725 604 
Q 3516 281 3123 101 
Q 2731 -78 2241 -78 
Q 1619 -78 1198 103 
Q 778 284 539 648 
Q 300 1013 288 1472 
z
" transform="scale(0.015625)"/>
      <path id="ArialMT-31" d="M 2384 0 
L 1822 0 
L 1822 3584 
Q 1619 3391 1289 3197 
Q 959 3003 697 2906 
L 697 3450 
Q 1169 3672 1522 3987 
Q 1875 4303 2022 4600 
L 2384 4600 
L 2384 0 
z
" transform="scale(0.015625)"/>
     </defs>
     <use xlink:href="#ArialMT-48"/>
     <use xlink:href="#ArialMT-53" x="72.216797"/>
     <use xlink:href="#ArialMT-31" x="138.916016"/>
    </g>
   </g>
  </g>
  <g id="axes_2">
   <g id="patch_7">
    <path d="M 25.08817 235.039688 
L 131.373884 235.039688 
L 131.373884 129.439687 
L 25.08817 129.439687 
L 25.08817 235.039688 
z
" style="fill: none"/>
   </g>
   <g id="matplotlib.axis_3">
    <g id="xtick_4">
     <g id="line2d_12">
      <g>
       <use xlink:href="#m67f8d52474" x="29.919338" y="235.039688" style="fill: #262626; stroke: #262626; stroke-width: 0.5"/>
      </g>
     </g>
     <g id="text_5">
      <!-- $t_c\!-\!T_p/2$ -->
      <g style="fill: #262626" transform="translate(29.919338 248.039688) scale(0.08 -0.08)">
       <defs>
        <path id="DejaVuSans-Oblique-74" d="M 2706 3500 
L 2619 3053 
L 1472 3053 
L 1100 1153 
Q 1081 1047 1072 975 
Q 1063 903 1063 863 
Q 1063 663 1183 572 
Q 1303 481 1569 481 
L 2150 481 
L 2053 0 
L 1503 0 
Q 991 0 739 200 
Q 488 400 488 806 
Q 488 878 497 964 
Q 506 1050 525 1153 
L 897 3053 
L 409 3053 
L 500 3500 
L 978 3500 
L 1172 4494 
L 1747 4494 
L 1556 3500 
L 2706 3500 
z
" transform="scale(0.015625)"/>
        <path id="DejaVuSans-Oblique-63" d="M 3431 3366 
L 3316 2797 
Q 3109 2947 2876 3022 
Q 2644 3097 2394 3097 
Q 2119 3097 1870 3000 
Q 1622 2903 1453 2725 
Q 1184 2453 1037 2087 
Q 891 1722 891 1331 
Q 891 859 1127 628 
Q 1363 397 1844 397 
Q 2081 397 2348 469 
Q 2616 541 2906 684 
L 2797 116 
Q 2547 13 2283 -39 
Q 2019 -91 1741 -91 
Q 1044 -91 669 257 
Q 294 606 294 1253 
Q 294 1797 489 2255 
Q 684 2713 1069 3078 
Q 1331 3328 1684 3456 
Q 2038 3584 2456 3584 
Q 2700 3584 2940 3529 
Q 3181 3475 3431 3366 
z
" transform="scale(0.015625)"/>
        <path id="DejaVuSans-2212" d="M 678 2272 
L 4684 2272 
L 4684 1741 
L 678 1741 
L 678 2272 
z
" transform="scale(0.015625)"/>
        <path id="DejaVuSans-Oblique-54" d="M 378 4666 
L 4325 4666 
L 4225 4134 
L 2559 4134 
L 1759 0 
L 1125 0 
L 1925 4134 
L 275 4134 
L 378 4666 
z
" transform="scale(0.015625)"/>
        <path id="DejaVuSans-Oblique-70" d="M 3175 2156 
Q 3175 2616 2975 2859 
Q 2775 3103 2400 3103 
Q 2144 3103 1911 2972 
Q 1678 2841 1497 2591 
Q 1319 2344 1212 1994 
Q 1106 1644 1106 1300 
Q 1106 863 1306 627 
Q 1506 391 1875 391 
Q 2147 391 2380 519 
Q 2613 647 2778 891 
Q 2956 1147 3065 1494 
Q 3175 1841 3175 2156 
z
M 1394 2969 
Q 1625 3272 1939 3428 
Q 2253 3584 2638 3584 
Q 3175 3584 3472 3232 
Q 3769 2881 3769 2247 
Q 3769 1728 3584 1258 
Q 3400 788 3053 416 
Q 2822 169 2531 39 
Q 2241 -91 1919 -91 
Q 1547 -91 1294 64 
Q 1041 219 916 525 
L 556 -1331 
L -19 -1331 
L 922 3500 
L 1497 3500 
L 1394 2969 
z
" transform="scale(0.015625)"/>
        <path id="DejaVuSans-2f" d="M 1625 4666 
L 2156 4666 
L 531 -594 
L 0 -594 
L 1625 4666 
z
" transform="scale(0.015625)"/>
        <path id="DejaVuSans-32" d="M 1228 531 
L 3431 531 
L 3431 0 
L 469 0 
L 469 531 
Q 828 903 1448 1529 
Q 2069 2156 2228 2338 
Q 2531 2678 2651 2914 
Q 2772 3150 2772 3378 
Q 2772 3750 2511 3984 
Q 2250 4219 1831 4219 
Q 1534 4219 1204 4116 
Q 875 4013 500 3803 
L 500 4441 
Q 881 4594 1212 4672 
Q 1544 4750 1819 4750 
Q 2544 4750 2975 4387 
Q 3406 4025 3406 3419 
Q 3406 3131 3298 2873 
Q 3191 2616 2906 2266 
Q 2828 2175 2409 1742 
Q 1991 1309 1228 531 
z
" transform="scale(0.015625)"/>
       </defs>
       <use xlink:href="#DejaVuSans-Oblique-74" transform="translate(0 0.78125)"/>
       <use xlink:href="#DejaVuSans-Oblique-63" transform="translate(39.208984 -15.625) scale(0.7)"/>
       <use xlink:href="#DejaVuSans-2212" transform="translate(83.676433 0.78125)"/>
       <use xlink:href="#DejaVuSans-Oblique-54" transform="translate(170.712241 0.78125)"/>
       <use xlink:href="#DejaVuSans-Oblique-70" transform="translate(231.796226 -15.625) scale(0.7)"/>
       <use xlink:href="#DejaVuSans-2f" transform="translate(278.964194 0.78125)"/>
       <use xlink:href="#DejaVuSans-32" transform="translate(309.030601 0.78125)"/>
      </g>
     </g>
    </g>
    <g id="xtick_5">
     <g id="line2d_13">
      <g>
       <use xlink:href="#m67f8d52474" x="78.231027" y="235.039688" style="fill: #262626; stroke: #262626; stroke-width: 0.5"/>
      </g>
     </g>
     <g id="text_6">
      <!-- $t_c$ -->
      <g style="fill: #262626" transform="translate(74.991027 247.765938) scale(0.08 -0.08)">
       <use xlink:href="#DejaVuSans-Oblique-74" transform="translate(0 0.78125)"/>
       <use xlink:href="#DejaVuSans-Oblique-63" transform="translate(39.208984 -15.625) scale(0.7)"/>
      </g>
     </g>
    </g>
    <g id="xtick_6">
     <g id="line2d_14">
      <g>
       <use xlink:href="#m67f8d52474" x="126.542715" y="235.039688" style="fill: #262626; stroke: #262626; stroke-width: 0.5"/>
      </g>
     </g>
     <g id="text_7">
      <!-- $t_c\!+\!T_p/2$ -->
      <g style="fill: #262626" transform="translate(96.702715 248.039688) scale(0.08 -0.08)">
       <defs>
        <path id="DejaVuSans-2b" d="M 2944 4013 
L 2944 2272 
L 4684 2272 
L 4684 1741 
L 2944 1741 
L 2944 0 
L 2419 0 
L 2419 1741 
L 678 1741 
L 678 2272 
L 2419 2272 
L 2419 4013 
L 2944 4013 
z
" transform="scale(0.015625)"/>
       </defs>
       <use xlink:href="#DejaVuSans-Oblique-74" transform="translate(0 0.78125)"/>
       <use xlink:href="#DejaVuSans-Oblique-63" transform="translate(39.208984 -15.625) scale(0.7)"/>
       <use xlink:href="#DejaVuSans-2b" transform="translate(83.676433 0.78125)"/>
       <use xlink:href="#DejaVuSans-Oblique-54" transform="translate(170.712241 0.78125)"/>
       <use xlink:href="#DejaVuSans-Oblique-70" transform="translate(231.796226 -15.625) scale(0.7)"/>
       <use xlink:href="#DejaVuSans-2f" transform="translate(278.964194 0.78125)"/>
       <use xlink:href="#DejaVuSans-32" transform="translate(309.030601 0.78125)"/>
      </g>
     </g>
    </g>
   </g>
   <g id="matplotlib.axis_4">
    <g id="ytick_6">
     <g id="line2d_15">
      <g>
       <use xlink:href="#mfa82f55924" x="25.08817" y="232.525402" style="fill: #262626; stroke: #262626; stroke-width: 0.5"/>
      </g>
     </g>
     <g id="text_8">
      <!-- $-A$ -->
      <g style="fill: #262626" transform="translate(5.84817 235.388527) scale(0.08 -0.08)">
       <defs>
        <path id="DejaVuSans-Oblique-41" d="M 2356 4666 
L 3072 4666 
L 3938 0 
L 3278 0 
L 3084 1197 
L 984 1197 
L 325 0 
L -341 0 
L 2356 4666 
z
M 2584 4044 
L 1275 1722 
L 2988 1722 
L 2584 4044 
z
" transform="scale(0.015625)"/>
       </defs>
       <use xlink:href="#DejaVuSans-2212" transform="translate(0 0.09375)"/>
       <use xlink:href="#DejaVuSans-Oblique-41" transform="translate(83.789062 0.09375)"/>
      </g>
     </g>
    </g>
    <g id="ytick_7">
     <g id="line2d_16">
      <g>
       <use xlink:href="#mfa82f55924" x="25.08817" y="182.239688" style="fill: #262626; stroke: #262626; stroke-width: 0.5"/>
      </g>
     </g>
     <g id="text_9">
      <!-- $0$ -->
      <g style="fill: #262626" transform="translate(12.96817 185.102812) scale(0.08 -0.08)">
       <defs>
        <path id="DejaVuSans-30" d="M 2034 4250 
Q 1547 4250 1301 3770 
Q 1056 3291 1056 2328 
Q 1056 1369 1301 889 
Q 1547 409 2034 409 
Q 2525 409 2770 889 
Q 3016 1369 3016 2328 
Q 3016 3291 2770 3770 
Q 2525 4250 2034 4250 
z
M 2034 4750 
Q 2819 4750 3233 4129 
Q 3647 3509 3647 2328 
Q 3647 1150 3233 529 
Q 2819 -91 2034 -91 
Q 1250 -91 836 529 
Q 422 1150 422 2328 
Q 422 3509 836 4129 
Q 1250 4750 2034 4750 
z
" transform="scale(0.015625)"/>
       </defs>
       <use xlink:href="#DejaVuSans-30" transform="translate(0 0.78125)"/>
      </g>
     </g>
    </g>
    <g id="ytick_8">
     <g id="line2d_17">
      <g>
       <use xlink:href="#mfa82f55924" x="25.08817" y="131.953973" style="fill: #262626; stroke: #262626; stroke-width: 0.5"/>
      </g>
     </g>
     <g id="text_10">
      <!-- $A$ -->
      <g style="fill: #262626" transform="translate(12.56817 134.817098) scale(0.08 -0.08)">
       <use xlink:href="#DejaVuSans-Oblique-41" transform="translate(0 0.09375)"/>
      </g>
     </g>
    </g>
    <g id="ytick_9">
     <g id="line2d_18">
      <g>
       <use xlink:href="#m7bc1e6430e" x="25.08817" y="207.382545" style="fill: #262626; stroke: #262626; stroke-width: 0.25"/>
      </g>
     </g>
    </g>
    <g id="ytick_10">
     <g id="line2d_19">
      <g>
       <use xlink:href="#m7bc1e6430e" x="25.08817" y="157.09683" style="fill: #262626; stroke: #262626; stroke-width: 0.25"/>
      </g>
     </g>
    </g>
    <g id="text_11">
     <!-- $\omega_\text{FM}$ -->
     <g style="fill: #262626" transform="translate(7.157813 191.639688) rotate(-90) scale(0.1 -0.1)">
      <defs>
       <path id="DejaVuSans-46" d="M 628 4666 
L 3309 4666 
L 3309 4134 
L 1259 4134 
L 1259 2759 
L 3109 2759 
L 3109 2228 
L 1259 2228 
L 1259 0 
L 628 0 
L 628 4666 
z
" transform="scale(0.015625)"/>
      </defs>
      <use xlink:href="#DejaVuSans-Oblique-3c9" transform="translate(0 0.3125)"/>
      <use xlink:href="#DejaVuSans-46" transform="translate(83.740234 -16.09375) scale(0.7)"/>
      <use xlink:href="#DejaVuSans-4d" transform="translate(124.003906 -16.09375) scale(0.7)"/>
     </g>
    </g>
   </g>
   <g id="PolyCollection_4"/>
   <g id="PolyCollection_5"/>
   <g id="PolyCollection_6"/>
   <g id="line2d_20">
    <path d="M 29.919338 232.525402 
L 47.311546 232.413929 
L 52.625832 232.163187 
L 55.524533 231.841351 
L 57.940118 231.367255 
L 59.872585 230.765373 
L 61.321936 230.12159 
L 62.771287 229.250458 
L 64.220637 228.078256 
L 65.669988 226.512727 
L 66.636222 225.196351 
L 67.602455 223.619036 
L 68.568689 221.741631 
L 69.534923 219.524715 
L 70.984274 215.483393 
L 72.433624 210.501958 
L 73.882975 204.552235 
L 75.332325 197.707781 
L 77.74791 184.901468 
L 81.129728 166.771594 
L 83.062196 157.83842 
L 84.511546 152.208967 
L 85.960897 147.548075 
L 87.410248 143.801356 
L 88.859598 140.860339 
L 90.308949 138.5946 
L 91.7583 136.874147 
L 93.20765 135.582039 
L 94.657001 134.619623 
L 96.106351 133.907183 
L 98.038819 133.240193 
L 100.454403 132.714185 
L 103.353105 132.356793 
L 107.21804 132.125507 
L 113.981676 131.990994 
L 126.542715 131.953973 
L 126.542715 131.953973 
" clip-path="url(#pfb8e3fae92)" style="fill: none; stroke: #023eff; stroke-linecap: round"/>
   </g>
   <g id="line2d_21">
    <path d="M 29.919338 232.525402 
L 36.199858 232.228595 
L 41.031027 231.782075 
L 44.412845 231.271024 
L 47.311546 230.633286 
L 49.727131 229.905947 
L 52.142715 228.941606 
L 54.075183 227.953052 
L 56.00765 226.725678 
L 57.940118 225.210685 
L 59.872585 223.354124 
L 61.805053 221.099012 
L 63.73752 218.389023 
L 65.669988 215.174077 
L 67.602455 211.417845 
L 69.534923 207.106651 
L 71.46739 202.258476 
L 73.882975 195.533433 
L 77.264793 185.261353 
L 82.579079 168.945942 
L 84.994663 162.220899 
L 86.927131 157.372724 
L 88.859598 153.06153 
L 90.792066 149.305298 
L 92.724533 146.090352 
L 94.657001 143.380363 
L 96.589468 141.125251 
L 98.521936 139.26869 
L 100.454403 137.753697 
L 102.386871 136.526323 
L 104.319338 135.537769 
L 106.734923 134.573428 
L 109.150507 133.846089 
L 112.049209 133.208351 
L 115.431027 132.6973 
L 119.779079 132.284527 
L 125.576481 131.986115 
L 126.542715 131.953973 
L 126.542715 131.953973 
" clip-path="url(#pfb8e3fae92)" style="fill: none; stroke: #ff7c00; stroke-linecap: round"/>
   </g>
   <g id="line2d_22">
    <path d="M 29.919338 232.525402 
L 34.26739 231.800138 
L 37.649209 231.028677 
L 41.031027 230.016984 
L 43.929728 228.907977 
L 46.345312 227.775332 
L 48.760897 226.418323 
L 51.176481 224.801285 
L 53.592066 222.886776 
L 56.00765 220.637302 
L 58.423235 218.017829 
L 60.838819 214.99913 
L 63.254403 211.561871 
L 65.669988 207.701102 
L 68.085572 203.430599 
L 70.984274 197.817296 
L 74.366092 190.734273 
L 86.927131 163.793813 
L 89.825832 158.438793 
L 92.241416 154.411299 
L 94.657001 150.804273 
L 97.072585 147.619767 
L 99.48817 144.843655 
L 101.903754 142.450144 
L 104.319338 140.406076 
L 106.734923 138.674592 
L 109.150507 137.217981 
L 111.566092 135.999705 
L 114.464793 134.804649 
L 117.363494 133.851248 
L 120.745312 132.984219 
L 124.610248 132.244624 
L 126.542715 131.953973 
L 126.542715 131.953973 
" clip-path="url(#pfb8e3fae92)" style="fill: none; stroke: #1ac938; stroke-linecap: round"/>
   </g>
   <g id="line2d_23"/>
   <g id="line2d_24"/>
   <g id="line2d_25"/>
   <g id="patch_8">
    <path d="M 25.08817 235.039688 
L 25.08817 129.439687 
" style="fill: none; stroke: #262626; stroke-width: 0.5; stroke-linejoin: miter; stroke-linecap: square"/>
   </g>
   <g id="patch_9">
    <path d="M 131.373884 235.039688 
L 131.373884 129.439687 
" style="fill: none; stroke: #262626; stroke-width: 0.5; stroke-linejoin: miter; stroke-linecap: square"/>
   </g>
   <g id="patch_10">
    <path d="M 25.08817 235.039688 
L 131.373884 235.039688 
" style="fill: none; stroke: #262626; stroke-width: 0.5; stroke-linejoin: miter; stroke-linecap: square"/>
   </g>
   <g id="patch_11">
    <path d="M 25.08817 129.439687 
L 131.373884 129.439687 
" style="fill: none; stroke: #262626; stroke-width: 0.5; stroke-linejoin: miter; stroke-linecap: square"/>
   </g>
   <g id="legend_1">
    <g id="text_12">
     <!-- $\operatorname{sech}\beta$ -->
     <g style="fill: #262626" transform="translate(39.88817 142.799688) scale(0.08 -0.08)">
      <defs>
       <path id="DejaVuSans-73" d="M 2834 3397 
L 2834 2853 
Q 2591 2978 2328 3040 
Q 2066 3103 1784 3103 
Q 1356 3103 1142 2972 
Q 928 2841 928 2578 
Q 928 2378 1081 2264 
Q 1234 2150 1697 2047 
L 1894 2003 
Q 2506 1872 2764 1633 
Q 3022 1394 3022 966 
Q 3022 478 2636 193 
Q 2250 -91 1575 -91 
Q 1294 -91 989 -36 
Q 684 19 347 128 
L 347 722 
Q 666 556 975 473 
Q 1284 391 1588 391 
Q 1994 391 2212 530 
Q 2431 669 2431 922 
Q 2431 1156 2273 1281 
Q 2116 1406 1581 1522 
L 1381 1569 
Q 847 1681 609 1914 
Q 372 2147 372 2553 
Q 372 3047 722 3315 
Q 1072 3584 1716 3584 
Q 2034 3584 2315 3537 
Q 2597 3491 2834 3397 
z
" transform="scale(0.015625)"/>
       <path id="DejaVuSans-65" d="M 3597 1894 
L 3597 1613 
L 953 1613 
Q 991 1019 1311 708 
Q 1631 397 2203 397 
Q 2534 397 2845 478 
Q 3156 559 3463 722 
L 3463 178 
Q 3153 47 2828 -22 
Q 2503 -91 2169 -91 
Q 1331 -91 842 396 
Q 353 884 353 1716 
Q 353 2575 817 3079 
Q 1281 3584 2069 3584 
Q 2775 3584 3186 3129 
Q 3597 2675 3597 1894 
z
M 3022 2063 
Q 3016 2534 2758 2815 
Q 2500 3097 2075 3097 
Q 1594 3097 1305 2825 
Q 1016 2553 972 2059 
L 3022 2063 
z
" transform="scale(0.015625)"/>
       <path id="DejaVuSans-63" d="M 3122 3366 
L 3122 2828 
Q 2878 2963 2633 3030 
Q 2388 3097 2138 3097 
Q 1578 3097 1268 2742 
Q 959 2388 959 1747 
Q 959 1106 1268 751 
Q 1578 397 2138 397 
Q 2388 397 2633 464 
Q 2878 531 3122 666 
L 3122 134 
Q 2881 22 2623 -34 
Q 2366 -91 2075 -91 
Q 1284 -91 818 406 
Q 353 903 353 1747 
Q 353 2603 823 3093 
Q 1294 3584 2113 3584 
Q 2378 3584 2631 3529 
Q 2884 3475 3122 3366 
z
" transform="scale(0.015625)"/>
       <path id="DejaVuSans-68" d="M 3513 2113 
L 3513 0 
L 2938 0 
L 2938 2094 
Q 2938 2591 2744 2837 
Q 2550 3084 2163 3084 
Q 1697 3084 1428 2787 
Q 1159 2491 1159 1978 
L 1159 0 
L 581 0 
L 581 4863 
L 1159 4863 
L 1159 2956 
Q 1366 3272 1645 3428 
Q 1925 3584 2291 3584 
Q 2894 3584 3203 3211 
Q 3513 2838 3513 2113 
z
" transform="scale(0.015625)"/>
       <path id="DejaVuSans-Oblique-3b2" d="M 872 216 
L 572 -1331 
L -6 -1331 
L 928 3478 
Q 1206 4903 2538 4903 
Q 3888 4903 3659 3700 
Q 3503 2844 2894 2531 
Q 3713 2250 3553 1416 
Q 3272 -69 1759 -66 
Q 1097 -63 872 216 
z
M 1019 966 
Q 1259 422 1875 425 
Q 2775 425 2966 1406 
Q 3138 2288 1675 2219 
L 1778 2750 
Q 2909 2731 3106 3750 
Q 3241 4438 2509 4434 
Q 1691 4434 1503 3459 
L 1019 966 
z
" transform="scale(0.015625)"/>
      </defs>
      <use xlink:href="#DejaVuSans-73" transform="translate(0 0.390625)"/>
      <use xlink:href="#DejaVuSans-65" transform="translate(52.099609 0.390625)"/>
      <use xlink:href="#DejaVuSans-63" transform="translate(113.623047 0.390625)"/>
      <use xlink:href="#DejaVuSans-68" transform="translate(168.603516 0.390625)"/>
      <use xlink:href="#DejaVuSans-Oblique-3b2" transform="translate(248.218098 0.390625)"/>
     </g>
    </g>
    <g id="line2d_26">
     <path d="M 32.28817 151.405937 
L 40.28817 151.405937 
L 48.28817 151.405937 
" style="fill: none; stroke: #023eff; stroke-width: 1.5; stroke-linecap: round"/>
    </g>
    <g id="text_13">
     <!-- $0.01$ -->
     <g style="fill: #262626" transform="translate(54.68817 154.205938) scale(0.08 -0.08)">
      <defs>
       <path id="DejaVuSans-2e" d="M 684 794 
L 1344 794 
L 1344 0 
L 684 0 
L 684 794 
z
" transform="scale(0.015625)"/>
      </defs>
      <use xlink:href="#DejaVuSans-30" transform="translate(0 0.78125)"/>
      <use xlink:href="#DejaVuSans-2e" transform="translate(63.623047 0.78125)"/>
      <use xlink:href="#DejaVuSans-30" transform="translate(95.410156 0.78125)"/>
      <use xlink:href="#DejaVuSans-31" transform="translate(159.033203 0.78125)"/>
     </g>
    </g>
    <g id="line2d_27">
     <path d="M 32.28817 162.722187 
L 40.28817 162.722187 
L 48.28817 162.722187 
" style="fill: none; stroke: #ff7c00; stroke-width: 1.5; stroke-linecap: round"/>
    </g>
    <g id="text_14">
     <!-- $0.10$ -->
     <g style="fill: #262626" transform="translate(54.68817 165.522187) scale(0.08 -0.08)">
      <use xlink:href="#DejaVuSans-30" transform="translate(0 0.78125)"/>
      <use xlink:href="#DejaVuSans-2e" transform="translate(63.623047 0.78125)"/>
      <use xlink:href="#DejaVuSans-31" transform="translate(95.410156 0.78125)"/>
      <use xlink:href="#DejaVuSans-30" transform="translate(159.033203 0.78125)"/>
     </g>
    </g>
    <g id="line2d_28">
     <path d="M 32.28817 174.038437 
L 40.28817 174.038437 
L 48.28817 174.038437 
" style="fill: none; stroke: #1ac938; stroke-width: 1.5; stroke-linecap: round"/>
    </g>
    <g id="text_15">
     <!-- $0.25$ -->
     <g style="fill: #262626" transform="translate(54.68817 176.838437) scale(0.08 -0.08)">
      <defs>
       <path id="DejaVuSans-35" d="M 691 4666 
L 3169 4666 
L 3169 4134 
L 1269 4134 
L 1269 2991 
Q 1406 3038 1543 3061 
Q 1681 3084 1819 3084 
Q 2600 3084 3056 2656 
Q 3513 2228 3513 1497 
Q 3513 744 3044 326 
Q 2575 -91 1722 -91 
Q 1428 -91 1123 -41 
Q 819 9 494 109 
L 494 744 
Q 775 591 1075 516 
Q 1375 441 1709 441 
Q 2250 441 2565 725 
Q 2881 1009 2881 1497 
Q 2881 1984 2565 2268 
Q 2250 2553 1709 2553 
Q 1456 2553 1204 2497 
Q 953 2441 691 2322 
L 691 4666 
z
" transform="scale(0.015625)"/>
      </defs>
      <use xlink:href="#DejaVuSans-30" transform="translate(0 0.78125)"/>
      <use xlink:href="#DejaVuSans-2e" transform="translate(63.623047 0.78125)"/>
      <use xlink:href="#DejaVuSans-32" transform="translate(89.910156 0.78125)"/>
      <use xlink:href="#DejaVuSans-35" transform="translate(153.533203 0.78125)"/>
     </g>
    </g>
   </g>
  </g>
  <g id="axes_3">
   <g id="patch_12">
    <path d="M 142.002455 118.879687 
L 248.28817 118.879687 
L 248.28817 13.279687 
L 142.002455 13.279687 
L 142.002455 118.879687 
z
" style="fill: none"/>
   </g>
   <g id="matplotlib.axis_5">
    <g id="xtick_7">
     <g id="line2d_29">
      <g>
       <use xlink:href="#m67f8d52474" x="146.833624" y="118.879687" style="fill: #262626; stroke: #262626; stroke-width: 0.5"/>
      </g>
     </g>
    </g>
    <g id="xtick_8">
     <g id="line2d_30">
      <g>
       <use xlink:href="#m67f8d52474" x="195.145312" y="118.879687" style="fill: #262626; stroke: #262626; stroke-width: 0.5"/>
      </g>
     </g>
    </g>
    <g id="xtick_9">
     <g id="line2d_31">
      <g>
       <use xlink:href="#m67f8d52474" x="243.457001" y="118.879687" style="fill: #262626; stroke: #262626; stroke-width: 0.5"/>
      </g>
     </g>
    </g>
   </g>
   <g id="matplotlib.axis_6">
    <g id="ytick_11">
     <g id="line2d_32">
      <g>
       <use xlink:href="#mfa82f55924" x="142.002455" y="114.079687" style="fill: #262626; stroke: #262626; stroke-width: 0.5"/>
      </g>
     </g>
    </g>
    <g id="ytick_12">
     <g id="line2d_33">
      <g>
       <use xlink:href="#mfa82f55924" x="142.002455" y="18.079687" style="fill: #262626; stroke: #262626; stroke-width: 0.5"/>
      </g>
     </g>
    </g>
    <g id="ytick_13">
     <g id="line2d_34">
      <g>
       <use xlink:href="#m7bc1e6430e" x="142.002455" y="90.079687" style="fill: #262626; stroke: #262626; stroke-width: 0.25"/>
      </g>
     </g>
    </g>
    <g id="ytick_14">
     <g id="line2d_35">
      <g>
       <use xlink:href="#m7bc1e6430e" x="142.002455" y="66.079687" style="fill: #262626; stroke: #262626; stroke-width: 0.25"/>
      </g>
     </g>
    </g>
    <g id="ytick_15">
     <g id="line2d_36">
      <g>
       <use xlink:href="#m7bc1e6430e" x="142.002455" y="42.079687" style="fill: #262626; stroke: #262626; stroke-width: 0.25"/>
      </g>
     </g>
    </g>
   </g>
   <g id="PolyCollection_7"/>
   <g id="line2d_37">
    <path d="M 146.833624 18.079687 
L 243.457001 18.079687 
L 243.457001 18.079687 
" clip-path="url(#pcafe3f8e2d)" style="fill: none; stroke: #023eff; stroke-linecap: round"/>
   </g>
   <g id="patch_13">
    <path d="M 142.002455 118.879687 
L 142.002455 13.279687 
" style="fill: none; stroke: #262626; stroke-width: 0.5; stroke-linejoin: miter; stroke-linecap: square"/>
   </g>
   <g id="patch_14">
    <path d="M 248.28817 118.879687 
L 248.28817 13.279687 
" style="fill: none; stroke: #262626; stroke-width: 0.5; stroke-linejoin: miter; stroke-linecap: square"/>
   </g>
   <g id="patch_15">
    <path d="M 142.002455 118.879687 
L 248.28817 118.879687 
" style="fill: none; stroke: #262626; stroke-width: 0.5; stroke-linejoin: miter; stroke-linecap: square"/>
   </g>
   <g id="patch_16">
    <path d="M 142.002455 13.279687 
L 248.28817 13.279687 
" style="fill: none; stroke: #262626; stroke-width: 0.5; stroke-linejoin: miter; stroke-linecap: square"/>
   </g>
   <g id="text_16">
    <!-- Chirp -->
    <g style="fill: #262626" transform="translate(183.197656 7.279687) scale(0.1 -0.1)">
     <defs>
      <path id="ArialMT-43" d="M 3763 1606 
L 4369 1453 
Q 4178 706 3683 314 
Q 3188 -78 2472 -78 
Q 1731 -78 1267 223 
Q 803 525 561 1097 
Q 319 1669 319 2325 
Q 319 3041 592 3573 
Q 866 4106 1370 4382 
Q 1875 4659 2481 4659 
Q 3169 4659 3637 4309 
Q 4106 3959 4291 3325 
L 3694 3184 
Q 3534 3684 3231 3912 
Q 2928 4141 2469 4141 
Q 1941 4141 1586 3887 
Q 1231 3634 1087 3207 
Q 944 2781 944 2328 
Q 944 1744 1114 1308 
Q 1284 872 1643 656 
Q 2003 441 2422 441 
Q 2931 441 3284 734 
Q 3638 1028 3763 1606 
z
" transform="scale(0.015625)"/>
      <path id="ArialMT-68" d="M 422 0 
L 422 4581 
L 984 4581 
L 984 2938 
Q 1378 3394 1978 3394 
Q 2347 3394 2619 3248 
Q 2891 3103 3008 2847 
Q 3125 2591 3125 2103 
L 3125 0 
L 2563 0 
L 2563 2103 
Q 2563 2525 2380 2717 
Q 2197 2909 1863 2909 
Q 1613 2909 1392 2779 
Q 1172 2650 1078 2428 
Q 984 2206 984 1816 
L 984 0 
L 422 0 
z
" transform="scale(0.015625)"/>
      <path id="ArialMT-69" d="M 425 3934 
L 425 4581 
L 988 4581 
L 988 3934 
L 425 3934 
z
M 425 0 
L 425 3319 
L 988 3319 
L 988 0 
L 425 0 
z
" transform="scale(0.015625)"/>
      <path id="ArialMT-72" d="M 416 0 
L 416 3319 
L 922 3319 
L 922 2816 
Q 1116 3169 1280 3281 
Q 1444 3394 1641 3394 
Q 1925 3394 2219 3213 
L 2025 2691 
Q 1819 2813 1613 2813 
Q 1428 2813 1281 2702 
Q 1134 2591 1072 2394 
Q 978 2094 978 1738 
L 978 0 
L 416 0 
z
" transform="scale(0.015625)"/>
      <path id="ArialMT-70" d="M 422 -1272 
L 422 3319 
L 934 3319 
L 934 2888 
Q 1116 3141 1344 3267 
Q 1572 3394 1897 3394 
Q 2322 3394 2647 3175 
Q 2972 2956 3137 2557 
Q 3303 2159 3303 1684 
Q 3303 1175 3120 767 
Q 2938 359 2589 142 
Q 2241 -75 1856 -75 
Q 1575 -75 1351 44 
Q 1128 163 984 344 
L 984 -1272 
L 422 -1272 
z
M 931 1641 
Q 931 1000 1190 694 
Q 1450 388 1819 388 
Q 2194 388 2461 705 
Q 2728 1022 2728 1688 
Q 2728 2322 2467 2637 
Q 2206 2953 1844 2953 
Q 1484 2953 1207 2617 
Q 931 2281 931 1641 
z
" transform="scale(0.015625)"/>
     </defs>
     <use xlink:href="#ArialMT-43"/>
     <use xlink:href="#ArialMT-68" x="72.216797"/>
     <use xlink:href="#ArialMT-69" x="127.832031"/>
     <use xlink:href="#ArialMT-72" x="150.048828"/>
     <use xlink:href="#ArialMT-70" x="183.349609"/>
    </g>
   </g>
  </g>
  <g id="axes_4">
   <g id="patch_17">
    <path d="M 142.002455 235.039688 
L 248.28817 235.039688 
L 248.28817 129.439687 
L 142.002455 129.439687 
L 142.002455 235.039688 
z
" style="fill: none"/>
   </g>
   <g id="matplotlib.axis_7">
    <g id="xtick_10">
     <g id="line2d_38">
      <g>
       <use xlink:href="#m67f8d52474" x="146.833624" y="235.039688" style="fill: #262626; stroke: #262626; stroke-width: 0.5"/>
      </g>
     </g>
     <g id="text_17">
      <!-- $t_c\!-\!T_p/2$ -->
      <g style="fill: #262626" transform="translate(146.833624 248.039688) scale(0.08 -0.08)">
       <use xlink:href="#DejaVuSans-Oblique-74" transform="translate(0 0.78125)"/>
       <use xlink:href="#DejaVuSans-Oblique-63" transform="translate(39.208984 -15.625) scale(0.7)"/>
       <use xlink:href="#DejaVuSans-2212" transform="translate(83.676433 0.78125)"/>
       <use xlink:href="#DejaVuSans-Oblique-54" transform="translate(170.712241 0.78125)"/>
       <use xlink:href="#DejaVuSans-Oblique-70" transform="translate(231.796226 -15.625) scale(0.7)"/>
       <use xlink:href="#DejaVuSans-2f" transform="translate(278.964194 0.78125)"/>
       <use xlink:href="#DejaVuSans-32" transform="translate(309.030601 0.78125)"/>
      </g>
     </g>
    </g>
    <g id="xtick_11">
     <g id="line2d_39">
      <g>
       <use xlink:href="#m67f8d52474" x="195.145312" y="235.039688" style="fill: #262626; stroke: #262626; stroke-width: 0.5"/>
      </g>
     </g>
     <g id="text_18">
      <!-- $t_c$ -->
      <g style="fill: #262626" transform="translate(191.905312 247.765938) scale(0.08 -0.08)">
       <use xlink:href="#DejaVuSans-Oblique-74" transform="translate(0 0.78125)"/>
       <use xlink:href="#DejaVuSans-Oblique-63" transform="translate(39.208984 -15.625) scale(0.7)"/>
      </g>
     </g>
    </g>
    <g id="xtick_12">
     <g id="line2d_40">
      <g>
       <use xlink:href="#m67f8d52474" x="243.457001" y="235.039688" style="fill: #262626; stroke: #262626; stroke-width: 0.5"/>
      </g>
     </g>
     <g id="text_19">
      <!-- $t_c\!+\!T_p/2$ -->
      <g style="fill: #262626" transform="translate(213.617001 248.039688) scale(0.08 -0.08)">
       <use xlink:href="#DejaVuSans-Oblique-74" transform="translate(0 0.78125)"/>
       <use xlink:href="#DejaVuSans-Oblique-63" transform="translate(39.208984 -15.625) scale(0.7)"/>
       <use xlink:href="#DejaVuSans-2b" transform="translate(83.676433 0.78125)"/>
       <use xlink:href="#DejaVuSans-Oblique-54" transform="translate(170.712241 0.78125)"/>
       <use xlink:href="#DejaVuSans-Oblique-70" transform="translate(231.796226 -15.625) scale(0.7)"/>
       <use xlink:href="#DejaVuSans-2f" transform="translate(278.964194 0.78125)"/>
       <use xlink:href="#DejaVuSans-32" transform="translate(309.030601 0.78125)"/>
      </g>
     </g>
    </g>
   </g>
   <g id="matplotlib.axis_8">
    <g id="ytick_16">
     <g id="line2d_41">
      <g>
       <use xlink:href="#mfa82f55924" x="142.002455" y="232.525402" style="fill: #262626; stroke: #262626; stroke-width: 0.5"/>
      </g>
     </g>
    </g>
    <g id="ytick_17">
     <g id="line2d_42">
      <g>
       <use xlink:href="#mfa82f55924" x="142.002455" y="182.239688" style="fill: #262626; stroke: #262626; stroke-width: 0.5"/>
      </g>
     </g>
    </g>
    <g id="ytick_18">
     <g id="line2d_43">
      <g>
       <use xlink:href="#mfa82f55924" x="142.002455" y="131.953973" style="fill: #262626; stroke: #262626; stroke-width: 0.5"/>
      </g>
     </g>
    </g>
    <g id="ytick_19">
     <g id="line2d_44">
      <g>
       <use xlink:href="#m7bc1e6430e" x="142.002455" y="207.382545" style="fill: #262626; stroke: #262626; stroke-width: 0.25"/>
      </g>
     </g>
    </g>
    <g id="ytick_20">
     <g id="line2d_45">
      <g>
       <use xlink:href="#m7bc1e6430e" x="142.002455" y="157.09683" style="fill: #262626; stroke: #262626; stroke-width: 0.25"/>
      </g>
     </g>
    </g>
   </g>
   <g id="PolyCollection_8"/>
   <g id="line2d_46">
    <path d="M 146.833624 232.525402 
L 243.457001 131.953973 
L 243.457001 131.953973 
" clip-path="url(#p647c3fec96)" style="fill: none; stroke: #023eff; stroke-linecap: round"/>
   </g>
   <g id="patch_18">
    <path d="M 142.002455 235.039688 
L 142.002455 129.439687 
" style="fill: none; stroke: #262626; stroke-width: 0.5; stroke-linejoin: miter; stroke-linecap: square"/>
   </g>
   <g id="patch_19">
    <path d="M 248.28817 235.039688 
L 248.28817 129.439687 
" style="fill: none; stroke: #262626; stroke-width: 0.5; stroke-linejoin: miter; stroke-linecap: square"/>
   </g>
   <g id="patch_20">
    <path d="M 142.002455 235.039688 
L 248.28817 235.039688 
" style="fill: none; stroke: #262626; stroke-width: 0.5; stroke-linejoin: miter; stroke-linecap: square"/>
   </g>
   <g id="patch_21">
    <path d="M 142.002455 129.439687 
L 248.28817 129.439687 
" style="fill: none; stroke: #262626; stroke-width: 0.5; stroke-linejoin: miter; stroke-linecap: square"/>
   </g>
  </g>
 </g>
 <defs>
  <clipPath id="p163274d868">
   <rect x="25.08817" y="13.279687" width="106.285714" height="105.6"/>
  </clipPath>
  <clipPath id="pfb8e3fae92">
   <rect x="25.08817" y="129.439687" width="106.285714" height="105.6"/>
  </clipPath>
  <clipPath id="pcafe3f8e2d">
   <rect x="142.002455" y="13.279687" width="106.285714" height="105.6"/>
  </clipPath>
  <clipPath id="p647c3fec96">
   <rect x="142.002455" y="129.439687" width="106.285714" height="105.6"/>
  </clipPath>
 </defs>
</svg>
