<?xml version="1.0" encoding="utf-8" standalone="no"?>
<!DOCTYPE svg PUBLIC "-//W3C//DTD SVG 1.1//EN"
  "http://www.w3.org/Graphics/SVG/1.1/DTD/svg11.dtd">
<svg xmlns:xlink="http://www.w3.org/1999/xlink" width="487.759429pt" height="257.976853pt" viewBox="0 0 487.759429 257.976853" xmlns="http://www.w3.org/2000/svg" version="1.1">
 <metadata>
  <rdf:RDF xmlns:dc="http://purl.org/dc/elements/1.1/" xmlns:cc="http://creativecommons.org/ns#" xmlns:rdf="http://www.w3.org/1999/02/22-rdf-syntax-ns#">
   <cc:Work>
    <dc:type rdf:resource="http://purl.org/dc/dcmitype/StillImage"/>
    <dc:date>2025-04-11T09:24:25.473370</dc:date>
    <dc:format>image/svg+xml</dc:format>
    <dc:creator>
     <cc:Agent>
      <dc:title>Matplotlib v3.8.0, https://matplotlib.org/</dc:title>
     </cc:Agent>
    </dc:creator>
   </cc:Work>
  </rdf:RDF>
 </metadata>
 <defs>
  <style type="text/css">*{stroke-linejoin: round; stroke-linecap: butt}</style>
 </defs>
 <g id="figure_1">
  <g id="patch_1">
   <path d="M 0 257.976853 
L 487.759429 257.976853 
L 487.759429 0 
L 0 0 
L 0 257.976853 
z
" style="fill: none"/>
  </g>
  <g id="axes_1">
   <g id="patch_2">
    <path d="M 41.359429 116.301999 
L 168.902286 116.301999 
L 168.902286 13.157812 
L 41.359429 13.157812 
L 41.359429 116.301999 
z
" style="fill: none"/>
   </g>
   <g id="matplotlib.axis_1">
    <g id="xtick_1">
     <g id="line2d_1">
      <defs>
       <path id="mbd38af8ad4" d="M 0 0 
L 0 3.5 
" style="stroke: #262626; stroke-width: 0.5"/>
      </defs>
      <g>
       <use xlink:href="#mbd38af8ad4" x="47.156831" y="116.301999" style="fill: #262626; stroke: #262626; stroke-width: 0.5"/>
      </g>
     </g>
    </g>
    <g id="xtick_2">
     <g id="line2d_2">
      <g>
       <use xlink:href="#mbd38af8ad4" x="76.172889" y="116.301999" style="fill: #262626; stroke: #262626; stroke-width: 0.5"/>
      </g>
     </g>
    </g>
    <g id="xtick_3">
     <g id="line2d_3">
      <g>
       <use xlink:href="#mbd38af8ad4" x="105.188947" y="116.301999" style="fill: #262626; stroke: #262626; stroke-width: 0.5"/>
      </g>
     </g>
    </g>
    <g id="xtick_4">
     <g id="line2d_4">
      <g>
       <use xlink:href="#mbd38af8ad4" x="134.205005" y="116.301999" style="fill: #262626; stroke: #262626; stroke-width: 0.5"/>
      </g>
     </g>
    </g>
    <g id="xtick_5">
     <g id="line2d_5">
      <g>
       <use xlink:href="#mbd38af8ad4" x="163.221064" y="116.301999" style="fill: #262626; stroke: #262626; stroke-width: 0.5"/>
      </g>
     </g>
    </g>
   </g>
   <g id="matplotlib.axis_2">
    <g id="ytick_1">
     <g id="line2d_6">
      <defs>
       <path id="m6aaf95e470" d="M 0 0 
L -3.5 0 
" style="stroke: #262626; stroke-width: 0.5"/>
      </defs>
      <g>
       <use xlink:href="#m6aaf95e470" x="41.359429" y="116.301999" style="fill: #262626; stroke: #262626; stroke-width: 0.5"/>
      </g>
     </g>
     <g id="text_1">
      <!-- −0.02 -->
      <g style="fill: #262626" transform="translate(14.118179 119.165124) scale(0.08 -0.08)">
       <defs>
        <path id="ArialMT-2212" d="M 3381 1997 
L 356 1997 
L 356 2522 
L 3381 2522 
L 3381 1997 
z
" transform="scale(0.015625)"/>
        <path id="ArialMT-30" d="M 266 2259 
Q 266 3072 433 3567 
Q 600 4063 929 4331 
Q 1259 4600 1759 4600 
Q 2128 4600 2406 4451 
Q 2684 4303 2865 4023 
Q 3047 3744 3150 3342 
Q 3253 2941 3253 2259 
Q 3253 1453 3087 958 
Q 2922 463 2592 192 
Q 2263 -78 1759 -78 
Q 1097 -78 719 397 
Q 266 969 266 2259 
z
M 844 2259 
Q 844 1131 1108 757 
Q 1372 384 1759 384 
Q 2147 384 2411 759 
Q 2675 1134 2675 2259 
Q 2675 3391 2411 3762 
Q 2147 4134 1753 4134 
Q 1366 4134 1134 3806 
Q 844 3388 844 2259 
z
" transform="scale(0.015625)"/>
        <path id="ArialMT-2e" d="M 581 0 
L 581 641 
L 1222 641 
L 1222 0 
L 581 0 
z
" transform="scale(0.015625)"/>
        <path id="ArialMT-32" d="M 3222 541 
L 3222 0 
L 194 0 
Q 188 203 259 391 
Q 375 700 629 1000 
Q 884 1300 1366 1694 
Q 2113 2306 2375 2664 
Q 2638 3022 2638 3341 
Q 2638 3675 2398 3904 
Q 2159 4134 1775 4134 
Q 1369 4134 1125 3890 
Q 881 3647 878 3216 
L 300 3275 
Q 359 3922 746 4261 
Q 1134 4600 1788 4600 
Q 2447 4600 2831 4234 
Q 3216 3869 3216 3328 
Q 3216 3053 3103 2787 
Q 2991 2522 2730 2228 
Q 2469 1934 1863 1422 
Q 1356 997 1212 845 
Q 1069 694 975 541 
L 3222 541 
z
" transform="scale(0.015625)"/>
       </defs>
       <use xlink:href="#ArialMT-2212"/>
       <use xlink:href="#ArialMT-30" x="58.398438"/>
       <use xlink:href="#ArialMT-2e" x="114.013672"/>
       <use xlink:href="#ArialMT-30" x="141.796875"/>
       <use xlink:href="#ArialMT-32" x="197.412109"/>
      </g>
     </g>
    </g>
    <g id="ytick_2">
     <g id="line2d_7">
      <g>
       <use xlink:href="#m6aaf95e470" x="41.359429" y="90.515952" style="fill: #262626; stroke: #262626; stroke-width: 0.5"/>
      </g>
     </g>
     <g id="text_2">
      <!-- −0.01 -->
      <g style="fill: #262626" transform="translate(14.118179 93.379077) scale(0.08 -0.08)">
       <defs>
        <path id="ArialMT-31" d="M 2384 0 
L 1822 0 
L 1822 3584 
Q 1619 3391 1289 3197 
Q 959 3003 697 2906 
L 697 3450 
Q 1169 3672 1522 3987 
Q 1875 4303 2022 4600 
L 2384 4600 
L 2384 0 
z
" transform="scale(0.015625)"/>
       </defs>
       <use xlink:href="#ArialMT-2212"/>
       <use xlink:href="#ArialMT-30" x="58.398438"/>
       <use xlink:href="#ArialMT-2e" x="114.013672"/>
       <use xlink:href="#ArialMT-30" x="141.796875"/>
       <use xlink:href="#ArialMT-31" x="197.412109"/>
      </g>
     </g>
    </g>
    <g id="ytick_3">
     <g id="line2d_8">
      <g>
       <use xlink:href="#m6aaf95e470" x="41.359429" y="64.729906" style="fill: #262626; stroke: #262626; stroke-width: 0.5"/>
      </g>
     </g>
     <g id="text_3">
      <!-- 0.00 -->
      <g style="fill: #262626" transform="translate(18.790679 67.593031) scale(0.08 -0.08)">
       <use xlink:href="#ArialMT-30"/>
       <use xlink:href="#ArialMT-2e" x="55.615234"/>
       <use xlink:href="#ArialMT-30" x="83.398438"/>
       <use xlink:href="#ArialMT-30" x="139.013672"/>
      </g>
     </g>
    </g>
    <g id="ytick_4">
     <g id="line2d_9">
      <g>
       <use xlink:href="#m6aaf95e470" x="41.359429" y="38.943859" style="fill: #262626; stroke: #262626; stroke-width: 0.5"/>
      </g>
     </g>
     <g id="text_4">
      <!-- 0.01 -->
      <g style="fill: #262626" transform="translate(18.790679 41.806984) scale(0.08 -0.08)">
       <use xlink:href="#ArialMT-30"/>
       <use xlink:href="#ArialMT-2e" x="55.615234"/>
       <use xlink:href="#ArialMT-30" x="83.398438"/>
       <use xlink:href="#ArialMT-31" x="139.013672"/>
      </g>
     </g>
    </g>
    <g id="ytick_5">
     <g id="line2d_10">
      <g>
       <use xlink:href="#m6aaf95e470" x="41.359429" y="13.157812" style="fill: #262626; stroke: #262626; stroke-width: 0.5"/>
      </g>
     </g>
     <g id="text_5">
      <!-- 0.02 -->
      <g style="fill: #262626" transform="translate(18.790679 16.020937) scale(0.08 -0.08)">
       <use xlink:href="#ArialMT-30"/>
       <use xlink:href="#ArialMT-2e" x="55.615234"/>
       <use xlink:href="#ArialMT-30" x="83.398438"/>
       <use xlink:href="#ArialMT-32" x="139.013672"/>
      </g>
     </g>
    </g>
    <g id="text_6">
     <!-- $|M_{xy}^{S}| - |M_{xy}^{C}|$ -->
     <g style="fill: #262626" transform="translate(9.1 94.829906) rotate(-90) scale(0.1 -0.1)">
      <defs>
       <path id="DejaVuSans-7c" d="M 1344 4891 
L 1344 -1509 
L 813 -1509 
L 813 4891 
L 1344 4891 
z
" transform="scale(0.015625)"/>
       <path id="DejaVuSans-Oblique-4d" d="M 1081 4666 
L 2028 4666 
L 2572 1522 
L 4378 4666 
L 5350 4666 
L 4441 0 
L 3828 0 
L 4622 4091 
L 2791 897 
L 2175 897 
L 1581 4103 
L 788 0 
L 172 0 
L 1081 4666 
z
" transform="scale(0.015625)"/>
       <path id="DejaVuSans-Oblique-53" d="M 3859 4513 
L 3738 3897 
Q 3422 4066 3111 4152 
Q 2800 4238 2509 4238 
Q 1944 4238 1609 3991 
Q 1275 3744 1275 3334 
Q 1275 3109 1398 2989 
Q 1522 2869 2034 2731 
L 2413 2638 
Q 3053 2472 3303 2217 
Q 3553 1963 3553 1503 
Q 3553 797 2998 353 
Q 2444 -91 1538 -91 
Q 1166 -91 791 -17 
Q 416 56 38 206 
L 166 856 
Q 513 641 861 531 
Q 1209 422 1556 422 
Q 2147 422 2503 684 
Q 2859 947 2859 1369 
Q 2859 1650 2717 1795 
Q 2575 1941 2106 2059 
L 1728 2156 
Q 1081 2325 845 2545 
Q 609 2766 609 3163 
Q 609 3859 1145 4304 
Q 1681 4750 2541 4750 
Q 2875 4750 3203 4690 
Q 3531 4631 3859 4513 
z
" transform="scale(0.015625)"/>
       <path id="DejaVuSans-Oblique-78" d="M 3841 3500 
L 2234 1784 
L 3219 0 
L 2559 0 
L 1819 1388 
L 531 0 
L -166 0 
L 1556 1844 
L 641 3500 
L 1300 3500 
L 1972 2234 
L 3144 3500 
L 3841 3500 
z
" transform="scale(0.015625)"/>
       <path id="DejaVuSans-Oblique-79" d="M 1588 -325 
Q 1188 -997 936 -1164 
Q 684 -1331 294 -1331 
L -159 -1331 
L -63 -850 
L 269 -850 
Q 509 -850 678 -719 
Q 847 -588 1056 -206 
L 1234 128 
L 459 3500 
L 1069 3500 
L 1650 819 
L 3256 3500 
L 3859 3500 
L 1588 -325 
z
" transform="scale(0.015625)"/>
       <path id="DejaVuSans-2212" d="M 678 2272 
L 4684 2272 
L 4684 1741 
L 678 1741 
L 678 2272 
z
" transform="scale(0.015625)"/>
       <path id="DejaVuSans-Oblique-43" d="M 4447 4306 
L 4319 3641 
Q 4019 3944 3683 4091 
Q 3347 4238 2956 4238 
Q 2422 4238 2017 3981 
Q 1613 3725 1319 3200 
Q 1131 2863 1032 2486 
Q 934 2109 934 1728 
Q 934 1091 1264 756 
Q 1594 422 2222 422 
Q 2656 422 3056 561 
Q 3456 700 3834 978 
L 3688 231 
Q 3316 72 2936 -9 
Q 2556 -91 2175 -91 
Q 1278 -91 773 396 
Q 269 884 269 1753 
Q 269 2309 461 2846 
Q 653 3384 1013 3828 
Q 1394 4300 1883 4525 
Q 2372 4750 3022 4750 
Q 3422 4750 3780 4639 
Q 4138 4528 4447 4306 
z
" transform="scale(0.015625)"/>
      </defs>
      <use xlink:href="#DejaVuSans-7c" transform="translate(0 0.765625)"/>
      <use xlink:href="#DejaVuSans-Oblique-4d" transform="translate(33.691406 0.765625)"/>
      <use xlink:href="#DejaVuSans-Oblique-53" transform="translate(126.987474 39.046875) scale(0.7)"/>
      <use xlink:href="#DejaVuSans-Oblique-78" transform="translate(119.970703 -26.578125) scale(0.7)"/>
      <use xlink:href="#DejaVuSans-Oblique-79" transform="translate(161.396484 -26.578125) scale(0.7)"/>
      <use xlink:href="#DejaVuSans-7c" transform="translate(205.556641 0.765625)"/>
      <use xlink:href="#DejaVuSans-2212" transform="translate(258.730469 0.765625)"/>
      <use xlink:href="#DejaVuSans-7c" transform="translate(362.001953 0.765625)"/>
      <use xlink:href="#DejaVuSans-Oblique-4d" transform="translate(395.693359 0.765625)"/>
      <use xlink:href="#DejaVuSans-Oblique-43" transform="translate(488.989427 39.046875) scale(0.7)"/>
      <use xlink:href="#DejaVuSans-Oblique-78" transform="translate(481.972656 -26.578125) scale(0.7)"/>
      <use xlink:href="#DejaVuSans-Oblique-79" transform="translate(523.398438 -26.578125) scale(0.7)"/>
      <use xlink:href="#DejaVuSans-7c" transform="translate(567.558594 0.765625)"/>
     </g>
    </g>
   </g>
   <g id="PolyCollection_1"/>
   <g id="PolyCollection_2"/>
   <g id="line2d_11">
    <path d="M 47.156831 54.832735 
L 47.389192 35.601389 
L 47.621553 29.660665 
L 47.853914 27.915674 
L 48.202455 26.941115 
L 48.667177 26.434599 
L 49.248079 26.17034 
L 50.177522 26.022404 
L 51.687867 26.036772 
L 53.895295 26.303478 
L 56.451264 26.842766 
L 59.239594 27.664208 
L 62.144104 28.757378 
L 65.164795 30.137356 
L 68.301666 31.819616 
L 71.554718 33.817695 
L 75.04013 36.226313 
L 78.757903 39.076371 
L 82.708037 42.389953 
L 87.122893 46.395035 
L 92.118651 51.24093 
L 98.276213 57.54473 
L 110.939878 70.94128 
L 118.026883 78.224952 
L 123.371182 83.405856 
L 127.902218 87.498348 
L 131.968532 90.883029 
L 135.802486 93.786722 
L 139.404079 96.232143 
L 142.773311 98.251842 
L 146.026362 99.941066 
L 149.163234 101.316721 
L 152.183924 102.400564 
L 155.204615 103.249023 
L 158.457667 103.924605 
L 161.943079 104.644624 
L 162.407801 104.714062 
L 162.523981 104.611669 
L 162.640161 104.231507 
L 162.756342 102.65893 
L 162.988703 82.71815 
L 163.104883 68.476653 
L 163.104883 68.476653 
" clip-path="url(#p64d6dba14b)" style="fill: none; stroke: #ff7c00; stroke-linecap: round"/>
   </g>
   <g id="line2d_12">
    <path d="M 47.156831 64.730346 
L 163.104883 64.730377 
L 163.104883 64.730377 
" clip-path="url(#p64d6dba14b)" style="fill: none; stroke: #023eff; stroke-linecap: round"/>
   </g>
   <g id="patch_3">
    <path d="M 41.359429 116.301999 
L 41.359429 13.157812 
" style="fill: none; stroke: #262626; stroke-width: 0.5; stroke-linejoin: miter; stroke-linecap: square"/>
   </g>
   <g id="patch_4">
    <path d="M 168.902286 116.301999 
L 168.902286 13.157812 
" style="fill: none; stroke: #262626; stroke-width: 0.5; stroke-linejoin: miter; stroke-linecap: square"/>
   </g>
   <g id="patch_5">
    <path d="M 41.359429 116.301999 
L 168.902286 116.301999 
" style="fill: none; stroke: #262626; stroke-width: 0.5; stroke-linejoin: miter; stroke-linecap: square"/>
   </g>
   <g id="patch_6">
    <path d="M 41.359429 13.157812 
L 168.902286 13.157812 
" style="fill: none; stroke: #262626; stroke-width: 0.5; stroke-linejoin: miter; stroke-linecap: square"/>
   </g>
   <g id="text_7">
    <!-- Unnormalized Error -->
    <g style="fill: #262626" transform="translate(61.786326 7.157812) scale(0.1 -0.1)">
     <defs>
      <path id="ArialMT-55" d="M 3500 4581 
L 4106 4581 
L 4106 1934 
Q 4106 1244 3950 837 
Q 3794 431 3386 176 
Q 2978 -78 2316 -78 
Q 1672 -78 1262 144 
Q 853 366 678 786 
Q 503 1206 503 1934 
L 503 4581 
L 1109 4581 
L 1109 1938 
Q 1109 1341 1220 1058 
Q 1331 775 1601 622 
Q 1872 469 2263 469 
Q 2931 469 3215 772 
Q 3500 1075 3500 1938 
L 3500 4581 
z
" transform="scale(0.015625)"/>
      <path id="ArialMT-6e" d="M 422 0 
L 422 3319 
L 928 3319 
L 928 2847 
Q 1294 3394 1984 3394 
Q 2284 3394 2536 3286 
Q 2788 3178 2913 3003 
Q 3038 2828 3088 2588 
Q 3119 2431 3119 2041 
L 3119 0 
L 2556 0 
L 2556 2019 
Q 2556 2363 2490 2533 
Q 2425 2703 2258 2804 
Q 2091 2906 1866 2906 
Q 1506 2906 1245 2678 
Q 984 2450 984 1813 
L 984 0 
L 422 0 
z
" transform="scale(0.015625)"/>
      <path id="ArialMT-6f" d="M 213 1659 
Q 213 2581 725 3025 
Q 1153 3394 1769 3394 
Q 2453 3394 2887 2945 
Q 3322 2497 3322 1706 
Q 3322 1066 3130 698 
Q 2938 331 2570 128 
Q 2203 -75 1769 -75 
Q 1072 -75 642 372 
Q 213 819 213 1659 
z
M 791 1659 
Q 791 1022 1069 705 
Q 1347 388 1769 388 
Q 2188 388 2466 706 
Q 2744 1025 2744 1678 
Q 2744 2294 2464 2611 
Q 2184 2928 1769 2928 
Q 1347 2928 1069 2612 
Q 791 2297 791 1659 
z
" transform="scale(0.015625)"/>
      <path id="ArialMT-72" d="M 416 0 
L 416 3319 
L 922 3319 
L 922 2816 
Q 1116 3169 1280 3281 
Q 1444 3394 1641 3394 
Q 1925 3394 2219 3213 
L 2025 2691 
Q 1819 2813 1613 2813 
Q 1428 2813 1281 2702 
Q 1134 2591 1072 2394 
Q 978 2094 978 1738 
L 978 0 
L 416 0 
z
" transform="scale(0.015625)"/>
      <path id="ArialMT-6d" d="M 422 0 
L 422 3319 
L 925 3319 
L 925 2853 
Q 1081 3097 1340 3245 
Q 1600 3394 1931 3394 
Q 2300 3394 2536 3241 
Q 2772 3088 2869 2813 
Q 3263 3394 3894 3394 
Q 4388 3394 4653 3120 
Q 4919 2847 4919 2278 
L 4919 0 
L 4359 0 
L 4359 2091 
Q 4359 2428 4304 2576 
Q 4250 2725 4106 2815 
Q 3963 2906 3769 2906 
Q 3419 2906 3187 2673 
Q 2956 2441 2956 1928 
L 2956 0 
L 2394 0 
L 2394 2156 
Q 2394 2531 2256 2718 
Q 2119 2906 1806 2906 
Q 1569 2906 1367 2781 
Q 1166 2656 1075 2415 
Q 984 2175 984 1722 
L 984 0 
L 422 0 
z
" transform="scale(0.015625)"/>
      <path id="ArialMT-61" d="M 2588 409 
Q 2275 144 1986 34 
Q 1697 -75 1366 -75 
Q 819 -75 525 192 
Q 231 459 231 875 
Q 231 1119 342 1320 
Q 453 1522 633 1644 
Q 813 1766 1038 1828 
Q 1203 1872 1538 1913 
Q 2219 1994 2541 2106 
Q 2544 2222 2544 2253 
Q 2544 2597 2384 2738 
Q 2169 2928 1744 2928 
Q 1347 2928 1158 2789 
Q 969 2650 878 2297 
L 328 2372 
Q 403 2725 575 2942 
Q 747 3159 1072 3276 
Q 1397 3394 1825 3394 
Q 2250 3394 2515 3294 
Q 2781 3194 2906 3042 
Q 3031 2891 3081 2659 
Q 3109 2516 3109 2141 
L 3109 1391 
Q 3109 606 3145 398 
Q 3181 191 3288 0 
L 2700 0 
Q 2613 175 2588 409 
z
M 2541 1666 
Q 2234 1541 1622 1453 
Q 1275 1403 1131 1340 
Q 988 1278 909 1158 
Q 831 1038 831 891 
Q 831 666 1001 516 
Q 1172 366 1500 366 
Q 1825 366 2078 508 
Q 2331 650 2450 897 
Q 2541 1088 2541 1459 
L 2541 1666 
z
" transform="scale(0.015625)"/>
      <path id="ArialMT-6c" d="M 409 0 
L 409 4581 
L 972 4581 
L 972 0 
L 409 0 
z
" transform="scale(0.015625)"/>
      <path id="ArialMT-69" d="M 425 3934 
L 425 4581 
L 988 4581 
L 988 3934 
L 425 3934 
z
M 425 0 
L 425 3319 
L 988 3319 
L 988 0 
L 425 0 
z
" transform="scale(0.015625)"/>
      <path id="ArialMT-7a" d="M 125 0 
L 125 456 
L 2238 2881 
Q 1878 2863 1603 2863 
L 250 2863 
L 250 3319 
L 2963 3319 
L 2963 2947 
L 1166 841 
L 819 456 
Q 1197 484 1528 484 
L 3063 484 
L 3063 0 
L 125 0 
z
" transform="scale(0.015625)"/>
      <path id="ArialMT-65" d="M 2694 1069 
L 3275 997 
Q 3138 488 2766 206 
Q 2394 -75 1816 -75 
Q 1088 -75 661 373 
Q 234 822 234 1631 
Q 234 2469 665 2931 
Q 1097 3394 1784 3394 
Q 2450 3394 2872 2941 
Q 3294 2488 3294 1666 
Q 3294 1616 3291 1516 
L 816 1516 
Q 847 969 1125 678 
Q 1403 388 1819 388 
Q 2128 388 2347 550 
Q 2566 713 2694 1069 
z
M 847 1978 
L 2700 1978 
Q 2663 2397 2488 2606 
Q 2219 2931 1791 2931 
Q 1403 2931 1139 2672 
Q 875 2413 847 1978 
z
" transform="scale(0.015625)"/>
      <path id="ArialMT-64" d="M 2575 0 
L 2575 419 
Q 2259 -75 1647 -75 
Q 1250 -75 917 144 
Q 584 363 401 755 
Q 219 1147 219 1656 
Q 219 2153 384 2558 
Q 550 2963 881 3178 
Q 1213 3394 1622 3394 
Q 1922 3394 2156 3267 
Q 2391 3141 2538 2938 
L 2538 4581 
L 3097 4581 
L 3097 0 
L 2575 0 
z
M 797 1656 
Q 797 1019 1065 703 
Q 1334 388 1700 388 
Q 2069 388 2326 689 
Q 2584 991 2584 1609 
Q 2584 2291 2321 2609 
Q 2059 2928 1675 2928 
Q 1300 2928 1048 2622 
Q 797 2316 797 1656 
z
" transform="scale(0.015625)"/>
      <path id="ArialMT-20" transform="scale(0.015625)"/>
      <path id="ArialMT-45" d="M 506 0 
L 506 4581 
L 3819 4581 
L 3819 4041 
L 1113 4041 
L 1113 2638 
L 3647 2638 
L 3647 2100 
L 1113 2100 
L 1113 541 
L 3925 541 
L 3925 0 
L 506 0 
z
" transform="scale(0.015625)"/>
     </defs>
     <use xlink:href="#ArialMT-55"/>
     <use xlink:href="#ArialMT-6e" x="72.216797"/>
     <use xlink:href="#ArialMT-6e" x="127.832031"/>
     <use xlink:href="#ArialMT-6f" x="183.447266"/>
     <use xlink:href="#ArialMT-72" x="239.0625"/>
     <use xlink:href="#ArialMT-6d" x="272.363281"/>
     <use xlink:href="#ArialMT-61" x="355.664062"/>
     <use xlink:href="#ArialMT-6c" x="411.279297"/>
     <use xlink:href="#ArialMT-69" x="433.496094"/>
     <use xlink:href="#ArialMT-7a" x="455.712891"/>
     <use xlink:href="#ArialMT-65" x="505.712891"/>
     <use xlink:href="#ArialMT-64" x="561.328125"/>
     <use xlink:href="#ArialMT-20" x="616.943359"/>
     <use xlink:href="#ArialMT-45" x="644.726562"/>
     <use xlink:href="#ArialMT-72" x="711.425781"/>
     <use xlink:href="#ArialMT-72" x="744.726562"/>
     <use xlink:href="#ArialMT-6f" x="778.027344"/>
     <use xlink:href="#ArialMT-72" x="833.642578"/>
    </g>
   </g>
  </g>
  <g id="axes_2">
   <g id="patch_7">
    <path d="M 200.788 116.301999 
L 328.330857 116.301999 
L 328.330857 13.157812 
L 200.788 13.157812 
L 200.788 116.301999 
z
" style="fill: none"/>
   </g>
   <g id="matplotlib.axis_3">
    <g id="xtick_6">
     <g id="line2d_13">
      <g>
       <use xlink:href="#mbd38af8ad4" x="206.585403" y="116.301999" style="fill: #262626; stroke: #262626; stroke-width: 0.5"/>
      </g>
     </g>
    </g>
    <g id="xtick_7">
     <g id="line2d_14">
      <g>
       <use xlink:href="#mbd38af8ad4" x="235.601461" y="116.301999" style="fill: #262626; stroke: #262626; stroke-width: 0.5"/>
      </g>
     </g>
    </g>
    <g id="xtick_8">
     <g id="line2d_15">
      <g>
       <use xlink:href="#mbd38af8ad4" x="264.617519" y="116.301999" style="fill: #262626; stroke: #262626; stroke-width: 0.5"/>
      </g>
     </g>
    </g>
    <g id="xtick_9">
     <g id="line2d_16">
      <g>
       <use xlink:href="#mbd38af8ad4" x="293.633577" y="116.301999" style="fill: #262626; stroke: #262626; stroke-width: 0.5"/>
      </g>
     </g>
    </g>
    <g id="xtick_10">
     <g id="line2d_17">
      <g>
       <use xlink:href="#mbd38af8ad4" x="322.649635" y="116.301999" style="fill: #262626; stroke: #262626; stroke-width: 0.5"/>
      </g>
     </g>
    </g>
   </g>
   <g id="matplotlib.axis_4">
    <g id="ytick_6">
     <g id="line2d_18">
      <g>
       <use xlink:href="#m6aaf95e470" x="200.788" y="116.301999" style="fill: #262626; stroke: #262626; stroke-width: 0.5"/>
      </g>
     </g>
     <g id="text_8">
      <!-- −1.0 -->
      <g style="fill: #262626" transform="translate(177.9955 119.165124) scale(0.08 -0.08)">
       <use xlink:href="#ArialMT-2212"/>
       <use xlink:href="#ArialMT-31" x="58.398438"/>
       <use xlink:href="#ArialMT-2e" x="114.013672"/>
       <use xlink:href="#ArialMT-30" x="141.796875"/>
      </g>
     </g>
    </g>
    <g id="ytick_7">
     <g id="line2d_19">
      <g>
       <use xlink:href="#m6aaf95e470" x="200.788" y="90.515952" style="fill: #262626; stroke: #262626; stroke-width: 0.5"/>
      </g>
     </g>
     <g id="text_9">
      <!-- −0.5 -->
      <g style="fill: #262626" transform="translate(177.9955 93.379077) scale(0.08 -0.08)">
       <defs>
        <path id="ArialMT-35" d="M 266 1200 
L 856 1250 
Q 922 819 1161 601 
Q 1400 384 1738 384 
Q 2144 384 2425 690 
Q 2706 997 2706 1503 
Q 2706 1984 2436 2262 
Q 2166 2541 1728 2541 
Q 1456 2541 1237 2417 
Q 1019 2294 894 2097 
L 366 2166 
L 809 4519 
L 3088 4519 
L 3088 3981 
L 1259 3981 
L 1013 2750 
Q 1425 3038 1878 3038 
Q 2478 3038 2890 2622 
Q 3303 2206 3303 1553 
Q 3303 931 2941 478 
Q 2500 -78 1738 -78 
Q 1113 -78 717 272 
Q 322 622 266 1200 
z
" transform="scale(0.015625)"/>
       </defs>
       <use xlink:href="#ArialMT-2212"/>
       <use xlink:href="#ArialMT-30" x="58.398438"/>
       <use xlink:href="#ArialMT-2e" x="114.013672"/>
       <use xlink:href="#ArialMT-35" x="141.796875"/>
      </g>
     </g>
    </g>
    <g id="ytick_8">
     <g id="line2d_20">
      <g>
       <use xlink:href="#m6aaf95e470" x="200.788" y="64.729906" style="fill: #262626; stroke: #262626; stroke-width: 0.5"/>
      </g>
     </g>
     <g id="text_10">
      <!-- 0.0 -->
      <g style="fill: #262626" transform="translate(182.668 67.593031) scale(0.08 -0.08)">
       <use xlink:href="#ArialMT-30"/>
       <use xlink:href="#ArialMT-2e" x="55.615234"/>
       <use xlink:href="#ArialMT-30" x="83.398438"/>
      </g>
     </g>
    </g>
    <g id="ytick_9">
     <g id="line2d_21">
      <g>
       <use xlink:href="#m6aaf95e470" x="200.788" y="38.943859" style="fill: #262626; stroke: #262626; stroke-width: 0.5"/>
      </g>
     </g>
     <g id="text_11">
      <!-- 0.5 -->
      <g style="fill: #262626" transform="translate(182.668 41.806984) scale(0.08 -0.08)">
       <use xlink:href="#ArialMT-30"/>
       <use xlink:href="#ArialMT-2e" x="55.615234"/>
       <use xlink:href="#ArialMT-35" x="83.398438"/>
      </g>
     </g>
    </g>
    <g id="ytick_10">
     <g id="line2d_22">
      <g>
       <use xlink:href="#m6aaf95e470" x="200.788" y="13.157812" style="fill: #262626; stroke: #262626; stroke-width: 0.5"/>
      </g>
     </g>
     <g id="text_12">
      <!-- 1.0 -->
      <g style="fill: #262626" transform="translate(182.668 16.020937) scale(0.08 -0.08)">
       <use xlink:href="#ArialMT-31"/>
       <use xlink:href="#ArialMT-2e" x="55.615234"/>
       <use xlink:href="#ArialMT-30" x="83.398438"/>
      </g>
     </g>
    </g>
    <g id="text_13">
     <!-- $(|M_{xy}^{S}| - |M_{xy}^{C}|)/|M_{xy}^{S}|$ -->
     <g style="fill: #262626" transform="translate(168.528571 112.379906) rotate(-90) scale(0.1 -0.1)">
      <defs>
       <path id="DejaVuSans-28" d="M 1984 4856 
Q 1566 4138 1362 3434 
Q 1159 2731 1159 2009 
Q 1159 1288 1364 580 
Q 1569 -128 1984 -844 
L 1484 -844 
Q 1016 -109 783 600 
Q 550 1309 550 2009 
Q 550 2706 781 3412 
Q 1013 4119 1484 4856 
L 1984 4856 
z
" transform="scale(0.015625)"/>
       <path id="DejaVuSans-29" d="M 513 4856 
L 1013 4856 
Q 1481 4119 1714 3412 
Q 1947 2706 1947 2009 
Q 1947 1309 1714 600 
Q 1481 -109 1013 -844 
L 513 -844 
Q 928 -128 1133 580 
Q 1338 1288 1338 2009 
Q 1338 2731 1133 3434 
Q 928 4138 513 4856 
z
" transform="scale(0.015625)"/>
       <path id="DejaVuSans-2f" d="M 1625 4666 
L 2156 4666 
L 531 -594 
L 0 -594 
L 1625 4666 
z
" transform="scale(0.015625)"/>
      </defs>
      <use xlink:href="#DejaVuSans-28" transform="translate(0 0.765625)"/>
      <use xlink:href="#DejaVuSans-7c" transform="translate(39.013672 0.765625)"/>
      <use xlink:href="#DejaVuSans-Oblique-4d" transform="translate(72.705078 0.765625)"/>
      <use xlink:href="#DejaVuSans-Oblique-53" transform="translate(166.001146 39.046875) scale(0.7)"/>
      <use xlink:href="#DejaVuSans-Oblique-78" transform="translate(158.984375 -26.578125) scale(0.7)"/>
      <use xlink:href="#DejaVuSans-Oblique-79" transform="translate(200.410156 -26.578125) scale(0.7)"/>
      <use xlink:href="#DejaVuSans-7c" transform="translate(244.570312 0.765625)"/>
      <use xlink:href="#DejaVuSans-2212" transform="translate(297.744141 0.765625)"/>
      <use xlink:href="#DejaVuSans-7c" transform="translate(401.015625 0.765625)"/>
      <use xlink:href="#DejaVuSans-Oblique-4d" transform="translate(434.707031 0.765625)"/>
      <use xlink:href="#DejaVuSans-Oblique-43" transform="translate(528.003099 39.046875) scale(0.7)"/>
      <use xlink:href="#DejaVuSans-Oblique-78" transform="translate(520.986328 -26.578125) scale(0.7)"/>
      <use xlink:href="#DejaVuSans-Oblique-79" transform="translate(562.412109 -26.578125) scale(0.7)"/>
      <use xlink:href="#DejaVuSans-7c" transform="translate(606.572266 0.765625)"/>
      <use xlink:href="#DejaVuSans-29" transform="translate(640.263672 0.765625)"/>
      <use xlink:href="#DejaVuSans-2f" transform="translate(679.277344 0.765625)"/>
      <use xlink:href="#DejaVuSans-7c" transform="translate(712.96875 0.765625)"/>
      <use xlink:href="#DejaVuSans-Oblique-4d" transform="translate(746.660156 0.765625)"/>
      <use xlink:href="#DejaVuSans-Oblique-53" transform="translate(839.956224 39.046875) scale(0.7)"/>
      <use xlink:href="#DejaVuSans-Oblique-78" transform="translate(832.939453 -26.578125) scale(0.7)"/>
      <use xlink:href="#DejaVuSans-Oblique-79" transform="translate(874.365234 -26.578125) scale(0.7)"/>
      <use xlink:href="#DejaVuSans-7c" transform="translate(918.525391 0.765625)"/>
     </g>
    </g>
   </g>
   <g id="PolyCollection_3"/>
   <g id="PolyCollection_4"/>
   <g id="line2d_23">
    <path d="M 206.585403 46.852789 
L 206.817763 30.93495 
L 206.933944 32.201358 
L 207.514846 43.855094 
L 207.979568 48.983694 
L 208.56047 52.730506 
L 209.141372 55.05073 
L 209.838454 56.881103 
L 210.535537 58.134311 
L 211.3488 59.17465 
L 212.278243 60.028022 
L 213.440047 60.791446 
L 214.834212 61.441021 
L 216.693099 62.044101 
L 219.132887 62.579487 
L 222.385939 63.051528 
L 227.033155 63.484267 
L 233.8878 63.881037 
L 244.808758 64.268677 
L 266.534496 64.773182 
L 290.119119 65.387366 
L 299.645913 65.844513 
L 305.338753 66.320609 
L 309.172707 66.853486 
L 311.728676 67.413287 
L 313.703743 68.068033 
L 315.097908 68.743711 
L 316.259712 69.544118 
L 317.189156 70.447061 
L 318.002418 71.559894 
L 318.699501 72.918635 
L 319.280403 74.537799 
L 319.861305 76.94425 
L 320.326027 79.914882 
L 320.790748 84.771915 
L 321.13929 91.060367 
L 321.487831 102.980496 
L 321.720192 119.238329 
L 321.952552 157.74931 
L 322.138375 258.976853 
M 322.311116 258.976853 
L 322.533455 74.026079 
L 322.533455 74.026079 
" clip-path="url(#p956a3bbcc6)" style="fill: none; stroke: #ff7c00; stroke-linecap: round"/>
   </g>
   <g id="line2d_24">
    <path d="M 206.585403 64.7307 
L 271.414073 64.729904 
L 322.533455 64.731075 
L 322.533455 64.731075 
" clip-path="url(#p956a3bbcc6)" style="fill: none; stroke: #023eff; stroke-linecap: round"/>
   </g>
   <g id="patch_8">
    <path d="M 200.788 116.301999 
L 200.788 13.157812 
" style="fill: none; stroke: #262626; stroke-width: 0.5; stroke-linejoin: miter; stroke-linecap: square"/>
   </g>
   <g id="patch_9">
    <path d="M 328.330857 116.301999 
L 328.330857 13.157812 
" style="fill: none; stroke: #262626; stroke-width: 0.5; stroke-linejoin: miter; stroke-linecap: square"/>
   </g>
   <g id="patch_10">
    <path d="M 200.788 116.301999 
L 328.330857 116.301999 
" style="fill: none; stroke: #262626; stroke-width: 0.5; stroke-linejoin: miter; stroke-linecap: square"/>
   </g>
   <g id="patch_11">
    <path d="M 200.788 13.157812 
L 328.330857 13.157812 
" style="fill: none; stroke: #262626; stroke-width: 0.5; stroke-linejoin: miter; stroke-linecap: square"/>
   </g>
   <g id="text_14">
    <!-- Normalized Error -->
    <g style="fill: #262626" transform="translate(226.775835 7.157812) scale(0.1 -0.1)">
     <defs>
      <path id="ArialMT-4e" d="M 488 0 
L 488 4581 
L 1109 4581 
L 3516 984 
L 3516 4581 
L 4097 4581 
L 4097 0 
L 3475 0 
L 1069 3600 
L 1069 0 
L 488 0 
z
" transform="scale(0.015625)"/>
     </defs>
     <use xlink:href="#ArialMT-4e"/>
     <use xlink:href="#ArialMT-6f" x="72.216797"/>
     <use xlink:href="#ArialMT-72" x="127.832031"/>
     <use xlink:href="#ArialMT-6d" x="161.132812"/>
     <use xlink:href="#ArialMT-61" x="244.433594"/>
     <use xlink:href="#ArialMT-6c" x="300.048828"/>
     <use xlink:href="#ArialMT-69" x="322.265625"/>
     <use xlink:href="#ArialMT-7a" x="344.482422"/>
     <use xlink:href="#ArialMT-65" x="394.482422"/>
     <use xlink:href="#ArialMT-64" x="450.097656"/>
     <use xlink:href="#ArialMT-20" x="505.712891"/>
     <use xlink:href="#ArialMT-45" x="533.496094"/>
     <use xlink:href="#ArialMT-72" x="600.195312"/>
     <use xlink:href="#ArialMT-72" x="633.496094"/>
     <use xlink:href="#ArialMT-6f" x="666.796875"/>
     <use xlink:href="#ArialMT-72" x="722.412109"/>
    </g>
   </g>
  </g>
  <g id="axes_3">
   <g id="patch_12">
    <path d="M 41.359429 229.760603 
L 168.902286 229.760603 
L 168.902286 126.616417 
L 41.359429 126.616417 
L 41.359429 229.760603 
z
" style="fill: none"/>
   </g>
   <g id="matplotlib.axis_5">
    <g id="xtick_11">
     <g id="line2d_25">
      <g>
       <use xlink:href="#mbd38af8ad4" x="47.156831" y="229.760603" style="fill: #262626; stroke: #262626; stroke-width: 0.5"/>
      </g>
     </g>
     <g id="text_15">
      <!-- 0 -->
      <g style="fill: #262626" transform="translate(44.932456 242.486853) scale(0.08 -0.08)">
       <use xlink:href="#ArialMT-30"/>
      </g>
     </g>
    </g>
    <g id="xtick_12">
     <g id="line2d_26">
      <g>
       <use xlink:href="#mbd38af8ad4" x="76.172889" y="229.760603" style="fill: #262626; stroke: #262626; stroke-width: 0.5"/>
      </g>
     </g>
     <g id="text_16">
      <!-- $\pi/4$ -->
      <g style="fill: #262626" transform="translate(69.852889 242.486853) scale(0.08 -0.08)">
       <defs>
        <path id="DejaVuSans-Oblique-3c0" d="M 584 3500 
L 3938 3500 
L 3825 2925 
L 3384 2925 
L 2966 775 
Q 2922 550 2981 450 
Q 3038 353 3209 353 
Q 3256 353 3325 363 
Q 3397 369 3419 372 
L 3338 -44 
Q 3222 -84 3103 -103 
Q 2981 -122 2866 -122 
Q 2491 -122 2388 81 
Q 2284 288 2391 838 
L 2797 2925 
L 1506 2925 
L 938 0 
L 350 0 
L 919 2925 
L 472 2925 
L 584 3500 
z
" transform="scale(0.015625)"/>
        <path id="DejaVuSans-34" d="M 2419 4116 
L 825 1625 
L 2419 1625 
L 2419 4116 
z
M 2253 4666 
L 3047 4666 
L 3047 1625 
L 3713 1625 
L 3713 1100 
L 3047 1100 
L 3047 0 
L 2419 0 
L 2419 1100 
L 313 1100 
L 313 1709 
L 2253 4666 
z
" transform="scale(0.015625)"/>
       </defs>
       <use xlink:href="#DejaVuSans-Oblique-3c0" transform="translate(0 0.09375)"/>
       <use xlink:href="#DejaVuSans-2f" transform="translate(60.205078 0.09375)"/>
       <use xlink:href="#DejaVuSans-34" transform="translate(93.896484 0.09375)"/>
      </g>
     </g>
    </g>
    <g id="xtick_13">
     <g id="line2d_27">
      <g>
       <use xlink:href="#mbd38af8ad4" x="105.188947" y="229.760603" style="fill: #262626; stroke: #262626; stroke-width: 0.5"/>
      </g>
     </g>
     <g id="text_17">
      <!-- $\pi/2$ -->
      <g style="fill: #262626" transform="translate(99.028947 242.486853) scale(0.08 -0.08)">
       <defs>
        <path id="DejaVuSans-32" d="M 1228 531 
L 3431 531 
L 3431 0 
L 469 0 
L 469 531 
Q 828 903 1448 1529 
Q 2069 2156 2228 2338 
Q 2531 2678 2651 2914 
Q 2772 3150 2772 3378 
Q 2772 3750 2511 3984 
Q 2250 4219 1831 4219 
Q 1534 4219 1204 4116 
Q 875 4013 500 3803 
L 500 4441 
Q 881 4594 1212 4672 
Q 1544 4750 1819 4750 
Q 2544 4750 2975 4387 
Q 3406 4025 3406 3419 
Q 3406 3131 3298 2873 
Q 3191 2616 2906 2266 
Q 2828 2175 2409 1742 
Q 1991 1309 1228 531 
z
" transform="scale(0.015625)"/>
       </defs>
       <use xlink:href="#DejaVuSans-Oblique-3c0" transform="translate(0 0.78125)"/>
       <use xlink:href="#DejaVuSans-2f" transform="translate(60.205078 0.78125)"/>
       <use xlink:href="#DejaVuSans-32" transform="translate(90.271484 0.78125)"/>
      </g>
     </g>
    </g>
    <g id="xtick_14">
     <g id="line2d_28">
      <g>
       <use xlink:href="#mbd38af8ad4" x="134.205005" y="229.760603" style="fill: #262626; stroke: #262626; stroke-width: 0.5"/>
      </g>
     </g>
     <g id="text_18">
      <!-- $3\pi/4$ -->
      <g style="fill: #262626" transform="translate(125.325005 242.486853) scale(0.08 -0.08)">
       <defs>
        <path id="DejaVuSans-33" d="M 2597 2516 
Q 3050 2419 3304 2112 
Q 3559 1806 3559 1356 
Q 3559 666 3084 287 
Q 2609 -91 1734 -91 
Q 1441 -91 1130 -33 
Q 819 25 488 141 
L 488 750 
Q 750 597 1062 519 
Q 1375 441 1716 441 
Q 2309 441 2620 675 
Q 2931 909 2931 1356 
Q 2931 1769 2642 2001 
Q 2353 2234 1838 2234 
L 1294 2234 
L 1294 2753 
L 1863 2753 
Q 2328 2753 2575 2939 
Q 2822 3125 2822 3475 
Q 2822 3834 2567 4026 
Q 2313 4219 1838 4219 
Q 1578 4219 1281 4162 
Q 984 4106 628 3988 
L 628 4550 
Q 988 4650 1302 4700 
Q 1616 4750 1894 4750 
Q 2613 4750 3031 4423 
Q 3450 4097 3450 3541 
Q 3450 3153 3228 2886 
Q 3006 2619 2597 2516 
z
" transform="scale(0.015625)"/>
       </defs>
       <use xlink:href="#DejaVuSans-33" transform="translate(0 0.78125)"/>
       <use xlink:href="#DejaVuSans-Oblique-3c0" transform="translate(63.623047 0.78125)"/>
       <use xlink:href="#DejaVuSans-2f" transform="translate(123.828125 0.78125)"/>
       <use xlink:href="#DejaVuSans-34" transform="translate(157.519531 0.78125)"/>
      </g>
     </g>
    </g>
    <g id="xtick_15">
     <g id="line2d_29">
      <g>
       <use xlink:href="#mbd38af8ad4" x="163.221064" y="229.760603" style="fill: #262626; stroke: #262626; stroke-width: 0.5"/>
      </g>
     </g>
     <g id="text_19">
      <!-- $\pi$ -->
      <g style="fill: #262626" transform="translate(160.781064 242.486853) scale(0.08 -0.08)">
       <use xlink:href="#DejaVuSans-Oblique-3c0" transform="translate(0 0.3125)"/>
      </g>
     </g>
    </g>
    <g id="text_20">
     <!-- $\theta$ (rad) -->
     <g style="fill: #262626" transform="translate(90.080857 255.776853) scale(0.1 -0.1)">
      <defs>
       <path id="DejaVuSans-Oblique-3b8" d="M 2913 2219 
L 925 2219 
Q 791 1284 928 888 
Q 1100 400 1566 400 
Q 2034 400 2391 891 
Q 2703 1322 2913 2219 
z
M 3009 2750 
Q 3094 3638 2984 3950 
Q 2813 4444 2353 4444 
Q 1875 4444 1525 3956 
Q 1250 3563 1034 2750 
L 3009 2750 
z
M 2444 4913 
Q 3194 4913 3494 4250 
Q 3794 3591 3566 2422 
Q 3341 1256 2781 594 
Q 2225 -72 1475 -72 
Q 722 -72 425 594 
Q 128 1256 353 2422 
Q 581 3591 1134 4250 
Q 1691 4913 2444 4913 
z
" transform="scale(0.015625)"/>
       <path id="ArialMT-28" d="M 1497 -1347 
Q 1031 -759 709 28 
Q 388 816 388 1659 
Q 388 2403 628 3084 
Q 909 3875 1497 4659 
L 1900 4659 
Q 1522 4009 1400 3731 
Q 1209 3300 1100 2831 
Q 966 2247 966 1656 
Q 966 153 1900 -1347 
L 1497 -1347 
z
" transform="scale(0.015625)"/>
       <path id="ArialMT-29" d="M 791 -1347 
L 388 -1347 
Q 1322 153 1322 1656 
Q 1322 2244 1188 2822 
Q 1081 3291 891 3722 
Q 769 4003 388 4659 
L 791 4659 
Q 1378 3875 1659 3084 
Q 1900 2403 1900 1659 
Q 1900 816 1576 28 
Q 1253 -759 791 -1347 
z
" transform="scale(0.015625)"/>
      </defs>
      <use xlink:href="#DejaVuSans-Oblique-3b8" transform="translate(0 0.234375)"/>
      <use xlink:href="#ArialMT-20" transform="translate(61.181641 0.234375)"/>
      <use xlink:href="#ArialMT-28" transform="translate(88.964844 0.234375)"/>
      <use xlink:href="#ArialMT-72" transform="translate(122.265625 0.234375)"/>
      <use xlink:href="#ArialMT-61" transform="translate(155.566406 0.234375)"/>
      <use xlink:href="#ArialMT-64" transform="translate(211.181641 0.234375)"/>
      <use xlink:href="#ArialMT-29" transform="translate(266.796875 0.234375)"/>
     </g>
    </g>
   </g>
   <g id="matplotlib.axis_6">
    <g id="ytick_11">
     <g id="line2d_30">
      <g>
       <use xlink:href="#m6aaf95e470" x="41.359429" y="229.760603" style="fill: #262626; stroke: #262626; stroke-width: 0.5"/>
      </g>
     </g>
     <g id="text_21">
      <!-- −0.02 -->
      <g style="fill: #262626" transform="translate(14.118179 232.623728) scale(0.08 -0.08)">
       <use xlink:href="#ArialMT-2212"/>
       <use xlink:href="#ArialMT-30" x="58.398438"/>
       <use xlink:href="#ArialMT-2e" x="114.013672"/>
       <use xlink:href="#ArialMT-30" x="141.796875"/>
       <use xlink:href="#ArialMT-32" x="197.412109"/>
      </g>
     </g>
    </g>
    <g id="ytick_12">
     <g id="line2d_31">
      <g>
       <use xlink:href="#m6aaf95e470" x="41.359429" y="203.974557" style="fill: #262626; stroke: #262626; stroke-width: 0.5"/>
      </g>
     </g>
     <g id="text_22">
      <!-- −0.01 -->
      <g style="fill: #262626" transform="translate(14.118179 206.837682) scale(0.08 -0.08)">
       <use xlink:href="#ArialMT-2212"/>
       <use xlink:href="#ArialMT-30" x="58.398438"/>
       <use xlink:href="#ArialMT-2e" x="114.013672"/>
       <use xlink:href="#ArialMT-30" x="141.796875"/>
       <use xlink:href="#ArialMT-31" x="197.412109"/>
      </g>
     </g>
    </g>
    <g id="ytick_13">
     <g id="line2d_32">
      <g>
       <use xlink:href="#m6aaf95e470" x="41.359429" y="178.18851" style="fill: #262626; stroke: #262626; stroke-width: 0.5"/>
      </g>
     </g>
     <g id="text_23">
      <!-- 0.00 -->
      <g style="fill: #262626" transform="translate(18.790679 181.051635) scale(0.08 -0.08)">
       <use xlink:href="#ArialMT-30"/>
       <use xlink:href="#ArialMT-2e" x="55.615234"/>
       <use xlink:href="#ArialMT-30" x="83.398438"/>
       <use xlink:href="#ArialMT-30" x="139.013672"/>
      </g>
     </g>
    </g>
    <g id="ytick_14">
     <g id="line2d_33">
      <g>
       <use xlink:href="#m6aaf95e470" x="41.359429" y="152.402464" style="fill: #262626; stroke: #262626; stroke-width: 0.5"/>
      </g>
     </g>
     <g id="text_24">
      <!-- 0.01 -->
      <g style="fill: #262626" transform="translate(18.790679 155.265589) scale(0.08 -0.08)">
       <use xlink:href="#ArialMT-30"/>
       <use xlink:href="#ArialMT-2e" x="55.615234"/>
       <use xlink:href="#ArialMT-30" x="83.398438"/>
       <use xlink:href="#ArialMT-31" x="139.013672"/>
      </g>
     </g>
    </g>
    <g id="ytick_15">
     <g id="line2d_34">
      <g>
       <use xlink:href="#m6aaf95e470" x="41.359429" y="126.616417" style="fill: #262626; stroke: #262626; stroke-width: 0.5"/>
      </g>
     </g>
     <g id="text_25">
      <!-- 0.02 -->
      <g style="fill: #262626" transform="translate(18.790679 129.479542) scale(0.08 -0.08)">
       <use xlink:href="#ArialMT-30"/>
       <use xlink:href="#ArialMT-2e" x="55.615234"/>
       <use xlink:href="#ArialMT-30" x="83.398438"/>
       <use xlink:href="#ArialMT-32" x="139.013672"/>
      </g>
     </g>
    </g>
    <g id="text_26">
     <!-- $|M_{z}^{S}| - |M_{z}^{C}|$ -->
     <g style="fill: #262626" transform="translate(10.5 205.33851) rotate(-90) scale(0.1 -0.1)">
      <defs>
       <path id="DejaVuSans-Oblique-7a" d="M 744 3500 
L 3475 3500 
L 3372 2975 
L 738 459 
L 2913 459 
L 2822 0 
L -19 0 
L 84 525 
L 2719 3041 
L 653 3041 
L 744 3500 
z
" transform="scale(0.015625)"/>
      </defs>
      <use xlink:href="#DejaVuSans-7c" transform="translate(0 0.765625)"/>
      <use xlink:href="#DejaVuSans-Oblique-4d" transform="translate(33.691406 0.765625)"/>
      <use xlink:href="#DejaVuSans-Oblique-53" transform="translate(126.987474 39.046875) scale(0.7)"/>
      <use xlink:href="#DejaVuSans-Oblique-7a" transform="translate(119.970703 -26.578125) scale(0.7)"/>
      <use xlink:href="#DejaVuSans-7c" transform="translate(174.155443 0.765625)"/>
      <use xlink:href="#DejaVuSans-2212" transform="translate(227.329271 0.765625)"/>
      <use xlink:href="#DejaVuSans-7c" transform="translate(330.600755 0.765625)"/>
      <use xlink:href="#DejaVuSans-Oblique-4d" transform="translate(364.292161 0.765625)"/>
      <use xlink:href="#DejaVuSans-Oblique-43" transform="translate(457.588229 39.046875) scale(0.7)"/>
      <use xlink:href="#DejaVuSans-Oblique-7a" transform="translate(450.571458 -26.578125) scale(0.7)"/>
      <use xlink:href="#DejaVuSans-7c" transform="translate(509.199557 0.765625)"/>
     </g>
    </g>
   </g>
   <g id="PolyCollection_5"/>
   <g id="PolyCollection_6"/>
   <g id="line2d_35">
    <path d="M 47.156831 178.279106 
L 57.845429 189.481424 
L 63.538269 195.121713 
L 68.301666 199.538118 
L 72.484161 203.126031 
L 76.318115 206.135528 
L 79.919708 208.689264 
L 83.28894 210.816462 
L 86.541991 212.613172 
L 89.678862 214.09324 
L 92.699553 215.274101 
L 95.604063 216.175949 
L 98.508574 216.843123 
L 101.296904 217.258989 
L 104.085233 217.452404 
L 104.782316 217.465843 
L 105.363218 138.91066 
L 105.479398 138.911721 
L 108.267728 139.053649 
L 111.056058 139.418394 
L 113.844388 140.00388 
L 116.748898 140.844881 
L 119.653409 141.91658 
L 122.674099 143.268737 
L 125.810971 144.919711 
L 129.064022 146.884844 
L 132.549435 149.259057 
L 136.151027 151.982446 
L 140.101161 155.254506 
L 144.399837 159.111571 
L 149.279414 163.799492 
L 155.204615 169.82074 
L 163.104883 178.155585 
L 163.104883 178.155585 
" clip-path="url(#p23c373e671)" style="fill: none; stroke: #ff7c00; stroke-linecap: round"/>
   </g>
   <g id="line2d_36">
    <path d="M 47.156831 178.188505 
L 163.104883 178.188506 
L 163.104883 178.188506 
" clip-path="url(#p23c373e671)" style="fill: none; stroke: #023eff; stroke-linecap: round"/>
   </g>
   <g id="patch_13">
    <path d="M 41.359429 229.760603 
L 41.359429 126.616417 
" style="fill: none; stroke: #262626; stroke-width: 0.5; stroke-linejoin: miter; stroke-linecap: square"/>
   </g>
   <g id="patch_14">
    <path d="M 168.902286 229.760603 
L 168.902286 126.616417 
" style="fill: none; stroke: #262626; stroke-width: 0.5; stroke-linejoin: miter; stroke-linecap: square"/>
   </g>
   <g id="patch_15">
    <path d="M 41.359429 229.760603 
L 168.902286 229.760603 
" style="fill: none; stroke: #262626; stroke-width: 0.5; stroke-linejoin: miter; stroke-linecap: square"/>
   </g>
   <g id="patch_16">
    <path d="M 41.359429 126.616417 
L 168.902286 126.616417 
" style="fill: none; stroke: #262626; stroke-width: 0.5; stroke-linejoin: miter; stroke-linecap: square"/>
   </g>
  </g>
  <g id="axes_4">
   <g id="patch_17">
    <path d="M 200.788 229.760603 
L 328.330857 229.760603 
L 328.330857 126.616417 
L 200.788 126.616417 
L 200.788 229.760603 
z
" style="fill: none"/>
   </g>
   <g id="matplotlib.axis_7">
    <g id="xtick_16">
     <g id="line2d_37">
      <g>
       <use xlink:href="#mbd38af8ad4" x="206.585403" y="229.760603" style="fill: #262626; stroke: #262626; stroke-width: 0.5"/>
      </g>
     </g>
     <g id="text_27">
      <!-- 0 -->
      <g style="fill: #262626" transform="translate(204.361028 242.486853) scale(0.08 -0.08)">
       <use xlink:href="#ArialMT-30"/>
      </g>
     </g>
    </g>
    <g id="xtick_17">
     <g id="line2d_38">
      <g>
       <use xlink:href="#mbd38af8ad4" x="235.601461" y="229.760603" style="fill: #262626; stroke: #262626; stroke-width: 0.5"/>
      </g>
     </g>
     <g id="text_28">
      <!-- $\pi/4$ -->
      <g style="fill: #262626" transform="translate(229.281461 242.486853) scale(0.08 -0.08)">
       <use xlink:href="#DejaVuSans-Oblique-3c0" transform="translate(0 0.09375)"/>
       <use xlink:href="#DejaVuSans-2f" transform="translate(60.205078 0.09375)"/>
       <use xlink:href="#DejaVuSans-34" transform="translate(93.896484 0.09375)"/>
      </g>
     </g>
    </g>
    <g id="xtick_18">
     <g id="line2d_39">
      <g>
       <use xlink:href="#mbd38af8ad4" x="264.617519" y="229.760603" style="fill: #262626; stroke: #262626; stroke-width: 0.5"/>
      </g>
     </g>
     <g id="text_29">
      <!-- $\pi/2$ -->
      <g style="fill: #262626" transform="translate(258.457519 242.486853) scale(0.08 -0.08)">
       <use xlink:href="#DejaVuSans-Oblique-3c0" transform="translate(0 0.78125)"/>
       <use xlink:href="#DejaVuSans-2f" transform="translate(60.205078 0.78125)"/>
       <use xlink:href="#DejaVuSans-32" transform="translate(90.271484 0.78125)"/>
      </g>
     </g>
    </g>
    <g id="xtick_19">
     <g id="line2d_40">
      <g>
       <use xlink:href="#mbd38af8ad4" x="293.633577" y="229.760603" style="fill: #262626; stroke: #262626; stroke-width: 0.5"/>
      </g>
     </g>
     <g id="text_30">
      <!-- $3\pi/4$ -->
      <g style="fill: #262626" transform="translate(284.753577 242.486853) scale(0.08 -0.08)">
       <use xlink:href="#DejaVuSans-33" transform="translate(0 0.78125)"/>
       <use xlink:href="#DejaVuSans-Oblique-3c0" transform="translate(63.623047 0.78125)"/>
       <use xlink:href="#DejaVuSans-2f" transform="translate(123.828125 0.78125)"/>
       <use xlink:href="#DejaVuSans-34" transform="translate(157.519531 0.78125)"/>
      </g>
     </g>
    </g>
    <g id="xtick_20">
     <g id="line2d_41">
      <g>
       <use xlink:href="#mbd38af8ad4" x="322.649635" y="229.760603" style="fill: #262626; stroke: #262626; stroke-width: 0.5"/>
      </g>
     </g>
     <g id="text_31">
      <!-- $\pi$ -->
      <g style="fill: #262626" transform="translate(320.209635 242.486853) scale(0.08 -0.08)">
       <use xlink:href="#DejaVuSans-Oblique-3c0" transform="translate(0 0.3125)"/>
      </g>
     </g>
    </g>
    <g id="text_32">
     <!-- $\theta$ (rad) -->
     <g style="fill: #262626" transform="translate(249.509429 255.776853) scale(0.1 -0.1)">
      <use xlink:href="#DejaVuSans-Oblique-3b8" transform="translate(0 0.234375)"/>
      <use xlink:href="#ArialMT-20" transform="translate(61.181641 0.234375)"/>
      <use xlink:href="#ArialMT-28" transform="translate(88.964844 0.234375)"/>
      <use xlink:href="#ArialMT-72" transform="translate(122.265625 0.234375)"/>
      <use xlink:href="#ArialMT-61" transform="translate(155.566406 0.234375)"/>
      <use xlink:href="#ArialMT-64" transform="translate(211.181641 0.234375)"/>
      <use xlink:href="#ArialMT-29" transform="translate(266.796875 0.234375)"/>
     </g>
    </g>
   </g>
   <g id="matplotlib.axis_8">
    <g id="ytick_16">
     <g id="line2d_42">
      <g>
       <use xlink:href="#m6aaf95e470" x="200.788" y="229.760603" style="fill: #262626; stroke: #262626; stroke-width: 0.5"/>
      </g>
     </g>
     <g id="text_33">
      <!-- −1.0 -->
      <g style="fill: #262626" transform="translate(177.9955 232.623728) scale(0.08 -0.08)">
       <use xlink:href="#ArialMT-2212"/>
       <use xlink:href="#ArialMT-31" x="58.398438"/>
       <use xlink:href="#ArialMT-2e" x="114.013672"/>
       <use xlink:href="#ArialMT-30" x="141.796875"/>
      </g>
     </g>
    </g>
    <g id="ytick_17">
     <g id="line2d_43">
      <g>
       <use xlink:href="#m6aaf95e470" x="200.788" y="203.974557" style="fill: #262626; stroke: #262626; stroke-width: 0.5"/>
      </g>
     </g>
     <g id="text_34">
      <!-- −0.5 -->
      <g style="fill: #262626" transform="translate(177.9955 206.837682) scale(0.08 -0.08)">
       <use xlink:href="#ArialMT-2212"/>
       <use xlink:href="#ArialMT-30" x="58.398438"/>
       <use xlink:href="#ArialMT-2e" x="114.013672"/>
       <use xlink:href="#ArialMT-35" x="141.796875"/>
      </g>
     </g>
    </g>
    <g id="ytick_18">
     <g id="line2d_44">
      <g>
       <use xlink:href="#m6aaf95e470" x="200.788" y="178.18851" style="fill: #262626; stroke: #262626; stroke-width: 0.5"/>
      </g>
     </g>
     <g id="text_35">
      <!-- 0.0 -->
      <g style="fill: #262626" transform="translate(182.668 181.051635) scale(0.08 -0.08)">
       <use xlink:href="#ArialMT-30"/>
       <use xlink:href="#ArialMT-2e" x="55.615234"/>
       <use xlink:href="#ArialMT-30" x="83.398438"/>
      </g>
     </g>
    </g>
    <g id="ytick_19">
     <g id="line2d_45">
      <g>
       <use xlink:href="#m6aaf95e470" x="200.788" y="152.402464" style="fill: #262626; stroke: #262626; stroke-width: 0.5"/>
      </g>
     </g>
     <g id="text_36">
      <!-- 0.5 -->
      <g style="fill: #262626" transform="translate(182.668 155.265589) scale(0.08 -0.08)">
       <use xlink:href="#ArialMT-30"/>
       <use xlink:href="#ArialMT-2e" x="55.615234"/>
       <use xlink:href="#ArialMT-35" x="83.398438"/>
      </g>
     </g>
    </g>
    <g id="ytick_20">
     <g id="line2d_46">
      <g>
       <use xlink:href="#m6aaf95e470" x="200.788" y="126.616417" style="fill: #262626; stroke: #262626; stroke-width: 0.5"/>
      </g>
     </g>
     <g id="text_37">
      <!-- 1.0 -->
      <g style="fill: #262626" transform="translate(182.668 129.479542) scale(0.08 -0.08)">
       <use xlink:href="#ArialMT-31"/>
       <use xlink:href="#ArialMT-2e" x="55.615234"/>
       <use xlink:href="#ArialMT-30" x="83.398438"/>
      </g>
     </g>
    </g>
    <g id="text_38">
     <!-- $(|M_{z}^{S}| - |M_{z}^{C}|)/|M_{z}^{S}|$ -->
     <g style="fill: #262626" transform="translate(169.928571 221.33851) rotate(-90) scale(0.1 -0.1)">
      <use xlink:href="#DejaVuSans-28" transform="translate(0 0.765625)"/>
      <use xlink:href="#DejaVuSans-7c" transform="translate(39.013672 0.765625)"/>
      <use xlink:href="#DejaVuSans-Oblique-4d" transform="translate(72.705078 0.765625)"/>
      <use xlink:href="#DejaVuSans-Oblique-53" transform="translate(166.001146 39.046875) scale(0.7)"/>
      <use xlink:href="#DejaVuSans-Oblique-7a" transform="translate(158.984375 -26.578125) scale(0.7)"/>
      <use xlink:href="#DejaVuSans-7c" transform="translate(213.169115 0.765625)"/>
      <use xlink:href="#DejaVuSans-2212" transform="translate(266.342943 0.765625)"/>
      <use xlink:href="#DejaVuSans-7c" transform="translate(369.614427 0.765625)"/>
      <use xlink:href="#DejaVuSans-Oblique-4d" transform="translate(403.305833 0.765625)"/>
      <use xlink:href="#DejaVuSans-Oblique-43" transform="translate(496.601901 39.046875) scale(0.7)"/>
      <use xlink:href="#DejaVuSans-Oblique-7a" transform="translate(489.58513 -26.578125) scale(0.7)"/>
      <use xlink:href="#DejaVuSans-7c" transform="translate(548.213229 0.765625)"/>
      <use xlink:href="#DejaVuSans-29" transform="translate(581.904635 0.765625)"/>
      <use xlink:href="#DejaVuSans-2f" transform="translate(620.918307 0.765625)"/>
      <use xlink:href="#DejaVuSans-7c" transform="translate(654.609714 0.765625)"/>
      <use xlink:href="#DejaVuSans-Oblique-4d" transform="translate(688.30112 0.765625)"/>
      <use xlink:href="#DejaVuSans-Oblique-53" transform="translate(781.597188 39.046875) scale(0.7)"/>
      <use xlink:href="#DejaVuSans-Oblique-7a" transform="translate(774.580417 -26.578125) scale(0.7)"/>
      <use xlink:href="#DejaVuSans-7c" transform="translate(828.765156 0.765625)"/>
     </g>
    </g>
   </g>
   <g id="PolyCollection_7"/>
   <g id="PolyCollection_8"/>
   <g id="line2d_47">
    <path d="M 206.585403 178.190322 
L 231.912733 178.83858 
L 241.555707 179.297515 
L 247.364727 179.782449 
L 251.082501 180.296891 
L 253.75465 180.880184 
L 255.613537 181.492379 
L 257.123882 182.220727 
L 258.285686 183.029472 
L 259.21513 183.943978 
L 260.028392 185.074372 
L 260.725475 186.459789 
L 261.306377 188.118725 
L 261.771099 190.010911 
L 262.23582 192.787484 
L 262.700542 197.25941 
L 263.049083 202.93927 
L 263.397624 213.426073 
L 263.629985 227.287988 
L 263.861551 258.976853 
M 264.399848 258.976853 
L 264.559429 160.786458 
L 264.791789 127.34683 
L 265.140331 146.622318 
L 265.488872 155.301944 
L 265.953594 161.44435 
L 266.418315 164.990048 
L 266.999217 167.755666 
L 267.580119 169.566197 
L 268.277202 171.055876 
L 269.090465 172.256582 
L 270.019908 173.218427 
L 271.065532 173.990421 
L 272.343516 174.666678 
L 273.970042 175.274452 
L 276.061289 175.815305 
L 278.9658 176.319264 
L 282.915934 176.764334 
L 288.724954 177.176517 
L 297.670846 177.565414 
L 313.006661 177.981072 
L 322.533455 178.187852 
L 322.533455 178.187852 
" clip-path="url(#p992015bd86)" style="fill: none; stroke: #ff7c00; stroke-linecap: round"/>
   </g>
   <g id="line2d_48">
    <path d="M 206.585403 178.18851 
L 322.533455 178.18851 
L 322.533455 178.18851 
" clip-path="url(#p992015bd86)" style="fill: none; stroke: #023eff; stroke-linecap: round"/>
   </g>
   <g id="patch_18">
    <path d="M 200.788 229.760603 
L 200.788 126.616417 
" style="fill: none; stroke: #262626; stroke-width: 0.5; stroke-linejoin: miter; stroke-linecap: square"/>
   </g>
   <g id="patch_19">
    <path d="M 328.330857 229.760603 
L 328.330857 126.616417 
" style="fill: none; stroke: #262626; stroke-width: 0.5; stroke-linejoin: miter; stroke-linecap: square"/>
   </g>
   <g id="patch_20">
    <path d="M 200.788 229.760603 
L 328.330857 229.760603 
" style="fill: none; stroke: #262626; stroke-width: 0.5; stroke-linejoin: miter; stroke-linecap: square"/>
   </g>
   <g id="patch_21">
    <path d="M 200.788 126.616417 
L 328.330857 126.616417 
" style="fill: none; stroke: #262626; stroke-width: 0.5; stroke-linejoin: miter; stroke-linecap: square"/>
   </g>
  </g>
  <g id="axes_5">
   <g id="patch_22">
    <path d="M 360.216571 116.301999 
L 487.759429 116.301999 
L 487.759429 13.157812 
L 360.216571 13.157812 
L 360.216571 116.301999 
z
" style="fill: none"/>
   </g>
   <g id="matplotlib.axis_9">
    <g id="xtick_21">
     <g id="line2d_49">
      <g>
       <use xlink:href="#mbd38af8ad4" x="366.013974" y="116.301999" style="fill: #262626; stroke: #262626; stroke-width: 0.5"/>
      </g>
     </g>
     <g id="text_39">
      <!-- 0 -->
      <g style="fill: #262626" transform="translate(363.789599 129.028249) scale(0.08 -0.08)">
       <use xlink:href="#ArialMT-30"/>
      </g>
     </g>
    </g>
    <g id="xtick_22">
     <g id="line2d_50">
      <g>
       <use xlink:href="#mbd38af8ad4" x="395.030032" y="116.301999" style="fill: #262626; stroke: #262626; stroke-width: 0.5"/>
      </g>
     </g>
     <g id="text_40">
      <!-- $\pi/4$ -->
      <g style="fill: #262626" transform="translate(388.710032 129.028249) scale(0.08 -0.08)">
       <use xlink:href="#DejaVuSans-Oblique-3c0" transform="translate(0 0.09375)"/>
       <use xlink:href="#DejaVuSans-2f" transform="translate(60.205078 0.09375)"/>
       <use xlink:href="#DejaVuSans-34" transform="translate(93.896484 0.09375)"/>
      </g>
     </g>
    </g>
    <g id="xtick_23">
     <g id="line2d_51">
      <g>
       <use xlink:href="#mbd38af8ad4" x="424.04609" y="116.301999" style="fill: #262626; stroke: #262626; stroke-width: 0.5"/>
      </g>
     </g>
     <g id="text_41">
      <!-- $\pi/2$ -->
      <g style="fill: #262626" transform="translate(417.88609 129.028249) scale(0.08 -0.08)">
       <use xlink:href="#DejaVuSans-Oblique-3c0" transform="translate(0 0.78125)"/>
       <use xlink:href="#DejaVuSans-2f" transform="translate(60.205078 0.78125)"/>
       <use xlink:href="#DejaVuSans-32" transform="translate(90.271484 0.78125)"/>
      </g>
     </g>
    </g>
    <g id="xtick_24">
     <g id="line2d_52">
      <g>
       <use xlink:href="#mbd38af8ad4" x="453.062148" y="116.301999" style="fill: #262626; stroke: #262626; stroke-width: 0.5"/>
      </g>
     </g>
     <g id="text_42">
      <!-- $3\pi/4$ -->
      <g style="fill: #262626" transform="translate(444.182148 129.028249) scale(0.08 -0.08)">
       <use xlink:href="#DejaVuSans-33" transform="translate(0 0.78125)"/>
       <use xlink:href="#DejaVuSans-Oblique-3c0" transform="translate(63.623047 0.78125)"/>
       <use xlink:href="#DejaVuSans-2f" transform="translate(123.828125 0.78125)"/>
       <use xlink:href="#DejaVuSans-34" transform="translate(157.519531 0.78125)"/>
      </g>
     </g>
    </g>
    <g id="xtick_25">
     <g id="line2d_53">
      <g>
       <use xlink:href="#mbd38af8ad4" x="482.078206" y="116.301999" style="fill: #262626; stroke: #262626; stroke-width: 0.5"/>
      </g>
     </g>
     <g id="text_43">
      <!-- $\pi$ -->
      <g style="fill: #262626" transform="translate(479.638206 129.028249) scale(0.08 -0.08)">
       <use xlink:href="#DejaVuSans-Oblique-3c0" transform="translate(0 0.3125)"/>
      </g>
     </g>
    </g>
    <g id="text_44">
     <!-- $\theta$ (rad) -->
     <g style="fill: #262626" transform="translate(408.938 142.318249) scale(0.1 -0.1)">
      <use xlink:href="#DejaVuSans-Oblique-3b8" transform="translate(0 0.234375)"/>
      <use xlink:href="#ArialMT-20" transform="translate(61.181641 0.234375)"/>
      <use xlink:href="#ArialMT-28" transform="translate(88.964844 0.234375)"/>
      <use xlink:href="#ArialMT-72" transform="translate(122.265625 0.234375)"/>
      <use xlink:href="#ArialMT-61" transform="translate(155.566406 0.234375)"/>
      <use xlink:href="#ArialMT-64" transform="translate(211.181641 0.234375)"/>
      <use xlink:href="#ArialMT-29" transform="translate(266.796875 0.234375)"/>
     </g>
    </g>
   </g>
   <g id="matplotlib.axis_10">
    <g id="ytick_21">
     <g id="line2d_54">
      <g>
       <use xlink:href="#m6aaf95e470" x="360.216571" y="111.614452" style="fill: #262626; stroke: #262626; stroke-width: 0.5"/>
      </g>
     </g>
     <g id="text_45">
      <!-- 0.000 -->
      <g style="fill: #262626" transform="translate(333.199071 114.477577) scale(0.08 -0.08)">
       <use xlink:href="#ArialMT-30"/>
       <use xlink:href="#ArialMT-2e" x="55.615234"/>
       <use xlink:href="#ArialMT-30" x="83.398438"/>
       <use xlink:href="#ArialMT-30" x="139.013672"/>
       <use xlink:href="#ArialMT-30" x="194.628906"/>
      </g>
     </g>
    </g>
    <g id="ytick_22">
     <g id="line2d_55">
      <g>
       <use xlink:href="#m6aaf95e470" x="360.216571" y="84.653329" style="fill: #262626; stroke: #262626; stroke-width: 0.5"/>
      </g>
     </g>
     <g id="text_46">
      <!-- 0.005 -->
      <g style="fill: #262626" transform="translate(333.199071 87.516454) scale(0.08 -0.08)">
       <use xlink:href="#ArialMT-30"/>
       <use xlink:href="#ArialMT-2e" x="55.615234"/>
       <use xlink:href="#ArialMT-30" x="83.398438"/>
       <use xlink:href="#ArialMT-30" x="139.013672"/>
       <use xlink:href="#ArialMT-35" x="194.628906"/>
      </g>
     </g>
    </g>
    <g id="ytick_23">
     <g id="line2d_56">
      <g>
       <use xlink:href="#m6aaf95e470" x="360.216571" y="57.692205" style="fill: #262626; stroke: #262626; stroke-width: 0.5"/>
      </g>
     </g>
     <g id="text_47">
      <!-- 0.010 -->
      <g style="fill: #262626" transform="translate(333.199071 60.55533) scale(0.08 -0.08)">
       <use xlink:href="#ArialMT-30"/>
       <use xlink:href="#ArialMT-2e" x="55.615234"/>
       <use xlink:href="#ArialMT-30" x="83.398438"/>
       <use xlink:href="#ArialMT-31" x="139.013672"/>
       <use xlink:href="#ArialMT-30" x="194.628906"/>
      </g>
     </g>
    </g>
    <g id="ytick_24">
     <g id="line2d_57">
      <g>
       <use xlink:href="#m6aaf95e470" x="360.216571" y="30.731082" style="fill: #262626; stroke: #262626; stroke-width: 0.5"/>
      </g>
     </g>
     <g id="text_48">
      <!-- 0.015 -->
      <g style="fill: #262626" transform="translate(333.199071 33.594207) scale(0.08 -0.08)">
       <use xlink:href="#ArialMT-30"/>
       <use xlink:href="#ArialMT-2e" x="55.615234"/>
       <use xlink:href="#ArialMT-30" x="83.398438"/>
       <use xlink:href="#ArialMT-31" x="139.013672"/>
       <use xlink:href="#ArialMT-35" x="194.628906"/>
      </g>
     </g>
    </g>
    <g id="text_49">
     <!-- $\epsilon (rad)$ -->
     <g style="fill: #262626" transform="translate(330.169643 79.629906) rotate(-90) scale(0.1 -0.1)">
      <defs>
       <path id="DejaVuSans-Oblique-3b5" d="M 1263 1888 
Q 925 1963 778 2166 
Q 669 2309 669 2503 
Q 669 3034 1175 3344 
Q 1575 3588 2188 3588 
Q 2425 3588 2684 3550 
Q 2944 3513 3234 3438 
L 3134 2916 
Q 2847 3006 2606 3047 
Q 2359 3088 2138 3088 
Q 1766 3088 1522 2944 
Q 1228 2772 1228 2522 
Q 1228 2356 1381 2241 
Q 1563 2103 1925 2103 
L 2409 2103 
L 2319 1628 
L 1856 1628 
Q 1425 1628 1172 1469 
Q 828 1253 828 916 
Q 828 703 1013 563 
Q 1244 388 1716 388 
Q 2006 388 2284 444 
Q 2563 503 2806 619 
L 2700 84 
Q 2403 -3 2131 -47 
Q 1859 -91 1609 -91 
Q 866 -91 516 194 
Q 250 413 250 781 
Q 250 1278 600 1584 
Q 859 1813 1263 1888 
z
" transform="scale(0.015625)"/>
       <path id="DejaVuSans-Oblique-72" d="M 2853 2969 
Q 2766 3016 2653 3041 
Q 2541 3066 2413 3066 
Q 1953 3066 1609 2717 
Q 1266 2369 1153 1784 
L 800 0 
L 225 0 
L 909 3500 
L 1484 3500 
L 1375 2956 
Q 1603 3259 1920 3421 
Q 2238 3584 2597 3584 
Q 2691 3584 2781 3573 
Q 2872 3563 2963 3538 
L 2853 2969 
z
" transform="scale(0.015625)"/>
       <path id="DejaVuSans-Oblique-61" d="M 3438 1997 
L 3047 0 
L 2472 0 
L 2578 531 
Q 2325 219 2001 64 
Q 1678 -91 1281 -91 
Q 834 -91 548 182 
Q 263 456 263 884 
Q 263 1497 752 1853 
Q 1241 2209 2100 2209 
L 2900 2209 
L 2931 2363 
Q 2938 2388 2941 2417 
Q 2944 2447 2944 2509 
Q 2944 2788 2717 2942 
Q 2491 3097 2081 3097 
Q 1800 3097 1504 3025 
Q 1209 2953 897 2809 
L 997 3341 
Q 1322 3463 1633 3523 
Q 1944 3584 2234 3584 
Q 2853 3584 3176 3315 
Q 3500 3047 3500 2534 
Q 3500 2431 3484 2292 
Q 3469 2153 3438 1997 
z
M 2816 1759 
L 2241 1759 
Q 1534 1759 1195 1570 
Q 856 1381 856 984 
Q 856 709 1029 553 
Q 1203 397 1509 397 
Q 1978 397 2328 733 
Q 2678 1069 2791 1631 
L 2816 1759 
z
" transform="scale(0.015625)"/>
       <path id="DejaVuSans-Oblique-64" d="M 2675 525 
Q 2444 222 2128 65 
Q 1813 -91 1428 -91 
Q 903 -91 598 267 
Q 294 625 294 1247 
Q 294 1766 478 2236 
Q 663 2706 1013 3078 
Q 1244 3325 1534 3454 
Q 1825 3584 2144 3584 
Q 2481 3584 2739 3421 
Q 2997 3259 3138 2956 
L 3513 4863 
L 4091 4863 
L 3144 0 
L 2566 0 
L 2675 525 
z
M 891 1350 
Q 891 897 1095 644 
Q 1300 391 1663 391 
Q 1931 391 2161 520 
Q 2391 650 2566 903 
Q 2750 1166 2856 1509 
Q 2963 1853 2963 2188 
Q 2963 2622 2758 2865 
Q 2553 3109 2194 3109 
Q 1922 3109 1687 2981 
Q 1453 2853 1288 2613 
Q 1106 2353 998 2009 
Q 891 1666 891 1350 
z
" transform="scale(0.015625)"/>
      </defs>
      <use xlink:href="#DejaVuSans-Oblique-3b5" transform="translate(0 0.015625)"/>
      <use xlink:href="#DejaVuSans-28" transform="translate(54.052734 0.015625)"/>
      <use xlink:href="#DejaVuSans-Oblique-72" transform="translate(93.066406 0.015625)"/>
      <use xlink:href="#DejaVuSans-Oblique-61" transform="translate(134.179688 0.015625)"/>
      <use xlink:href="#DejaVuSans-Oblique-64" transform="translate(195.458984 0.015625)"/>
      <use xlink:href="#DejaVuSans-29" transform="translate(258.935547 0.015625)"/>
     </g>
    </g>
   </g>
   <g id="PolyCollection_9"/>
   <g id="PolyCollection_10"/>
   <g id="line2d_58">
    <path d="M 366.013974 17.859336 
L 369.731747 17.893494 
L 373.44952 18.146351 
L 377.283474 18.627121 
L 381.349789 19.361789 
L 385.764644 20.386287 
L 390.992763 21.835263 
L 399.357752 24.424957 
L 406.909479 26.674428 
L 411.672876 27.864219 
L 415.739191 28.657355 
L 419.456964 29.162223 
L 423.058557 29.426583 
L 426.543969 29.460085 
L 430.029381 29.273352 
L 433.630974 28.857688 
L 437.464928 28.187809 
L 441.647423 27.229116 
L 446.64318 25.849402 
L 454.89199 23.296443 
L 462.676077 20.974777 
L 467.671835 19.716395 
L 471.97051 18.855986 
L 475.920645 18.283652 
L 479.754598 17.949859 
L 481.962026 17.861824 
L 481.962026 17.861824 
" clip-path="url(#p74fb4da2e2)" style="fill: none; stroke: #ff7c00; stroke-linecap: round"/>
   </g>
   <g id="line2d_59">
    <path d="M 366.013974 111.613492 
L 481.962026 111.613419 
L 481.962026 111.613419 
" clip-path="url(#p74fb4da2e2)" style="fill: none; stroke: #023eff; stroke-linecap: round"/>
   </g>
   <g id="patch_23">
    <path d="M 360.216571 116.301999 
L 360.216571 13.157812 
" style="fill: none; stroke: #262626; stroke-width: 0.5; stroke-linejoin: miter; stroke-linecap: square"/>
   </g>
   <g id="patch_24">
    <path d="M 487.759429 116.301999 
L 487.759429 13.157812 
" style="fill: none; stroke: #262626; stroke-width: 0.5; stroke-linejoin: miter; stroke-linecap: square"/>
   </g>
   <g id="patch_25">
    <path d="M 360.216571 116.301999 
L 487.759429 116.301999 
" style="fill: none; stroke: #262626; stroke-width: 0.5; stroke-linejoin: miter; stroke-linecap: square"/>
   </g>
   <g id="patch_26">
    <path d="M 360.216571 13.157812 
L 487.759429 13.157812 
" style="fill: none; stroke: #262626; stroke-width: 0.5; stroke-linejoin: miter; stroke-linecap: square"/>
   </g>
   <g id="text_50">
    <!-- Angular Error -->
    <g style="fill: #262626" transform="translate(394.255969 7.157812) scale(0.1 -0.1)">
     <defs>
      <path id="ArialMT-41" d="M -9 0 
L 1750 4581 
L 2403 4581 
L 4278 0 
L 3588 0 
L 3053 1388 
L 1138 1388 
L 634 0 
L -9 0 
z
M 1313 1881 
L 2866 1881 
L 2388 3150 
Q 2169 3728 2063 4100 
Q 1975 3659 1816 3225 
L 1313 1881 
z
" transform="scale(0.015625)"/>
      <path id="ArialMT-67" d="M 319 -275 
L 866 -356 
Q 900 -609 1056 -725 
Q 1266 -881 1628 -881 
Q 2019 -881 2231 -725 
Q 2444 -569 2519 -288 
Q 2563 -116 2559 434 
Q 2191 0 1641 0 
Q 956 0 581 494 
Q 206 988 206 1678 
Q 206 2153 378 2554 
Q 550 2956 876 3175 
Q 1203 3394 1644 3394 
Q 2231 3394 2613 2919 
L 2613 3319 
L 3131 3319 
L 3131 450 
Q 3131 -325 2973 -648 
Q 2816 -972 2473 -1159 
Q 2131 -1347 1631 -1347 
Q 1038 -1347 672 -1080 
Q 306 -813 319 -275 
z
M 784 1719 
Q 784 1066 1043 766 
Q 1303 466 1694 466 
Q 2081 466 2343 764 
Q 2606 1063 2606 1700 
Q 2606 2309 2336 2618 
Q 2066 2928 1684 2928 
Q 1309 2928 1046 2623 
Q 784 2319 784 1719 
z
" transform="scale(0.015625)"/>
      <path id="ArialMT-75" d="M 2597 0 
L 2597 488 
Q 2209 -75 1544 -75 
Q 1250 -75 995 37 
Q 741 150 617 320 
Q 494 491 444 738 
Q 409 903 409 1263 
L 409 3319 
L 972 3319 
L 972 1478 
Q 972 1038 1006 884 
Q 1059 663 1231 536 
Q 1403 409 1656 409 
Q 1909 409 2131 539 
Q 2353 669 2445 892 
Q 2538 1116 2538 1541 
L 2538 3319 
L 3100 3319 
L 3100 0 
L 2597 0 
z
" transform="scale(0.015625)"/>
     </defs>
     <use xlink:href="#ArialMT-41"/>
     <use xlink:href="#ArialMT-6e" x="66.699219"/>
     <use xlink:href="#ArialMT-67" x="122.314453"/>
     <use xlink:href="#ArialMT-75" x="177.929688"/>
     <use xlink:href="#ArialMT-6c" x="233.544922"/>
     <use xlink:href="#ArialMT-61" x="255.761719"/>
     <use xlink:href="#ArialMT-72" x="311.376953"/>
     <use xlink:href="#ArialMT-20" x="344.677734"/>
     <use xlink:href="#ArialMT-45" x="372.460938"/>
     <use xlink:href="#ArialMT-72" x="439.160156"/>
     <use xlink:href="#ArialMT-72" x="472.460938"/>
     <use xlink:href="#ArialMT-6f" x="505.761719"/>
     <use xlink:href="#ArialMT-72" x="561.376953"/>
    </g>
   </g>
  </g>
 </g>
 <defs>
  <clipPath id="p64d6dba14b">
   <rect x="41.359429" y="13.157812" width="127.542857" height="103.144186"/>
  </clipPath>
  <clipPath id="p956a3bbcc6">
   <rect x="200.788" y="13.157812" width="127.542857" height="103.144186"/>
  </clipPath>
  <clipPath id="p23c373e671">
   <rect x="41.359429" y="126.616417" width="127.542857" height="103.144186"/>
  </clipPath>
  <clipPath id="p992015bd86">
   <rect x="200.788" y="126.616417" width="127.542857" height="103.144186"/>
  </clipPath>
  <clipPath id="p74fb4da2e2">
   <rect x="360.216571" y="13.157812" width="127.542857" height="103.144186"/>
  </clipPath>
 </defs>
</svg>
