<?xml version="1.0" encoding="utf-8" standalone="no"?>
<!DOCTYPE svg PUBLIC "-//W3C//DTD SVG 1.1//EN"
  "http://www.w3.org/Graphics/SVG/1.1/DTD/svg11.dtd">
<svg xmlns:xlink="http://www.w3.org/1999/xlink" width="359.417928pt" height="261.186341pt" viewBox="0 0 359.417928 261.186341" xmlns="http://www.w3.org/2000/svg" version="1.1">
 <metadata>
  <rdf:RDF xmlns:dc="http://purl.org/dc/elements/1.1/" xmlns:cc="http://creativecommons.org/ns#" xmlns:rdf="http://www.w3.org/1999/02/22-rdf-syntax-ns#">
   <cc:Work>
    <dc:type rdf:resource="http://purl.org/dc/dcmitype/StillImage"/>
    <dc:date>2025-04-11T09:37:19.698494</dc:date>
    <dc:format>image/svg+xml</dc:format>
    <dc:creator>
     <cc:Agent>
      <dc:title>Matplotlib v3.8.0, https://matplotlib.org/</dc:title>
     </cc:Agent>
    </dc:creator>
   </cc:Work>
  </rdf:RDF>
 </metadata>
 <defs>
  <style type="text/css">*{stroke-linejoin: round; stroke-linecap: butt}</style>
 </defs>
 <g id="figure_1">
  <g id="patch_1">
   <path d="M 0 261.186341 
L 359.417928 261.186341 
L 359.417928 0 
L 0 0 
L 0 261.186341 
z
" style="fill: none"/>
  </g>
  <g id="axes_1">
   <g id="patch_2">
    <path d="M 26.372093 121.87561 
L 130.186047 121.87561 
L 130.186047 13.7 
L 26.372093 13.7 
L 26.372093 121.87561 
z
" style="fill: none"/>
   </g>
   <g id="matplotlib.axis_1">
    <g id="xtick_1">
     <g id="line2d_1">
      <defs>
       <path id="m70815dcea1" d="M 0 0 
L 0 3.5 
" style="stroke: #262626; stroke-width: 0.5"/>
      </defs>
      <g>
       <use xlink:href="#m70815dcea1" x="31.090909" y="121.87561" style="fill: #262626; stroke: #262626; stroke-width: 0.5"/>
      </g>
     </g>
    </g>
    <g id="xtick_2">
     <g id="line2d_2">
      <g>
       <use xlink:href="#m70815dcea1" x="78.27907" y="121.87561" style="fill: #262626; stroke: #262626; stroke-width: 0.5"/>
      </g>
     </g>
    </g>
    <g id="xtick_3">
     <g id="line2d_3">
      <g>
       <use xlink:href="#m70815dcea1" x="125.46723" y="121.87561" style="fill: #262626; stroke: #262626; stroke-width: 0.5"/>
      </g>
     </g>
    </g>
   </g>
   <g id="matplotlib.axis_2">
    <g id="ytick_1">
     <g id="line2d_4">
      <defs>
       <path id="maaed2908e2" d="M 0 0 
L -3.5 0 
" style="stroke: #262626; stroke-width: 0.5"/>
      </defs>
      <g>
       <use xlink:href="#maaed2908e2" x="26.372093" y="116.958537" style="fill: #262626; stroke: #262626; stroke-width: 0.5"/>
      </g>
     </g>
     <g id="text_1">
      <!-- 0 -->
      <g style="fill: #262626" transform="translate(14.923343 119.821662) scale(0.08 -0.08)">
       <defs>
        <path id="ArialMT-30" d="M 266 2259 
Q 266 3072 433 3567 
Q 600 4063 929 4331 
Q 1259 4600 1759 4600 
Q 2128 4600 2406 4451 
Q 2684 4303 2865 4023 
Q 3047 3744 3150 3342 
Q 3253 2941 3253 2259 
Q 3253 1453 3087 958 
Q 2922 463 2592 192 
Q 2263 -78 1759 -78 
Q 1097 -78 719 397 
Q 266 969 266 2259 
z
M 844 2259 
Q 844 1131 1108 757 
Q 1372 384 1759 384 
Q 2147 384 2411 759 
Q 2675 1134 2675 2259 
Q 2675 3391 2411 3762 
Q 2147 4134 1753 4134 
Q 1366 4134 1134 3806 
Q 844 3388 844 2259 
z
" transform="scale(0.015625)"/>
       </defs>
       <use xlink:href="#ArialMT-30"/>
      </g>
     </g>
    </g>
    <g id="ytick_2">
     <g id="line2d_5">
      <g>
       <use xlink:href="#maaed2908e2" x="26.372093" y="18.617073" style="fill: #262626; stroke: #262626; stroke-width: 0.5"/>
      </g>
     </g>
     <g id="text_2">
      <!-- 1 -->
      <g style="fill: #262626" transform="translate(14.923343 21.480198) scale(0.08 -0.08)">
       <defs>
        <path id="ArialMT-31" d="M 2384 0 
L 1822 0 
L 1822 3584 
Q 1619 3391 1289 3197 
Q 959 3003 697 2906 
L 697 3450 
Q 1169 3672 1522 3987 
Q 1875 4303 2022 4600 
L 2384 4600 
L 2384 0 
z
" transform="scale(0.015625)"/>
       </defs>
       <use xlink:href="#ArialMT-31"/>
      </g>
     </g>
    </g>
    <g id="text_3">
     <!-- $|M_{xy}|/|M|$ -->
     <g style="fill: #262626" transform="translate(7.7 89.137805) rotate(-90) scale(0.1 -0.1)">
      <defs>
       <path id="DejaVuSans-7c" d="M 1344 4891 
L 1344 -1509 
L 813 -1509 
L 813 4891 
L 1344 4891 
z
" transform="scale(0.015625)"/>
       <path id="DejaVuSans-Oblique-4d" d="M 1081 4666 
L 2028 4666 
L 2572 1522 
L 4378 4666 
L 5350 4666 
L 4441 0 
L 3828 0 
L 4622 4091 
L 2791 897 
L 2175 897 
L 1581 4103 
L 788 0 
L 172 0 
L 1081 4666 
z
" transform="scale(0.015625)"/>
       <path id="DejaVuSans-Oblique-78" d="M 3841 3500 
L 2234 1784 
L 3219 0 
L 2559 0 
L 1819 1388 
L 531 0 
L -166 0 
L 1556 1844 
L 641 3500 
L 1300 3500 
L 1972 2234 
L 3144 3500 
L 3841 3500 
z
" transform="scale(0.015625)"/>
       <path id="DejaVuSans-Oblique-79" d="M 1588 -325 
Q 1188 -997 936 -1164 
Q 684 -1331 294 -1331 
L -159 -1331 
L -63 -850 
L 269 -850 
Q 509 -850 678 -719 
Q 847 -588 1056 -206 
L 1234 128 
L 459 3500 
L 1069 3500 
L 1650 819 
L 3256 3500 
L 3859 3500 
L 1588 -325 
z
" transform="scale(0.015625)"/>
       <path id="DejaVuSans-2f" d="M 1625 4666 
L 2156 4666 
L 531 -594 
L 0 -594 
L 1625 4666 
z
" transform="scale(0.015625)"/>
      </defs>
      <use xlink:href="#DejaVuSans-7c" transform="translate(0 0.578125)"/>
      <use xlink:href="#DejaVuSans-Oblique-4d" transform="translate(33.691406 0.578125)"/>
      <use xlink:href="#DejaVuSans-Oblique-78" transform="translate(119.970703 -15.828125) scale(0.7)"/>
      <use xlink:href="#DejaVuSans-Oblique-79" transform="translate(161.396484 -15.828125) scale(0.7)"/>
      <use xlink:href="#DejaVuSans-7c" transform="translate(205.556641 0.578125)"/>
      <use xlink:href="#DejaVuSans-2f" transform="translate(239.248047 0.578125)"/>
      <use xlink:href="#DejaVuSans-7c" transform="translate(272.939453 0.578125)"/>
      <use xlink:href="#DejaVuSans-Oblique-4d" transform="translate(306.630859 0.578125)"/>
      <use xlink:href="#DejaVuSans-7c" transform="translate(392.910156 0.578125)"/>
     </g>
    </g>
   </g>
   <g id="PolyCollection_1"/>
   <g id="PolyCollection_2"/>
   <g id="PolyCollection_3"/>
   <g id="line2d_6">
    <path d="M 31.090909 116.958537 
L 33.167188 114.099715 
L 35.243467 110.844403 
L 37.22537 107.322065 
L 39.207273 103.348685 
L 41.189175 98.878582 
L 43.171078 93.867958 
L 45.247357 87.99784 
L 47.418013 81.150875 
L 49.683044 73.230541 
L 52.231205 63.448393 
L 55.628753 49.398474 
L 59.403805 33.94372 
L 61.102579 27.85792 
L 62.423848 23.885757 
L 63.461987 21.408344 
L 64.311374 19.902749 
L 64.972008 19.107955 
L 65.538266 18.718592 
L 66.010148 18.617122 
L 66.48203 18.732027 
L 66.953911 19.075743 
L 67.520169 19.806994 
L 68.086427 20.90423 
L 68.747061 22.670202 
L 69.502072 25.358128 
L 70.351459 29.268131 
L 71.295222 34.739024 
L 72.333362 42.128147 
L 73.560254 52.649234 
L 74.975899 66.973962 
L 76.674672 86.644423 
L 79.03408 116.506472 
L 79.128457 116.196057 
L 82.054123 79.88836 
L 83.752896 61.449439 
L 85.168541 48.370812 
L 86.395433 38.960716 
L 87.527949 31.932871 
L 88.566089 26.882519 
L 89.509852 23.406012 
L 90.359239 21.135798 
L 91.114249 19.756297 
L 91.774884 19.007577 
L 92.341142 18.682233 
L 92.9074 18.628143 
L 93.473658 18.825283 
L 94.039915 19.253617 
L 94.70055 20.019105 
L 95.549937 21.376628 
L 96.588076 23.521512 
L 97.814968 26.60875 
L 99.419366 31.302109 
L 101.778774 38.990997 
L 108.196364 60.226752 
L 110.744524 67.735826 
L 113.103932 74.008589 
L 115.368964 79.399243 
L 117.539619 84.00322 
L 119.710275 88.090825 
L 121.88093 91.703317 
L 124.051586 94.884918 
L 125.46723 96.748814 
L 125.46723 96.748814 
" clip-path="url(#p08fb26241d)" style="fill: none; stroke: #a3a3a3; stroke-linecap: round"/>
   </g>
   <g id="line2d_7">
    <path d="M 31.090909 96.748815 
L 33.261564 93.824364 
L 35.337844 90.651533 
L 37.414123 87.072055 
L 39.490402 83.047598 
L 41.566681 78.543188 
L 43.737336 73.291406 
L 46.002368 67.205132 
L 48.456152 59.934967 
L 51.287442 50.803631 
L 58.176913 28.193956 
L 59.686934 24.186138 
L 60.81945 21.72961 
L 61.763214 20.15014 
L 62.518224 19.253617 
L 63.178858 18.775832 
L 63.745116 18.619169 
L 64.311374 18.717082 
L 64.877632 19.089566 
L 65.44389 19.756296 
L 66.104524 20.931419 
L 66.765159 22.561536 
L 67.520169 25.014958 
L 68.369556 28.567353 
L 69.313319 33.540011 
L 70.351459 40.287536 
L 71.483975 49.170595 
L 72.805243 61.449437 
L 74.315264 77.712614 
L 76.297167 101.725798 
L 77.524059 116.506473 
L 80.732854 76.524497 
L 82.431628 58.116976 
L 83.847273 45.164334 
L 85.074165 35.976235 
L 86.112304 29.761598 
L 87.056068 25.358128 
L 87.905455 22.385004 
L 88.660465 20.496694 
L 89.321099 19.396792 
L 89.887357 18.841375 
L 90.359239 18.636413 
L 90.831121 18.652852 
L 91.303002 18.878027 
L 91.86926 19.405558 
L 92.529894 20.347272 
L 93.284905 21.809987 
L 94.228668 24.141534 
L 95.361184 27.548612 
L 96.871205 32.870692 
L 98.947484 41.103296 
L 106.591966 72.186778 
L 108.951374 80.520802 
L 111.216406 87.715384 
L 113.387061 93.867958 
L 115.46334 99.10337 
L 117.539619 103.747789 
L 119.615899 107.851806 
L 121.692178 111.467942 
L 123.768457 114.647607 
L 125.46723 116.958537 
L 125.46723 116.958537 
" clip-path="url(#p08fb26241d)" style="fill: none; stroke: #ff7c00; stroke-linecap: round"/>
   </g>
   <g id="line2d_8">
    <path d="M 31.090909 116.958537 
L 33.167188 114.099715 
L 35.243467 110.844403 
L 37.22537 107.322066 
L 39.207273 103.348685 
L 41.189175 98.878583 
L 43.171078 93.867958 
L 45.247357 87.99784 
L 47.418013 81.150876 
L 49.683044 73.230542 
L 52.231205 63.448394 
L 55.628753 49.398475 
L 59.403805 33.943721 
L 61.102579 27.857921 
L 62.423848 23.885758 
L 63.461987 21.408345 
L 64.311374 19.902749 
L 64.972008 19.107955 
L 65.538266 18.718593 
L 66.010148 18.617122 
L 66.48203 18.732027 
L 66.953911 19.075743 
L 67.520169 19.806994 
L 68.086427 20.904229 
L 68.747061 22.670202 
L 69.502072 25.358128 
L 70.351459 29.26813 
L 71.295222 34.739023 
L 72.333362 42.128146 
L 73.560254 52.649233 
L 74.975899 66.973962 
L 76.674672 86.644423 
L 79.03408 116.506473 
L 79.128457 116.196056 
L 82.054123 79.888359 
L 83.752896 61.449437 
L 85.168541 48.37081 
L 86.395433 38.960714 
L 87.527949 31.932869 
L 88.566089 26.882518 
L 89.509852 23.406011 
L 90.359239 21.135797 
L 91.114249 19.756296 
L 91.774884 19.007577 
L 92.341142 18.682233 
L 92.9074 18.628143 
L 93.473658 18.825284 
L 94.039915 19.253617 
L 94.70055 20.019106 
L 95.549937 21.376629 
L 96.588076 23.521513 
L 97.814968 26.608751 
L 99.419366 31.30211 
L 101.778774 38.990999 
L 108.196364 60.226754 
L 110.744524 67.735828 
L 113.103932 74.008591 
L 115.368964 79.399245 
L 117.539619 84.003221 
L 119.710275 88.090826 
L 121.88093 91.703318 
L 124.051586 94.884919 
L 125.46723 96.748815 
L 125.46723 96.748815 
" clip-path="url(#p08fb26241d)" style="fill: none; stroke: #023eff; stroke-linecap: round"/>
   </g>
   <g id="line2d_9"/>
   <g id="line2d_10"/>
   <g id="line2d_11"/>
   <g id="patch_3">
    <path d="M 26.372093 121.87561 
L 26.372093 13.7 
" style="fill: none; stroke: #262626; stroke-width: 0.5; stroke-linejoin: miter; stroke-linecap: square"/>
   </g>
   <g id="patch_4">
    <path d="M 130.186047 121.87561 
L 130.186047 13.7 
" style="fill: none; stroke: #262626; stroke-width: 0.5; stroke-linejoin: miter; stroke-linecap: square"/>
   </g>
   <g id="patch_5">
    <path d="M 26.372093 121.87561 
L 130.186047 121.87561 
" style="fill: none; stroke: #262626; stroke-width: 0.5; stroke-linejoin: miter; stroke-linecap: square"/>
   </g>
   <g id="patch_6">
    <path d="M 26.372093 13.7 
L 130.186047 13.7 
" style="fill: none; stroke: #262626; stroke-width: 0.5; stroke-linejoin: miter; stroke-linecap: square"/>
   </g>
   <g id="text_4">
    <!-- $\operatorname{sech}\beta = 0.10$ -->
    <g style="fill: #262626" transform="translate(45.37907 7.7) scale(0.1 -0.1)">
     <defs>
      <path id="DejaVuSans-73" d="M 2834 3397 
L 2834 2853 
Q 2591 2978 2328 3040 
Q 2066 3103 1784 3103 
Q 1356 3103 1142 2972 
Q 928 2841 928 2578 
Q 928 2378 1081 2264 
Q 1234 2150 1697 2047 
L 1894 2003 
Q 2506 1872 2764 1633 
Q 3022 1394 3022 966 
Q 3022 478 2636 193 
Q 2250 -91 1575 -91 
Q 1294 -91 989 -36 
Q 684 19 347 128 
L 347 722 
Q 666 556 975 473 
Q 1284 391 1588 391 
Q 1994 391 2212 530 
Q 2431 669 2431 922 
Q 2431 1156 2273 1281 
Q 2116 1406 1581 1522 
L 1381 1569 
Q 847 1681 609 1914 
Q 372 2147 372 2553 
Q 372 3047 722 3315 
Q 1072 3584 1716 3584 
Q 2034 3584 2315 3537 
Q 2597 3491 2834 3397 
z
" transform="scale(0.015625)"/>
      <path id="DejaVuSans-65" d="M 3597 1894 
L 3597 1613 
L 953 1613 
Q 991 1019 1311 708 
Q 1631 397 2203 397 
Q 2534 397 2845 478 
Q 3156 559 3463 722 
L 3463 178 
Q 3153 47 2828 -22 
Q 2503 -91 2169 -91 
Q 1331 -91 842 396 
Q 353 884 353 1716 
Q 353 2575 817 3079 
Q 1281 3584 2069 3584 
Q 2775 3584 3186 3129 
Q 3597 2675 3597 1894 
z
M 3022 2063 
Q 3016 2534 2758 2815 
Q 2500 3097 2075 3097 
Q 1594 3097 1305 2825 
Q 1016 2553 972 2059 
L 3022 2063 
z
" transform="scale(0.015625)"/>
      <path id="DejaVuSans-63" d="M 3122 3366 
L 3122 2828 
Q 2878 2963 2633 3030 
Q 2388 3097 2138 3097 
Q 1578 3097 1268 2742 
Q 959 2388 959 1747 
Q 959 1106 1268 751 
Q 1578 397 2138 397 
Q 2388 397 2633 464 
Q 2878 531 3122 666 
L 3122 134 
Q 2881 22 2623 -34 
Q 2366 -91 2075 -91 
Q 1284 -91 818 406 
Q 353 903 353 1747 
Q 353 2603 823 3093 
Q 1294 3584 2113 3584 
Q 2378 3584 2631 3529 
Q 2884 3475 3122 3366 
z
" transform="scale(0.015625)"/>
      <path id="DejaVuSans-68" d="M 3513 2113 
L 3513 0 
L 2938 0 
L 2938 2094 
Q 2938 2591 2744 2837 
Q 2550 3084 2163 3084 
Q 1697 3084 1428 2787 
Q 1159 2491 1159 1978 
L 1159 0 
L 581 0 
L 581 4863 
L 1159 4863 
L 1159 2956 
Q 1366 3272 1645 3428 
Q 1925 3584 2291 3584 
Q 2894 3584 3203 3211 
Q 3513 2838 3513 2113 
z
" transform="scale(0.015625)"/>
      <path id="DejaVuSans-Oblique-3b2" d="M 872 216 
L 572 -1331 
L -6 -1331 
L 928 3478 
Q 1206 4903 2538 4903 
Q 3888 4903 3659 3700 
Q 3503 2844 2894 2531 
Q 3713 2250 3553 1416 
Q 3272 -69 1759 -66 
Q 1097 -63 872 216 
z
M 1019 966 
Q 1259 422 1875 425 
Q 2775 425 2966 1406 
Q 3138 2288 1675 2219 
L 1778 2750 
Q 2909 2731 3106 3750 
Q 3241 4438 2509 4434 
Q 1691 4434 1503 3459 
L 1019 966 
z
" transform="scale(0.015625)"/>
      <path id="DejaVuSans-3d" d="M 678 2906 
L 4684 2906 
L 4684 2381 
L 678 2381 
L 678 2906 
z
M 678 1631 
L 4684 1631 
L 4684 1100 
L 678 1100 
L 678 1631 
z
" transform="scale(0.015625)"/>
      <path id="DejaVuSans-30" d="M 2034 4250 
Q 1547 4250 1301 3770 
Q 1056 3291 1056 2328 
Q 1056 1369 1301 889 
Q 1547 409 2034 409 
Q 2525 409 2770 889 
Q 3016 1369 3016 2328 
Q 3016 3291 2770 3770 
Q 2525 4250 2034 4250 
z
M 2034 4750 
Q 2819 4750 3233 4129 
Q 3647 3509 3647 2328 
Q 3647 1150 3233 529 
Q 2819 -91 2034 -91 
Q 1250 -91 836 529 
Q 422 1150 422 2328 
Q 422 3509 836 4129 
Q 1250 4750 2034 4750 
z
" transform="scale(0.015625)"/>
      <path id="DejaVuSans-2e" d="M 684 794 
L 1344 794 
L 1344 0 
L 684 0 
L 684 794 
z
" transform="scale(0.015625)"/>
      <path id="DejaVuSans-31" d="M 794 531 
L 1825 531 
L 1825 4091 
L 703 3866 
L 703 4441 
L 1819 4666 
L 2450 4666 
L 2450 531 
L 3481 531 
L 3481 0 
L 794 0 
L 794 531 
z
" transform="scale(0.015625)"/>
     </defs>
     <use xlink:href="#DejaVuSans-73" transform="translate(0 0.390625)"/>
     <use xlink:href="#DejaVuSans-65" transform="translate(52.099609 0.390625)"/>
     <use xlink:href="#DejaVuSans-63" transform="translate(113.623047 0.390625)"/>
     <use xlink:href="#DejaVuSans-68" transform="translate(168.603516 0.390625)"/>
     <use xlink:href="#DejaVuSans-Oblique-3b2" transform="translate(248.218098 0.390625)"/>
     <use xlink:href="#DejaVuSans-3d" transform="translate(331.518879 0.390625)"/>
     <use xlink:href="#DejaVuSans-30" transform="translate(434.790364 0.390625)"/>
     <use xlink:href="#DejaVuSans-2e" transform="translate(498.413411 0.390625)"/>
     <use xlink:href="#DejaVuSans-31" transform="translate(530.20052 0.390625)"/>
     <use xlink:href="#DejaVuSans-30" transform="translate(593.823567 0.390625)"/>
    </g>
   </g>
   <g id="legend_1">
    <g id="line2d_12">
     <path d="M 57.07532 87.65311 
L 65.07532 87.65311 
L 73.07532 87.65311 
" style="fill: none; stroke: #a3a3a3; stroke-width: 1.5; stroke-linecap: round"/>
    </g>
    <g id="text_5">
     <!-- Sim -->
     <g style="fill: #262626" transform="translate(79.47532 90.45311) scale(0.08 -0.08)">
      <defs>
       <path id="ArialMT-53" d="M 288 1472 
L 859 1522 
Q 900 1178 1048 958 
Q 1197 738 1509 602 
Q 1822 466 2213 466 
Q 2559 466 2825 569 
Q 3091 672 3220 851 
Q 3350 1031 3350 1244 
Q 3350 1459 3225 1620 
Q 3100 1781 2813 1891 
Q 2628 1963 1997 2114 
Q 1366 2266 1113 2400 
Q 784 2572 623 2826 
Q 463 3081 463 3397 
Q 463 3744 659 4045 
Q 856 4347 1234 4503 
Q 1613 4659 2075 4659 
Q 2584 4659 2973 4495 
Q 3363 4331 3572 4012 
Q 3781 3694 3797 3291 
L 3216 3247 
Q 3169 3681 2898 3903 
Q 2628 4125 2100 4125 
Q 1550 4125 1298 3923 
Q 1047 3722 1047 3438 
Q 1047 3191 1225 3031 
Q 1400 2872 2139 2705 
Q 2878 2538 3153 2413 
Q 3553 2228 3743 1945 
Q 3934 1663 3934 1294 
Q 3934 928 3725 604 
Q 3516 281 3123 101 
Q 2731 -78 2241 -78 
Q 1619 -78 1198 103 
Q 778 284 539 648 
Q 300 1013 288 1472 
z
" transform="scale(0.015625)"/>
       <path id="ArialMT-69" d="M 425 3934 
L 425 4581 
L 988 4581 
L 988 3934 
L 425 3934 
z
M 425 0 
L 425 3319 
L 988 3319 
L 988 0 
L 425 0 
z
" transform="scale(0.015625)"/>
       <path id="ArialMT-6d" d="M 422 0 
L 422 3319 
L 925 3319 
L 925 2853 
Q 1081 3097 1340 3245 
Q 1600 3394 1931 3394 
Q 2300 3394 2536 3241 
Q 2772 3088 2869 2813 
Q 3263 3394 3894 3394 
Q 4388 3394 4653 3120 
Q 4919 2847 4919 2278 
L 4919 0 
L 4359 0 
L 4359 2091 
Q 4359 2428 4304 2576 
Q 4250 2725 4106 2815 
Q 3963 2906 3769 2906 
Q 3419 2906 3187 2673 
Q 2956 2441 2956 1928 
L 2956 0 
L 2394 0 
L 2394 2156 
Q 2394 2531 2256 2718 
Q 2119 2906 1806 2906 
Q 1569 2906 1367 2781 
Q 1166 2656 1075 2415 
Q 984 2175 984 1722 
L 984 0 
L 422 0 
z
" transform="scale(0.015625)"/>
      </defs>
      <use xlink:href="#ArialMT-53"/>
      <use xlink:href="#ArialMT-69" x="66.699219"/>
      <use xlink:href="#ArialMT-6d" x="88.916016"/>
     </g>
    </g>
    <g id="line2d_13">
     <path d="M 57.07532 98.96936 
L 65.07532 98.96936 
L 73.07532 98.96936 
" style="fill: none; stroke: #ff7c00; stroke-width: 1.5; stroke-linecap: round"/>
    </g>
    <g id="text_6">
     <!-- SIT -->
     <g style="fill: #262626" transform="translate(79.47532 101.76936) scale(0.08 -0.08)">
      <defs>
       <path id="ArialMT-49" d="M 597 0 
L 597 4581 
L 1203 4581 
L 1203 0 
L 597 0 
z
" transform="scale(0.015625)"/>
       <path id="ArialMT-54" d="M 1659 0 
L 1659 4041 
L 150 4041 
L 150 4581 
L 3781 4581 
L 3781 4041 
L 2266 4041 
L 2266 0 
L 1659 0 
z
" transform="scale(0.015625)"/>
      </defs>
      <use xlink:href="#ArialMT-53"/>
      <use xlink:href="#ArialMT-49" x="66.699219"/>
      <use xlink:href="#ArialMT-54" x="94.482422"/>
     </g>
    </g>
    <g id="line2d_14">
     <path d="M 57.07532 110.28561 
L 65.07532 110.28561 
L 73.07532 110.28561 
" style="fill: none; stroke: #023eff; stroke-width: 1.5; stroke-linecap: round"/>
    </g>
    <g id="text_7">
     <!-- Exact -->
     <g style="fill: #262626" transform="translate(79.47532 113.08561) scale(0.08 -0.08)">
      <defs>
       <path id="ArialMT-45" d="M 506 0 
L 506 4581 
L 3819 4581 
L 3819 4041 
L 1113 4041 
L 1113 2638 
L 3647 2638 
L 3647 2100 
L 1113 2100 
L 1113 541 
L 3925 541 
L 3925 0 
L 506 0 
z
" transform="scale(0.015625)"/>
       <path id="ArialMT-78" d="M 47 0 
L 1259 1725 
L 138 3319 
L 841 3319 
L 1350 2541 
Q 1494 2319 1581 2169 
Q 1719 2375 1834 2534 
L 2394 3319 
L 3066 3319 
L 1919 1756 
L 3153 0 
L 2463 0 
L 1781 1031 
L 1600 1309 
L 728 0 
L 47 0 
z
" transform="scale(0.015625)"/>
       <path id="ArialMT-61" d="M 2588 409 
Q 2275 144 1986 34 
Q 1697 -75 1366 -75 
Q 819 -75 525 192 
Q 231 459 231 875 
Q 231 1119 342 1320 
Q 453 1522 633 1644 
Q 813 1766 1038 1828 
Q 1203 1872 1538 1913 
Q 2219 1994 2541 2106 
Q 2544 2222 2544 2253 
Q 2544 2597 2384 2738 
Q 2169 2928 1744 2928 
Q 1347 2928 1158 2789 
Q 969 2650 878 2297 
L 328 2372 
Q 403 2725 575 2942 
Q 747 3159 1072 3276 
Q 1397 3394 1825 3394 
Q 2250 3394 2515 3294 
Q 2781 3194 2906 3042 
Q 3031 2891 3081 2659 
Q 3109 2516 3109 2141 
L 3109 1391 
Q 3109 606 3145 398 
Q 3181 191 3288 0 
L 2700 0 
Q 2613 175 2588 409 
z
M 2541 1666 
Q 2234 1541 1622 1453 
Q 1275 1403 1131 1340 
Q 988 1278 909 1158 
Q 831 1038 831 891 
Q 831 666 1001 516 
Q 1172 366 1500 366 
Q 1825 366 2078 508 
Q 2331 650 2450 897 
Q 2541 1088 2541 1459 
L 2541 1666 
z
" transform="scale(0.015625)"/>
       <path id="ArialMT-63" d="M 2588 1216 
L 3141 1144 
Q 3050 572 2676 248 
Q 2303 -75 1759 -75 
Q 1078 -75 664 370 
Q 250 816 250 1647 
Q 250 2184 428 2587 
Q 606 2991 970 3192 
Q 1334 3394 1763 3394 
Q 2303 3394 2647 3120 
Q 2991 2847 3088 2344 
L 2541 2259 
Q 2463 2594 2264 2762 
Q 2066 2931 1784 2931 
Q 1359 2931 1093 2626 
Q 828 2322 828 1663 
Q 828 994 1084 691 
Q 1341 388 1753 388 
Q 2084 388 2306 591 
Q 2528 794 2588 1216 
z
" transform="scale(0.015625)"/>
       <path id="ArialMT-74" d="M 1650 503 
L 1731 6 
Q 1494 -44 1306 -44 
Q 1000 -44 831 53 
Q 663 150 594 308 
Q 525 466 525 972 
L 525 2881 
L 113 2881 
L 113 3319 
L 525 3319 
L 525 4141 
L 1084 4478 
L 1084 3319 
L 1650 3319 
L 1650 2881 
L 1084 2881 
L 1084 941 
Q 1084 700 1114 631 
Q 1144 563 1211 522 
Q 1278 481 1403 481 
Q 1497 481 1650 503 
z
" transform="scale(0.015625)"/>
      </defs>
      <use xlink:href="#ArialMT-45"/>
      <use xlink:href="#ArialMT-78" x="66.699219"/>
      <use xlink:href="#ArialMT-61" x="116.699219"/>
      <use xlink:href="#ArialMT-63" x="172.314453"/>
      <use xlink:href="#ArialMT-74" x="222.314453"/>
     </g>
    </g>
   </g>
  </g>
  <g id="axes_2">
   <g id="patch_7">
    <path d="M 26.372093 235.46 
L 130.186047 235.46 
L 130.186047 127.28439 
L 26.372093 127.28439 
L 26.372093 235.46 
z
" style="fill: none"/>
   </g>
   <g id="matplotlib.axis_3">
    <g id="xtick_4">
     <g id="line2d_15">
      <g>
       <use xlink:href="#m70815dcea1" x="31.090909" y="235.46" style="fill: #262626; stroke: #262626; stroke-width: 0.5"/>
      </g>
     </g>
     <g id="text_8">
      <!-- 0.0 -->
      <g style="fill: #262626" transform="translate(25.530909 248.18625) scale(0.08 -0.08)">
       <defs>
        <path id="ArialMT-2e" d="M 581 0 
L 581 641 
L 1222 641 
L 1222 0 
L 581 0 
z
" transform="scale(0.015625)"/>
       </defs>
       <use xlink:href="#ArialMT-30"/>
       <use xlink:href="#ArialMT-2e" x="55.615234"/>
       <use xlink:href="#ArialMT-30" x="83.398438"/>
      </g>
     </g>
    </g>
    <g id="xtick_5">
     <g id="line2d_16">
      <g>
       <use xlink:href="#m70815dcea1" x="78.27907" y="235.46" style="fill: #262626; stroke: #262626; stroke-width: 0.5"/>
      </g>
     </g>
     <g id="text_9">
      <!-- 2.5 -->
      <g style="fill: #262626" transform="translate(72.71907 248.18625) scale(0.08 -0.08)">
       <defs>
        <path id="ArialMT-32" d="M 3222 541 
L 3222 0 
L 194 0 
Q 188 203 259 391 
Q 375 700 629 1000 
Q 884 1300 1366 1694 
Q 2113 2306 2375 2664 
Q 2638 3022 2638 3341 
Q 2638 3675 2398 3904 
Q 2159 4134 1775 4134 
Q 1369 4134 1125 3890 
Q 881 3647 878 3216 
L 300 3275 
Q 359 3922 746 4261 
Q 1134 4600 1788 4600 
Q 2447 4600 2831 4234 
Q 3216 3869 3216 3328 
Q 3216 3053 3103 2787 
Q 2991 2522 2730 2228 
Q 2469 1934 1863 1422 
Q 1356 997 1212 845 
Q 1069 694 975 541 
L 3222 541 
z
" transform="scale(0.015625)"/>
        <path id="ArialMT-35" d="M 266 1200 
L 856 1250 
Q 922 819 1161 601 
Q 1400 384 1738 384 
Q 2144 384 2425 690 
Q 2706 997 2706 1503 
Q 2706 1984 2436 2262 
Q 2166 2541 1728 2541 
Q 1456 2541 1237 2417 
Q 1019 2294 894 2097 
L 366 2166 
L 809 4519 
L 3088 4519 
L 3088 3981 
L 1259 3981 
L 1013 2750 
Q 1425 3038 1878 3038 
Q 2478 3038 2890 2622 
Q 3303 2206 3303 1553 
Q 3303 931 2941 478 
Q 2500 -78 1738 -78 
Q 1113 -78 717 272 
Q 322 622 266 1200 
z
" transform="scale(0.015625)"/>
       </defs>
       <use xlink:href="#ArialMT-32"/>
       <use xlink:href="#ArialMT-2e" x="55.615234"/>
       <use xlink:href="#ArialMT-35" x="83.398438"/>
      </g>
     </g>
    </g>
    <g id="xtick_6">
     <g id="line2d_17">
      <g>
       <use xlink:href="#m70815dcea1" x="125.46723" y="235.46" style="fill: #262626; stroke: #262626; stroke-width: 0.5"/>
      </g>
     </g>
     <g id="text_10">
      <!-- 5.0 -->
      <g style="fill: #262626" transform="translate(119.90723 248.18625) scale(0.08 -0.08)">
       <use xlink:href="#ArialMT-35"/>
       <use xlink:href="#ArialMT-2e" x="55.615234"/>
       <use xlink:href="#ArialMT-30" x="83.398438"/>
      </g>
     </g>
    </g>
    <g id="text_11">
     <!-- $t$ (ms) -->
     <g style="fill: #262626" transform="translate(64.92907 258.986341) scale(0.1 -0.1)">
      <defs>
       <path id="DejaVuSans-Oblique-74" d="M 2706 3500 
L 2619 3053 
L 1472 3053 
L 1100 1153 
Q 1081 1047 1072 975 
Q 1063 903 1063 863 
Q 1063 663 1183 572 
Q 1303 481 1569 481 
L 2150 481 
L 2053 0 
L 1503 0 
Q 991 0 739 200 
Q 488 400 488 806 
Q 488 878 497 964 
Q 506 1050 525 1153 
L 897 3053 
L 409 3053 
L 500 3500 
L 978 3500 
L 1172 4494 
L 1747 4494 
L 1556 3500 
L 2706 3500 
z
" transform="scale(0.015625)"/>
       <path id="ArialMT-20" transform="scale(0.015625)"/>
       <path id="ArialMT-28" d="M 1497 -1347 
Q 1031 -759 709 28 
Q 388 816 388 1659 
Q 388 2403 628 3084 
Q 909 3875 1497 4659 
L 1900 4659 
Q 1522 4009 1400 3731 
Q 1209 3300 1100 2831 
Q 966 2247 966 1656 
Q 966 153 1900 -1347 
L 1497 -1347 
z
" transform="scale(0.015625)"/>
       <path id="ArialMT-73" d="M 197 991 
L 753 1078 
Q 800 744 1014 566 
Q 1228 388 1613 388 
Q 2000 388 2187 545 
Q 2375 703 2375 916 
Q 2375 1106 2209 1216 
Q 2094 1291 1634 1406 
Q 1016 1563 777 1677 
Q 538 1791 414 1992 
Q 291 2194 291 2438 
Q 291 2659 392 2848 
Q 494 3038 669 3163 
Q 800 3259 1026 3326 
Q 1253 3394 1513 3394 
Q 1903 3394 2198 3281 
Q 2494 3169 2634 2976 
Q 2775 2784 2828 2463 
L 2278 2388 
Q 2241 2644 2061 2787 
Q 1881 2931 1553 2931 
Q 1166 2931 1000 2803 
Q 834 2675 834 2503 
Q 834 2394 903 2306 
Q 972 2216 1119 2156 
Q 1203 2125 1616 2013 
Q 2213 1853 2448 1751 
Q 2684 1650 2818 1456 
Q 2953 1263 2953 975 
Q 2953 694 2789 445 
Q 2625 197 2315 61 
Q 2006 -75 1616 -75 
Q 969 -75 630 194 
Q 291 463 197 991 
z
" transform="scale(0.015625)"/>
       <path id="ArialMT-29" d="M 791 -1347 
L 388 -1347 
Q 1322 153 1322 1656 
Q 1322 2244 1188 2822 
Q 1081 3291 891 3722 
Q 769 4003 388 4659 
L 791 4659 
Q 1378 3875 1659 3084 
Q 1900 2403 1900 1659 
Q 1900 816 1576 28 
Q 1253 -759 791 -1347 
z
" transform="scale(0.015625)"/>
      </defs>
      <use xlink:href="#DejaVuSans-Oblique-74" transform="translate(0 0.203125)"/>
      <use xlink:href="#ArialMT-20" transform="translate(39.208984 0.203125)"/>
      <use xlink:href="#ArialMT-28" transform="translate(66.992188 0.203125)"/>
      <use xlink:href="#ArialMT-6d" transform="translate(100.292969 0.203125)"/>
      <use xlink:href="#ArialMT-73" transform="translate(183.59375 0.203125)"/>
      <use xlink:href="#ArialMT-29" transform="translate(233.59375 0.203125)"/>
     </g>
    </g>
   </g>
   <g id="matplotlib.axis_4">
    <g id="ytick_3">
     <g id="line2d_18">
      <g>
       <use xlink:href="#maaed2908e2" x="26.372093" y="232.88439" style="fill: #262626; stroke: #262626; stroke-width: 0.5"/>
      </g>
     </g>
     <g id="text_12">
      <!-- -1 -->
      <g style="fill: #262626" transform="translate(12.259593 235.747515) scale(0.08 -0.08)">
       <defs>
        <path id="ArialMT-2d" d="M 203 1375 
L 203 1941 
L 1931 1941 
L 1931 1375 
L 203 1375 
z
" transform="scale(0.015625)"/>
       </defs>
       <use xlink:href="#ArialMT-2d"/>
       <use xlink:href="#ArialMT-31" x="33.300781"/>
      </g>
     </g>
    </g>
    <g id="ytick_4">
     <g id="line2d_19">
      <g>
       <use xlink:href="#maaed2908e2" x="26.372093" y="181.372195" style="fill: #262626; stroke: #262626; stroke-width: 0.5"/>
      </g>
     </g>
     <g id="text_13">
      <!-- 0 -->
      <g style="fill: #262626" transform="translate(14.923343 184.23532) scale(0.08 -0.08)">
       <use xlink:href="#ArialMT-30"/>
      </g>
     </g>
    </g>
    <g id="ytick_5">
     <g id="line2d_20">
      <g>
       <use xlink:href="#maaed2908e2" x="26.372093" y="129.86" style="fill: #262626; stroke: #262626; stroke-width: 0.5"/>
      </g>
     </g>
     <g id="text_14">
      <!-- 1 -->
      <g style="fill: #262626" transform="translate(14.923343 132.723125) scale(0.08 -0.08)">
       <use xlink:href="#ArialMT-31"/>
      </g>
     </g>
    </g>
    <g id="text_15">
     <!-- $M_{z}/|M|$ -->
     <g style="fill: #262626" transform="translate(8.4 197.072195) rotate(-90) scale(0.1 -0.1)">
      <defs>
       <path id="DejaVuSans-Oblique-7a" d="M 744 3500 
L 3475 3500 
L 3372 2975 
L 738 459 
L 2913 459 
L 2822 0 
L -19 0 
L 84 525 
L 2719 3041 
L 653 3041 
L 744 3500 
z
" transform="scale(0.015625)"/>
      </defs>
      <use xlink:href="#DejaVuSans-Oblique-4d" transform="translate(0 0.578125)"/>
      <use xlink:href="#DejaVuSans-Oblique-7a" transform="translate(86.279297 -15.828125) scale(0.7)"/>
      <use xlink:href="#DejaVuSans-2f" transform="translate(125.756836 0.578125)"/>
      <use xlink:href="#DejaVuSans-7c" transform="translate(159.448242 0.578125)"/>
      <use xlink:href="#DejaVuSans-Oblique-4d" transform="translate(193.139648 0.578125)"/>
      <use xlink:href="#DejaVuSans-7c" transform="translate(279.418945 0.578125)"/>
     </g>
    </g>
   </g>
   <g id="PolyCollection_4"/>
   <g id="PolyCollection_5"/>
   <g id="PolyCollection_6"/>
   <g id="line2d_21">
    <path d="M 31.090909 129.86 
L 35.43222 129.970277 
L 38.546638 130.260058 
L 41.094799 130.716168 
L 43.265455 131.332258 
L 45.152981 132.09922 
L 46.851755 133.02712 
L 48.456152 134.161536 
L 49.966173 135.508093 
L 51.381818 137.06353 
L 52.797463 138.951817 
L 54.213108 141.225512 
L 55.628753 143.940218 
L 57.044397 147.152456 
L 58.460042 150.916423 
L 59.970063 155.592445 
L 61.480085 160.990289 
L 63.178858 167.939853 
L 65.066385 176.692901 
L 67.331416 188.350026 
L 72.710867 216.575297 
L 74.126512 222.645974 
L 75.259027 226.656795 
L 76.297167 229.536725 
L 77.146554 231.260503 
L 77.807188 232.182121 
L 78.373446 232.670671 
L 78.939704 232.87699 
L 79.411586 232.832754 
L 79.977844 232.522072 
L 80.544101 231.935005 
L 81.204736 230.911076 
L 81.959746 229.314554 
L 82.90351 226.726833 
L 83.941649 223.205785 
L 85.262918 217.880996 
L 86.961691 210.034907 
L 90.264863 193.430789 
L 93.096152 179.732069 
L 95.172431 170.764084 
L 96.965581 163.947018 
L 98.664355 158.315704 
L 100.268753 153.714372 
L 101.87315 149.762582 
L 103.477548 146.400026 
L 105.081945 143.560585 
L 106.686342 141.177837 
L 108.29074 139.188561 
L 109.989514 137.446772 
L 111.688288 136.019826 
L 113.481438 134.796411 
L 115.46334 133.719407 
L 117.633996 132.80356 
L 119.993404 132.050145 
L 122.730317 131.412477 
L 125.46723 130.959479 
L 125.46723 130.959479 
" clip-path="url(#pcde0bfe202)" style="fill: none; stroke: #a3a3a3; stroke-linecap: round"/>
   </g>
   <g id="line2d_22">
    <path d="M 31.090909 130.959479 
L 34.39408 131.527177 
L 37.130994 132.211422 
L 39.490402 133.019464 
L 41.566681 133.952808 
L 43.454207 135.032529 
L 45.247357 136.312569 
L 46.946131 137.804594 
L 48.550529 139.513657 
L 50.06055 141.436557 
L 51.570571 143.714329 
L 53.080592 146.400025 
L 54.590613 149.549104 
L 56.100634 153.216817 
L 57.705032 157.738964 
L 59.309429 162.952742 
L 61.008203 169.254835 
L 62.895729 177.179481 
L 65.066385 187.335053 
L 72.050233 221.026847 
L 73.371501 225.832324 
L 74.409641 228.847769 
L 75.259027 230.735856 
L 76.014038 231.935005 
L 76.674672 232.59321 
L 77.24093 232.857285 
L 77.712812 232.862269 
L 78.184693 232.670671 
L 78.750951 232.182121 
L 79.411586 231.260503 
L 80.166596 229.757298 
L 81.015983 227.522335 
L 82.054123 224.075622 
L 83.281015 219.126859 
L 84.791036 212.023416 
L 87.056068 200.115565 
L 91.397378 177.156347 
L 93.379281 167.939852 
L 95.172431 160.631361 
L 96.776829 154.969078 
L 98.381226 150.117078 
L 99.891247 146.244068 
L 101.401268 142.982814 
L 102.91129 140.266274 
L 104.326934 138.153281 
L 105.836956 136.299284 
L 107.346977 134.797764 
L 108.951374 133.52646 
L 110.555772 132.531578 
L 112.348922 131.684917 
L 114.330825 131.006722 
L 116.50148 130.500702 
L 119.049641 130.136489 
L 122.258436 129.91595 
L 125.46723 129.86 
L 125.46723 129.86 
" clip-path="url(#pcde0bfe202)" style="fill: none; stroke: #ff7c00; stroke-linecap: round"/>
   </g>
   <g id="line2d_23">
    <path d="M 31.090909 129.86 
L 35.43222 129.970277 
L 38.546638 130.260058 
L 41.094799 130.716168 
L 43.265455 131.332258 
L 45.152981 132.09922 
L 46.851755 133.02712 
L 48.456152 134.161536 
L 49.966173 135.508093 
L 51.381818 137.06353 
L 52.797463 138.951816 
L 54.213108 141.225512 
L 55.628753 143.940217 
L 57.044397 147.152456 
L 58.460042 150.916422 
L 59.970063 155.592444 
L 61.480085 160.990288 
L 63.178858 167.939852 
L 65.066385 176.6929 
L 67.331416 188.350024 
L 72.710867 216.575297 
L 74.126512 222.645973 
L 75.259027 226.656795 
L 76.297167 229.536725 
L 77.146554 231.260503 
L 77.807188 232.182121 
L 78.373446 232.670671 
L 78.939704 232.87699 
L 79.411586 232.832754 
L 79.977844 232.522072 
L 80.544101 231.935005 
L 81.204736 230.911075 
L 81.959746 229.314554 
L 82.90351 226.726833 
L 83.941649 223.205784 
L 85.262918 217.880995 
L 86.961691 210.034906 
L 90.264863 193.430787 
L 93.096152 179.732067 
L 95.172431 170.764083 
L 96.965581 163.947017 
L 98.664355 158.315702 
L 100.268753 153.71437 
L 101.87315 149.762581 
L 103.477548 146.400025 
L 105.081945 143.560584 
L 106.686342 141.177836 
L 108.29074 139.18856 
L 109.989514 137.446771 
L 111.688288 136.019825 
L 113.481438 134.796411 
L 115.46334 133.719406 
L 117.633996 132.80356 
L 119.993404 132.050145 
L 122.730317 131.412476 
L 125.46723 130.959479 
L 125.46723 130.959479 
" clip-path="url(#pcde0bfe202)" style="fill: none; stroke: #023eff; stroke-linecap: round"/>
   </g>
   <g id="patch_8">
    <path d="M 26.372093 235.46 
L 26.372093 127.28439 
" style="fill: none; stroke: #262626; stroke-width: 0.5; stroke-linejoin: miter; stroke-linecap: square"/>
   </g>
   <g id="patch_9">
    <path d="M 130.186047 235.46 
L 130.186047 127.28439 
" style="fill: none; stroke: #262626; stroke-width: 0.5; stroke-linejoin: miter; stroke-linecap: square"/>
   </g>
   <g id="patch_10">
    <path d="M 26.372093 235.46 
L 130.186047 235.46 
" style="fill: none; stroke: #262626; stroke-width: 0.5; stroke-linejoin: miter; stroke-linecap: square"/>
   </g>
   <g id="patch_11">
    <path d="M 26.372093 127.28439 
L 130.186047 127.28439 
" style="fill: none; stroke: #262626; stroke-width: 0.5; stroke-linejoin: miter; stroke-linecap: square"/>
   </g>
  </g>
  <g id="axes_3">
   <g id="patch_12">
    <path d="M 140.567442 121.87561 
L 244.381395 121.87561 
L 244.381395 13.7 
L 140.567442 13.7 
L 140.567442 121.87561 
z
" style="fill: none"/>
   </g>
   <g id="matplotlib.axis_5">
    <g id="xtick_7">
     <g id="line2d_24">
      <g>
       <use xlink:href="#m70815dcea1" x="145.286258" y="121.87561" style="fill: #262626; stroke: #262626; stroke-width: 0.5"/>
      </g>
     </g>
    </g>
    <g id="xtick_8">
     <g id="line2d_25">
      <g>
       <use xlink:href="#m70815dcea1" x="192.474419" y="121.87561" style="fill: #262626; stroke: #262626; stroke-width: 0.5"/>
      </g>
     </g>
    </g>
    <g id="xtick_9">
     <g id="line2d_26">
      <g>
       <use xlink:href="#m70815dcea1" x="239.662579" y="121.87561" style="fill: #262626; stroke: #262626; stroke-width: 0.5"/>
      </g>
     </g>
    </g>
   </g>
   <g id="matplotlib.axis_6">
    <g id="ytick_6">
     <g id="line2d_27">
      <g>
       <use xlink:href="#maaed2908e2" x="140.567442" y="116.958537" style="fill: #262626; stroke: #262626; stroke-width: 0.5"/>
      </g>
     </g>
    </g>
    <g id="ytick_7">
     <g id="line2d_28">
      <g>
       <use xlink:href="#maaed2908e2" x="140.567442" y="18.617073" style="fill: #262626; stroke: #262626; stroke-width: 0.5"/>
      </g>
     </g>
    </g>
   </g>
   <g id="PolyCollection_7"/>
   <g id="PolyCollection_8"/>
   <g id="PolyCollection_9"/>
   <g id="line2d_29">
    <path d="M 145.286258 116.958537 
L 148.117548 116.217079 
L 150.571332 115.353756 
L 152.741987 114.364794 
L 154.72389 113.225902 
L 156.611416 111.879405 
L 158.31019 110.399401 
L 159.914588 108.719533 
L 161.518985 106.712158 
L 163.029006 104.468552 
L 164.539027 101.8207 
L 166.049049 98.700812 
L 167.55907 95.033174 
L 169.069091 90.735685 
L 170.579112 85.723558 
L 172.089133 79.91668 
L 173.693531 72.807162 
L 175.392304 64.201341 
L 177.374207 52.90451 
L 181.904271 26.417829 
L 182.848034 22.365325 
L 183.603044 20.034401 
L 184.169302 18.972773 
L 184.546808 18.650914 
L 184.829937 18.634968 
L 185.113066 18.827316 
L 185.490571 19.430823 
L 185.962452 20.785747 
L 186.434334 22.859611 
L 187.000592 26.365275 
L 187.661226 31.938235 
L 188.416237 40.329854 
L 189.265624 52.325469 
L 190.303763 70.342918 
L 191.719408 99.371616 
L 192.474419 115.96673 
L 192.568795 115.861652 
L 194.645074 72.098914 
L 195.871966 50.888847 
L 196.815729 38.097745 
L 197.665116 29.440842 
L 198.420127 23.993017 
L 199.080761 20.860667 
L 199.552643 19.484322 
L 200.024524 18.763502 
L 200.40203 18.618881 
L 200.685159 18.741775 
L 201.062664 19.188584 
L 201.534545 20.157377 
L 202.100803 21.84217 
L 202.855814 24.812824 
L 203.893953 29.889667 
L 205.498351 39.021078 
L 209.556533 62.538148 
L 211.349683 71.484941 
L 213.048457 78.852103 
L 214.652854 84.840323 
L 216.257252 89.960954 
L 217.767273 94.072134 
L 219.277294 97.580486 
L 220.787315 100.565033 
L 222.391712 103.243225 
L 223.99611 105.489394 
L 225.600507 107.37092 
L 227.299281 109.029825 
L 229.092431 110.471791 
L 230.979958 111.70804 
L 233.056237 112.798059 
L 235.321268 113.731063 
L 237.869429 114.533212 
L 239.662579 114.975024 
L 239.662579 114.975024 
" clip-path="url(#p1cc0ffa5a7)" style="fill: none; stroke: #a3a3a3; stroke-linecap: round"/>
   </g>
   <g id="line2d_30">
    <path d="M 145.286258 114.975025 
L 148.117548 114.233774 
L 150.571332 113.370835 
L 152.741987 112.3825 
L 154.72389 111.244579 
L 156.611416 109.899574 
L 158.31019 108.421641 
L 159.914588 106.744671 
L 161.518985 104.741527 
L 163.029006 102.503644 
L 164.539027 99.863909 
L 166.049049 96.755499 
L 167.55907 93.10405 
L 169.069091 88.829327 
L 170.579112 83.849111 
L 172.089133 78.086794 
L 173.693531 71.043776 
L 175.392304 62.538153 
L 177.374207 51.412489 
L 181.715518 26.547483 
L 182.659281 22.514268 
L 183.414292 20.157379 
L 183.98055 19.048056 
L 184.358055 18.679771 
L 184.641184 18.620992 
L 184.924313 18.763501 
L 185.301818 19.289574 
L 185.679323 20.227801 
L 186.151205 22.024393 
L 186.717463 25.162536 
L 187.378097 30.268657 
L 188.133108 38.09774 
L 188.982495 49.463397 
L 190.020634 66.793763 
L 191.341903 93.189982 
L 192.474419 115.96673 
L 194.645074 70.342915 
L 195.77759 50.863536 
L 196.721353 38.028624 
L 197.57074 29.34978 
L 198.325751 23.901669 
L 198.986385 20.785746 
L 199.458266 19.430822 
L 199.835772 18.827316 
L 200.213277 18.617806 
L 200.496406 18.70018 
L 200.873911 19.10356 
L 201.345793 20.034403 
L 201.912051 21.695966 
L 202.667061 24.66929 
L 203.705201 29.801216 
L 205.309598 39.098266 
L 209.462156 63.691866 
L 211.255307 72.807165 
L 212.95408 80.304218 
L 214.558478 86.392001 
L 216.162875 91.593352 
L 217.672896 95.766293 
L 219.182918 99.325132 
L 220.692939 102.350972 
L 222.297336 105.064886 
L 223.901734 107.340018 
L 225.506131 109.245091 
L 227.204905 110.924203 
L 228.998055 112.383307 
L 230.885581 113.633926 
L 232.96186 114.736367 
L 235.226892 115.679815 
L 237.775053 116.490802 
L 239.662579 116.958537 
L 239.662579 116.958537 
" clip-path="url(#p1cc0ffa5a7)" style="fill: none; stroke: #ffc400; stroke-linecap: round"/>
   </g>
   <g id="line2d_31">
    <path d="M 145.286258 116.958537 
L 148.117548 116.217079 
L 150.571332 115.353756 
L 152.741987 114.364794 
L 154.72389 113.225902 
L 156.611416 111.879406 
L 158.31019 110.399402 
L 159.914588 108.719534 
L 161.518985 106.712159 
L 163.029006 104.468553 
L 164.539027 101.820701 
L 166.049049 98.700813 
L 167.55907 95.033176 
L 169.069091 90.735688 
L 170.579112 85.723561 
L 172.089133 79.916684 
L 173.693531 72.807165 
L 175.392304 64.201345 
L 177.374207 52.904514 
L 181.904271 26.417832 
L 182.848034 22.365327 
L 183.603044 20.034403 
L 184.169302 18.972774 
L 184.546808 18.650915 
L 184.829937 18.634968 
L 185.113066 18.827316 
L 185.490571 19.430822 
L 185.962452 20.785746 
L 186.434334 22.859609 
L 187.000592 26.365272 
L 187.661226 31.938231 
L 188.416237 40.32985 
L 189.265624 52.325464 
L 190.303763 70.342915 
L 191.719408 99.371615 
L 192.474419 115.96673 
L 192.568795 115.861652 
L 194.645074 72.09891 
L 195.871966 50.888843 
L 196.815729 38.09774 
L 197.665116 29.440838 
L 198.420127 23.993014 
L 199.080761 20.860665 
L 199.552643 19.48432 
L 200.024524 18.763501 
L 200.40203 18.618881 
L 200.685159 18.741775 
L 201.062664 19.188585 
L 201.534545 20.157379 
L 202.100803 21.842172 
L 202.855814 24.812827 
L 203.893953 29.889671 
L 205.498351 39.021083 
L 209.556533 62.538153 
L 211.349683 71.484945 
L 213.048457 78.852106 
L 214.652854 84.840326 
L 216.257252 89.960957 
L 217.767273 94.072137 
L 219.277294 97.580488 
L 220.787315 100.565035 
L 222.391712 103.243227 
L 223.99611 105.489395 
L 225.600507 107.370922 
L 227.299281 109.029826 
L 229.092431 110.471792 
L 230.979958 111.70804 
L 233.056237 112.79806 
L 235.321268 113.731064 
L 237.869429 114.533212 
L 239.662579 114.975025 
L 239.662579 114.975025 
" clip-path="url(#p1cc0ffa5a7)" style="fill: none; stroke: #1ac938; stroke-linecap: round"/>
   </g>
   <g id="line2d_32"/>
   <g id="line2d_33"/>
   <g id="line2d_34"/>
   <g id="patch_13">
    <path d="M 140.567442 121.87561 
L 140.567442 13.7 
" style="fill: none; stroke: #262626; stroke-width: 0.5; stroke-linejoin: miter; stroke-linecap: square"/>
   </g>
   <g id="patch_14">
    <path d="M 244.381395 121.87561 
L 244.381395 13.7 
" style="fill: none; stroke: #262626; stroke-width: 0.5; stroke-linejoin: miter; stroke-linecap: square"/>
   </g>
   <g id="patch_15">
    <path d="M 140.567442 121.87561 
L 244.381395 121.87561 
" style="fill: none; stroke: #262626; stroke-width: 0.5; stroke-linejoin: miter; stroke-linecap: square"/>
   </g>
   <g id="patch_16">
    <path d="M 140.567442 13.7 
L 244.381395 13.7 
" style="fill: none; stroke: #262626; stroke-width: 0.5; stroke-linejoin: miter; stroke-linecap: square"/>
   </g>
   <g id="text_16">
    <!-- $\operatorname{sech}\beta = 0.01$ -->
    <g style="fill: #262626" transform="translate(159.574419 7.7) scale(0.1 -0.1)">
     <use xlink:href="#DejaVuSans-73" transform="translate(0 0.390625)"/>
     <use xlink:href="#DejaVuSans-65" transform="translate(52.099609 0.390625)"/>
     <use xlink:href="#DejaVuSans-63" transform="translate(113.623047 0.390625)"/>
     <use xlink:href="#DejaVuSans-68" transform="translate(168.603516 0.390625)"/>
     <use xlink:href="#DejaVuSans-Oblique-3b2" transform="translate(248.218098 0.390625)"/>
     <use xlink:href="#DejaVuSans-3d" transform="translate(331.518879 0.390625)"/>
     <use xlink:href="#DejaVuSans-30" transform="translate(434.790364 0.390625)"/>
     <use xlink:href="#DejaVuSans-2e" transform="translate(498.413411 0.390625)"/>
     <use xlink:href="#DejaVuSans-30" transform="translate(530.20052 0.390625)"/>
     <use xlink:href="#DejaVuSans-31" transform="translate(593.823567 0.390625)"/>
    </g>
   </g>
   <g id="legend_2">
    <g id="line2d_35">
     <path d="M 171.270669 87.65311 
L 179.270669 87.65311 
L 187.270669 87.65311 
" style="fill: none; stroke: #a3a3a3; stroke-width: 1.5; stroke-linecap: round"/>
    </g>
    <g id="text_17">
     <!-- Sim -->
     <g style="fill: #262626" transform="translate(193.670669 90.45311) scale(0.08 -0.08)">
      <use xlink:href="#ArialMT-53"/>
      <use xlink:href="#ArialMT-69" x="66.699219"/>
      <use xlink:href="#ArialMT-6d" x="88.916016"/>
     </g>
    </g>
    <g id="line2d_36">
     <path d="M 171.270669 98.96936 
L 179.270669 98.96936 
L 187.270669 98.96936 
" style="fill: none; stroke: #ffc400; stroke-width: 1.5; stroke-linecap: round"/>
    </g>
    <g id="text_18">
     <!-- SIT -->
     <g style="fill: #262626" transform="translate(193.670669 101.76936) scale(0.08 -0.08)">
      <use xlink:href="#ArialMT-53"/>
      <use xlink:href="#ArialMT-49" x="66.699219"/>
      <use xlink:href="#ArialMT-54" x="94.482422"/>
     </g>
    </g>
    <g id="line2d_37">
     <path d="M 171.270669 110.28561 
L 179.270669 110.28561 
L 187.270669 110.28561 
" style="fill: none; stroke: #1ac938; stroke-width: 1.5; stroke-linecap: round"/>
    </g>
    <g id="text_19">
     <!-- Exact -->
     <g style="fill: #262626" transform="translate(193.670669 113.08561) scale(0.08 -0.08)">
      <use xlink:href="#ArialMT-45"/>
      <use xlink:href="#ArialMT-78" x="66.699219"/>
      <use xlink:href="#ArialMT-61" x="116.699219"/>
      <use xlink:href="#ArialMT-63" x="172.314453"/>
      <use xlink:href="#ArialMT-74" x="222.314453"/>
     </g>
    </g>
   </g>
  </g>
  <g id="axes_4">
   <g id="patch_17">
    <path d="M 140.567442 235.46 
L 244.381395 235.46 
L 244.381395 127.28439 
L 140.567442 127.28439 
L 140.567442 235.46 
z
" style="fill: none"/>
   </g>
   <g id="matplotlib.axis_7">
    <g id="xtick_10">
     <g id="line2d_38">
      <g>
       <use xlink:href="#m70815dcea1" x="145.286258" y="235.46" style="fill: #262626; stroke: #262626; stroke-width: 0.5"/>
      </g>
     </g>
     <g id="text_20">
      <!-- 0.0 -->
      <g style="fill: #262626" transform="translate(139.726258 248.18625) scale(0.08 -0.08)">
       <use xlink:href="#ArialMT-30"/>
       <use xlink:href="#ArialMT-2e" x="55.615234"/>
       <use xlink:href="#ArialMT-30" x="83.398438"/>
      </g>
     </g>
    </g>
    <g id="xtick_11">
     <g id="line2d_39">
      <g>
       <use xlink:href="#m70815dcea1" x="192.474419" y="235.46" style="fill: #262626; stroke: #262626; stroke-width: 0.5"/>
      </g>
     </g>
     <g id="text_21">
      <!-- 2.5 -->
      <g style="fill: #262626" transform="translate(186.914419 248.18625) scale(0.08 -0.08)">
       <use xlink:href="#ArialMT-32"/>
       <use xlink:href="#ArialMT-2e" x="55.615234"/>
       <use xlink:href="#ArialMT-35" x="83.398438"/>
      </g>
     </g>
    </g>
    <g id="xtick_12">
     <g id="line2d_40">
      <g>
       <use xlink:href="#m70815dcea1" x="239.662579" y="235.46" style="fill: #262626; stroke: #262626; stroke-width: 0.5"/>
      </g>
     </g>
     <g id="text_22">
      <!-- 5.0 -->
      <g style="fill: #262626" transform="translate(234.102579 248.18625) scale(0.08 -0.08)">
       <use xlink:href="#ArialMT-35"/>
       <use xlink:href="#ArialMT-2e" x="55.615234"/>
       <use xlink:href="#ArialMT-30" x="83.398438"/>
      </g>
     </g>
    </g>
    <g id="text_23">
     <!-- $t$ (ms) -->
     <g style="fill: #262626" transform="translate(179.124419 258.986341) scale(0.1 -0.1)">
      <use xlink:href="#DejaVuSans-Oblique-74" transform="translate(0 0.203125)"/>
      <use xlink:href="#ArialMT-20" transform="translate(39.208984 0.203125)"/>
      <use xlink:href="#ArialMT-28" transform="translate(66.992188 0.203125)"/>
      <use xlink:href="#ArialMT-6d" transform="translate(100.292969 0.203125)"/>
      <use xlink:href="#ArialMT-73" transform="translate(183.59375 0.203125)"/>
      <use xlink:href="#ArialMT-29" transform="translate(233.59375 0.203125)"/>
     </g>
    </g>
   </g>
   <g id="matplotlib.axis_8">
    <g id="ytick_8">
     <g id="line2d_41">
      <g>
       <use xlink:href="#maaed2908e2" x="140.567442" y="232.88439" style="fill: #262626; stroke: #262626; stroke-width: 0.5"/>
      </g>
     </g>
    </g>
    <g id="ytick_9">
     <g id="line2d_42">
      <g>
       <use xlink:href="#maaed2908e2" x="140.567442" y="181.372195" style="fill: #262626; stroke: #262626; stroke-width: 0.5"/>
      </g>
     </g>
    </g>
    <g id="ytick_10">
     <g id="line2d_43">
      <g>
       <use xlink:href="#maaed2908e2" x="140.567442" y="129.86" style="fill: #262626; stroke: #262626; stroke-width: 0.5"/>
      </g>
     </g>
    </g>
   </g>
   <g id="PolyCollection_10"/>
   <g id="PolyCollection_11"/>
   <g id="PolyCollection_12"/>
   <g id="line2d_44">
    <path d="M 145.286258 129.86 
L 158.121438 129.968536 
L 162.368372 130.211106 
L 165.199662 130.584935 
L 167.275941 131.070299 
L 168.974715 131.68351 
L 170.484736 132.468798 
L 171.806004 133.412855 
L 173.032896 134.575363 
L 174.165412 135.963235 
L 175.297928 137.73258 
L 176.336068 139.768506 
L 177.374207 142.285596 
L 178.412347 145.376538 
L 179.450486 149.14059 
L 180.583002 154.131203 
L 181.715518 160.155146 
L 182.94241 167.930888 
L 184.358055 178.495121 
L 186.151205 193.80862 
L 188.982495 218.115586 
L 190.020634 225.13936 
L 190.870021 229.412723 
L 191.530655 231.619215 
L 192.002537 232.536797 
L 192.380042 232.859119 
L 192.663171 232.857369 
L 192.9463 232.646884 
L 193.323805 232.044882 
L 193.795687 230.789183 
L 194.361945 228.582697 
L 195.116956 224.569664 
L 196.060719 218.133684 
L 197.381987 207.337614 
L 201.440169 172.983743 
L 202.855814 163.377138 
L 204.082706 156.440622 
L 205.309598 150.734142 
L 206.442114 146.445986 
L 207.57463 142.970282 
L 208.707146 140.180352 
L 209.839662 137.957838 
L 210.972178 136.197805 
L 212.19907 134.709197 
L 213.425962 133.563595 
L 214.74723 132.626393 
L 216.257252 131.839159 
L 217.956025 131.216124 
L 219.937928 130.731434 
L 222.486089 130.352916 
L 225.883636 130.090309 
L 231.16871 129.930426 
L 239.662579 129.870479 
L 239.662579 129.870479 
" clip-path="url(#pe5270963e3)" style="fill: none; stroke: #a3a3a3; stroke-linecap: round"/>
   </g>
   <g id="line2d_45">
    <path d="M 145.286258 129.870479 
L 157.083298 130.007704 
L 161.613362 130.267567 
L 164.539027 130.644232 
L 166.709683 131.133183 
L 168.502833 131.757861 
L 170.012854 132.513182 
L 171.334123 133.412709 
L 172.561015 134.512732 
L 173.693531 135.819199 
L 174.826047 137.47824 
L 175.864186 139.381952 
L 176.902326 141.731526 
L 177.940465 144.614597 
L 178.978605 148.126626 
L 180.111121 152.790722 
L 181.243636 158.439252 
L 182.470529 165.771212 
L 183.791797 175.105488 
L 185.396195 188.198232 
L 189.36 221.523753 
L 190.303763 227.212734 
L 191.058774 230.473052 
L 191.625032 232.044882 
L 192.096913 232.740162 
L 192.380042 232.881186 
L 192.663171 232.813248 
L 192.9463 232.536797 
L 193.323805 231.847762 
L 193.795687 230.485824 
L 194.361945 228.157444 
L 195.116956 223.994871 
L 196.060719 217.39839 
L 197.381987 206.434993 
L 201.251416 173.363196 
L 202.667061 163.580101 
L 203.893953 156.510111 
L 205.120846 150.69584 
L 206.253362 146.332089 
L 207.385877 142.802053 
L 208.518393 139.976119 
L 209.650909 137.732579 
L 210.783425 135.963234 
L 211.915941 134.575363 
L 213.142833 133.412855 
L 214.464101 132.468798 
L 215.879746 131.725094 
L 217.484144 131.127192 
L 219.466047 130.638066 
L 221.919831 130.27715 
L 225.223002 130.031819 
L 230.4137 129.894776 
L 239.662579 129.86 
L 239.662579 129.86 
" clip-path="url(#pe5270963e3)" style="fill: none; stroke: #ffc400; stroke-linecap: round"/>
   </g>
   <g id="line2d_46">
    <path d="M 145.286258 129.86 
L 158.121438 129.968536 
L 162.368372 130.211106 
L 165.199662 130.584935 
L 167.275941 131.070299 
L 168.974715 131.68351 
L 170.484736 132.468798 
L 171.806004 133.412855 
L 173.032896 134.575363 
L 174.165412 135.963234 
L 175.297928 137.732579 
L 176.336068 139.768504 
L 177.374207 142.285594 
L 178.412347 145.376536 
L 179.450486 149.140587 
L 180.583002 154.1312 
L 181.715518 160.155142 
L 182.94241 167.930884 
L 184.358055 178.495116 
L 186.151205 193.808615 
L 188.982495 218.115583 
L 190.020634 225.139359 
L 190.870021 229.412723 
L 191.530655 231.619215 
L 192.002537 232.536797 
L 192.380042 232.859119 
L 192.663171 232.857369 
L 192.9463 232.646884 
L 193.323805 232.044882 
L 193.795687 230.789183 
L 194.361945 228.582696 
L 195.116956 224.569663 
L 196.060719 218.133682 
L 197.381987 207.33761 
L 201.440169 172.983739 
L 202.855814 163.377134 
L 204.082706 156.440618 
L 205.309598 150.734139 
L 206.442114 146.445984 
L 207.57463 142.970279 
L 208.707146 140.18035 
L 209.839662 137.957837 
L 210.972178 136.197804 
L 212.19907 134.709196 
L 213.425962 133.563594 
L 214.74723 132.626393 
L 216.257252 131.839159 
L 217.956025 131.216124 
L 219.937928 130.731434 
L 222.486089 130.352916 
L 225.883636 130.090309 
L 231.16871 129.930426 
L 239.662579 129.870479 
L 239.662579 129.870479 
" clip-path="url(#pe5270963e3)" style="fill: none; stroke: #1ac938; stroke-linecap: round"/>
   </g>
   <g id="patch_18">
    <path d="M 140.567442 235.46 
L 140.567442 127.28439 
" style="fill: none; stroke: #262626; stroke-width: 0.5; stroke-linejoin: miter; stroke-linecap: square"/>
   </g>
   <g id="patch_19">
    <path d="M 244.381395 235.46 
L 244.381395 127.28439 
" style="fill: none; stroke: #262626; stroke-width: 0.5; stroke-linejoin: miter; stroke-linecap: square"/>
   </g>
   <g id="patch_20">
    <path d="M 140.567442 235.46 
L 244.381395 235.46 
" style="fill: none; stroke: #262626; stroke-width: 0.5; stroke-linejoin: miter; stroke-linecap: square"/>
   </g>
   <g id="patch_21">
    <path d="M 140.567442 127.28439 
L 244.381395 127.28439 
" style="fill: none; stroke: #262626; stroke-width: 0.5; stroke-linejoin: miter; stroke-linecap: square"/>
   </g>
  </g>
  <g id="axes_5">
   <g id="patch_22">
    <path d="M 254.762791 121.87561 
L 358.576744 121.87561 
L 358.576744 13.7 
L 254.762791 13.7 
L 254.762791 121.87561 
z
" style="fill: none"/>
   </g>
   <g id="matplotlib.axis_9">
    <g id="xtick_13">
     <g id="line2d_47">
      <g>
       <use xlink:href="#m70815dcea1" x="259.481607" y="121.87561" style="fill: #262626; stroke: #262626; stroke-width: 0.5"/>
      </g>
     </g>
    </g>
    <g id="xtick_14">
     <g id="line2d_48">
      <g>
       <use xlink:href="#m70815dcea1" x="306.669767" y="121.87561" style="fill: #262626; stroke: #262626; stroke-width: 0.5"/>
      </g>
     </g>
    </g>
    <g id="xtick_15">
     <g id="line2d_49">
      <g>
       <use xlink:href="#m70815dcea1" x="353.857928" y="121.87561" style="fill: #262626; stroke: #262626; stroke-width: 0.5"/>
      </g>
     </g>
    </g>
   </g>
   <g id="matplotlib.axis_10">
    <g id="ytick_11">
     <g id="line2d_50">
      <g>
       <use xlink:href="#maaed2908e2" x="254.762791" y="116.958537" style="fill: #262626; stroke: #262626; stroke-width: 0.5"/>
      </g>
     </g>
    </g>
    <g id="ytick_12">
     <g id="line2d_51">
      <g>
       <use xlink:href="#maaed2908e2" x="254.762791" y="18.617073" style="fill: #262626; stroke: #262626; stroke-width: 0.5"/>
      </g>
     </g>
    </g>
   </g>
   <g id="PolyCollection_13"/>
   <g id="PolyCollection_14"/>
   <g id="PolyCollection_15"/>
   <g id="line2d_52">
    <path d="M 259.481607 116.958537 
L 265.04981 116.672655 
L 268.824863 116.268672 
L 271.656152 115.756354 
L 274.01556 115.109644 
L 275.997463 114.340545 
L 277.696237 113.455104 
L 279.300634 112.364837 
L 280.716279 111.139501 
L 282.037548 109.715558 
L 283.358816 107.956363 
L 284.585708 105.955296 
L 285.8126 103.524146 
L 287.039493 100.574701 
L 288.266385 97.004099 
L 289.493277 92.695288 
L 290.720169 87.520421 
L 291.947061 81.349886 
L 293.26833 73.463586 
L 294.683975 63.51663 
L 296.382748 49.768864 
L 299.214038 26.499247 
L 299.969049 21.970607 
L 300.535307 19.672887 
L 300.912812 18.826543 
L 301.195941 18.617236 
L 301.384693 18.702314 
L 301.667822 19.19601 
L 302.045328 20.596992 
L 302.422833 22.924404 
L 302.894715 27.248068 
L 303.460973 34.647703 
L 304.121607 46.416816 
L 304.970994 66.256736 
L 306.10351 99.04232 
L 306.669767 116.860075 
L 308.934799 52.62074 
L 309.784186 36.234555 
L 310.44482 27.328921 
L 311.011078 22.304637 
L 311.48296 19.816283 
L 311.860465 18.829362 
L 312.143594 18.617075 
L 312.332347 18.705275 
L 312.615476 19.152829 
L 312.992981 20.276785 
L 313.559239 22.908647 
L 314.314249 27.744245 
L 315.446765 36.690854 
L 319.127442 66.832655 
L 320.543087 76.254782 
L 321.864355 83.663492 
L 323.185624 89.835479 
L 324.506892 94.922743 
L 325.733784 98.817112 
L 326.960677 102.038475 
L 328.281945 104.880181 
L 329.603214 107.185759 
L 330.924482 109.053937 
L 332.340127 110.662695 
L 333.755772 111.944852 
L 335.265793 113.026494 
L 336.964567 113.967304 
L 338.852093 114.751249 
L 341.022748 115.402391 
L 343.570909 115.926186 
L 346.685328 116.333377 
L 350.837886 116.638251 
L 353.857928 116.761613 
L 353.857928 116.761613 
" clip-path="url(#p41d7020d3f)" style="fill: none; stroke: #a3a3a3; stroke-linecap: round"/>
   </g>
   <g id="line2d_53">
    <path d="M 259.481607 116.761613 
L 265.04981 116.475733 
L 268.824863 116.071755 
L 271.656152 115.559448 
L 274.01556 114.91276 
L 275.997463 114.143697 
L 277.696237 113.258313 
L 279.300634 112.168139 
L 280.716279 110.942936 
L 282.037548 109.519186 
L 283.358816 107.760287 
L 284.585708 105.759634 
L 285.8126 103.329099 
L 287.039493 100.380566 
L 288.266385 96.811316 
L 289.493277 92.504505 
L 290.720169 87.332592 
L 291.947061 81.166404 
L 293.26833 73.287065 
L 294.683975 63.351438 
L 296.382748 49.625214 
L 299.214038 26.422187 
L 299.969049 21.919815 
L 300.535307 19.644307 
L 300.912812 18.813895 
L 301.195941 18.617075 
L 301.384693 18.710708 
L 301.667822 19.21754 
L 302.045328 20.636497 
L 302.422833 22.982229 
L 302.894715 27.328914 
L 303.460973 34.75562 
L 304.121607 46.554154 
L 304.970994 66.425562 
L 306.10351 99.23598 
L 306.669767 116.860075 
L 308.368541 66.256727 
L 309.312304 44.530593 
L 310.067315 31.906442 
L 310.727949 24.459268 
L 311.294207 20.596988 
L 311.671712 19.196008 
L 311.954841 18.702313 
L 312.143594 18.617236 
L 312.332347 18.713811 
L 312.615476 19.173555 
L 312.992981 20.313008 
L 313.559239 22.96638 
L 314.314249 27.827282 
L 315.446765 36.804796 
L 319.127442 67.002186 
L 320.543087 76.434134 
L 321.864355 83.848858 
L 323.185624 90.024824 
L 324.506892 95.114707 
L 325.733784 99.010695 
L 326.960677 102.233152 
L 328.281945 105.07564 
L 329.603214 107.381729 
L 330.924482 109.250241 
L 332.340127 110.859228 
L 333.755772 112.14153 
L 335.265793 113.223268 
L 336.964567 114.164143 
L 338.852093 114.948127 
L 341.022748 115.599293 
L 343.570909 116.123101 
L 346.685328 116.530298 
L 350.837886 116.835174 
L 353.857928 116.958537 
L 353.857928 116.958537 
" clip-path="url(#p41d7020d3f)" style="fill: none; stroke: #e8000b; stroke-linecap: round"/>
   </g>
   <g id="line2d_54">
    <path d="M 259.481607 116.958537 
L 265.04981 116.672655 
L 268.824863 116.268672 
L 271.656152 115.756354 
L 274.01556 115.109644 
L 275.997463 114.340546 
L 277.696237 113.455104 
L 279.300634 112.364838 
L 280.716279 111.139502 
L 282.037548 109.71556 
L 283.358816 107.956365 
L 284.585708 105.955298 
L 285.8126 103.524149 
L 287.039493 100.574704 
L 288.266385 97.004103 
L 289.493277 92.695292 
L 290.720169 87.520426 
L 291.947061 81.349893 
L 293.26833 73.463594 
L 294.683975 63.516639 
L 296.382748 49.768874 
L 299.214038 26.499253 
L 299.969049 21.970612 
L 300.535307 19.67289 
L 300.912812 18.826544 
L 301.195941 18.617236 
L 301.384693 18.702313 
L 301.667822 19.196008 
L 302.045328 20.596988 
L 302.422833 22.924399 
L 302.894715 27.248061 
L 303.460973 34.647695 
L 304.121607 46.416807 
L 304.970994 66.256727 
L 306.10351 99.042317 
L 306.669767 116.860075 
L 308.934799 52.620731 
L 309.784186 36.234546 
L 310.44482 27.328914 
L 311.011078 22.304632 
L 311.48296 19.81628 
L 311.860465 18.82936 
L 312.143594 18.617075 
L 312.332347 18.705276 
L 312.615476 19.152831 
L 312.992981 20.276788 
L 313.559239 22.908653 
L 314.314249 27.744253 
L 315.446765 36.690863 
L 319.127442 66.832663 
L 320.543087 76.254789 
L 321.864355 83.663498 
L 323.185624 89.835484 
L 324.506892 94.922747 
L 325.733784 98.817115 
L 326.960677 102.038478 
L 328.281945 104.880183 
L 329.603214 107.185761 
L 330.924482 109.053939 
L 332.340127 110.662696 
L 333.755772 111.944853 
L 335.265793 113.026495 
L 336.964567 113.967305 
L 338.852093 114.751249 
L 341.022748 115.402391 
L 343.570909 115.926186 
L 346.685328 116.333377 
L 350.837886 116.638251 
L 353.857928 116.761613 
L 353.857928 116.761613 
" clip-path="url(#p41d7020d3f)" style="fill: none; stroke: #8b2be2; stroke-linecap: round"/>
   </g>
   <g id="line2d_55"/>
   <g id="line2d_56"/>
   <g id="line2d_57"/>
   <g id="patch_23">
    <path d="M 254.762791 121.87561 
L 254.762791 13.7 
" style="fill: none; stroke: #262626; stroke-width: 0.5; stroke-linejoin: miter; stroke-linecap: square"/>
   </g>
   <g id="patch_24">
    <path d="M 358.576744 121.87561 
L 358.576744 13.7 
" style="fill: none; stroke: #262626; stroke-width: 0.5; stroke-linejoin: miter; stroke-linecap: square"/>
   </g>
   <g id="patch_25">
    <path d="M 254.762791 121.87561 
L 358.576744 121.87561 
" style="fill: none; stroke: #262626; stroke-width: 0.5; stroke-linejoin: miter; stroke-linecap: square"/>
   </g>
   <g id="patch_26">
    <path d="M 254.762791 13.7 
L 358.576744 13.7 
" style="fill: none; stroke: #262626; stroke-width: 0.5; stroke-linejoin: miter; stroke-linecap: square"/>
   </g>
   <g id="text_24">
    <!-- $\operatorname{sech}\beta = 0.001$ -->
    <g style="fill: #262626" transform="translate(270.569767 7.7) scale(0.1 -0.1)">
     <use xlink:href="#DejaVuSans-73" transform="translate(0 0.390625)"/>
     <use xlink:href="#DejaVuSans-65" transform="translate(52.099609 0.390625)"/>
     <use xlink:href="#DejaVuSans-63" transform="translate(113.623047 0.390625)"/>
     <use xlink:href="#DejaVuSans-68" transform="translate(168.603516 0.390625)"/>
     <use xlink:href="#DejaVuSans-Oblique-3b2" transform="translate(248.218098 0.390625)"/>
     <use xlink:href="#DejaVuSans-3d" transform="translate(331.518879 0.390625)"/>
     <use xlink:href="#DejaVuSans-30" transform="translate(434.790364 0.390625)"/>
     <use xlink:href="#DejaVuSans-2e" transform="translate(498.413411 0.390625)"/>
     <use xlink:href="#DejaVuSans-30" transform="translate(530.20052 0.390625)"/>
     <use xlink:href="#DejaVuSans-30" transform="translate(593.823567 0.390625)"/>
     <use xlink:href="#DejaVuSans-31" transform="translate(657.446614 0.390625)"/>
    </g>
   </g>
   <g id="legend_3">
    <g id="line2d_58">
     <path d="M 285.466017 87.65311 
L 293.466017 87.65311 
L 301.466017 87.65311 
" style="fill: none; stroke: #a3a3a3; stroke-width: 1.5; stroke-linecap: round"/>
    </g>
    <g id="text_25">
     <!-- Sim -->
     <g style="fill: #262626" transform="translate(307.866017 90.45311) scale(0.08 -0.08)">
      <use xlink:href="#ArialMT-53"/>
      <use xlink:href="#ArialMT-69" x="66.699219"/>
      <use xlink:href="#ArialMT-6d" x="88.916016"/>
     </g>
    </g>
    <g id="line2d_59">
     <path d="M 285.466017 98.96936 
L 293.466017 98.96936 
L 301.466017 98.96936 
" style="fill: none; stroke: #e8000b; stroke-width: 1.5; stroke-linecap: round"/>
    </g>
    <g id="text_26">
     <!-- SIT -->
     <g style="fill: #262626" transform="translate(307.866017 101.76936) scale(0.08 -0.08)">
      <use xlink:href="#ArialMT-53"/>
      <use xlink:href="#ArialMT-49" x="66.699219"/>
      <use xlink:href="#ArialMT-54" x="94.482422"/>
     </g>
    </g>
    <g id="line2d_60">
     <path d="M 285.466017 110.28561 
L 293.466017 110.28561 
L 301.466017 110.28561 
" style="fill: none; stroke: #8b2be2; stroke-width: 1.5; stroke-linecap: round"/>
    </g>
    <g id="text_27">
     <!-- Exact -->
     <g style="fill: #262626" transform="translate(307.866017 113.08561) scale(0.08 -0.08)">
      <use xlink:href="#ArialMT-45"/>
      <use xlink:href="#ArialMT-78" x="66.699219"/>
      <use xlink:href="#ArialMT-61" x="116.699219"/>
      <use xlink:href="#ArialMT-63" x="172.314453"/>
      <use xlink:href="#ArialMT-74" x="222.314453"/>
     </g>
    </g>
   </g>
  </g>
  <g id="axes_6">
   <g id="patch_27">
    <path d="M 254.762791 235.46 
L 358.576744 235.46 
L 358.576744 127.28439 
L 254.762791 127.28439 
L 254.762791 235.46 
z
" style="fill: none"/>
   </g>
   <g id="matplotlib.axis_11">
    <g id="xtick_16">
     <g id="line2d_61">
      <g>
       <use xlink:href="#m70815dcea1" x="259.481607" y="235.46" style="fill: #262626; stroke: #262626; stroke-width: 0.5"/>
      </g>
     </g>
     <g id="text_28">
      <!-- 0.0 -->
      <g style="fill: #262626" transform="translate(253.921607 248.18625) scale(0.08 -0.08)">
       <use xlink:href="#ArialMT-30"/>
       <use xlink:href="#ArialMT-2e" x="55.615234"/>
       <use xlink:href="#ArialMT-30" x="83.398438"/>
      </g>
     </g>
    </g>
    <g id="xtick_17">
     <g id="line2d_62">
      <g>
       <use xlink:href="#m70815dcea1" x="306.669767" y="235.46" style="fill: #262626; stroke: #262626; stroke-width: 0.5"/>
      </g>
     </g>
     <g id="text_29">
      <!-- 2.5 -->
      <g style="fill: #262626" transform="translate(301.109767 248.18625) scale(0.08 -0.08)">
       <use xlink:href="#ArialMT-32"/>
       <use xlink:href="#ArialMT-2e" x="55.615234"/>
       <use xlink:href="#ArialMT-35" x="83.398438"/>
      </g>
     </g>
    </g>
    <g id="xtick_18">
     <g id="line2d_63">
      <g>
       <use xlink:href="#m70815dcea1" x="353.857928" y="235.46" style="fill: #262626; stroke: #262626; stroke-width: 0.5"/>
      </g>
     </g>
     <g id="text_30">
      <!-- 5.0 -->
      <g style="fill: #262626" transform="translate(348.297928 248.18625) scale(0.08 -0.08)">
       <use xlink:href="#ArialMT-35"/>
       <use xlink:href="#ArialMT-2e" x="55.615234"/>
       <use xlink:href="#ArialMT-30" x="83.398438"/>
      </g>
     </g>
    </g>
    <g id="text_31">
     <!-- $t$ (ms) -->
     <g style="fill: #262626" transform="translate(293.319767 258.986341) scale(0.1 -0.1)">
      <use xlink:href="#DejaVuSans-Oblique-74" transform="translate(0 0.203125)"/>
      <use xlink:href="#ArialMT-20" transform="translate(39.208984 0.203125)"/>
      <use xlink:href="#ArialMT-28" transform="translate(66.992188 0.203125)"/>
      <use xlink:href="#ArialMT-6d" transform="translate(100.292969 0.203125)"/>
      <use xlink:href="#ArialMT-73" transform="translate(183.59375 0.203125)"/>
      <use xlink:href="#ArialMT-29" transform="translate(233.59375 0.203125)"/>
     </g>
    </g>
   </g>
   <g id="matplotlib.axis_12">
    <g id="ytick_13">
     <g id="line2d_64">
      <g>
       <use xlink:href="#maaed2908e2" x="254.762791" y="232.88439" style="fill: #262626; stroke: #262626; stroke-width: 0.5"/>
      </g>
     </g>
    </g>
    <g id="ytick_14">
     <g id="line2d_65">
      <g>
       <use xlink:href="#maaed2908e2" x="254.762791" y="181.372195" style="fill: #262626; stroke: #262626; stroke-width: 0.5"/>
      </g>
     </g>
    </g>
    <g id="ytick_15">
     <g id="line2d_66">
      <g>
       <use xlink:href="#maaed2908e2" x="254.762791" y="129.86" style="fill: #262626; stroke: #262626; stroke-width: 0.5"/>
      </g>
     </g>
    </g>
   </g>
   <g id="PolyCollection_16"/>
   <g id="PolyCollection_17"/>
   <g id="PolyCollection_18"/>
   <g id="line2d_67">
    <path d="M 259.481607 129.86 
L 281.282537 129.968949 
L 284.774461 130.204064 
L 286.945116 130.558181 
L 288.549514 131.03434 
L 289.870782 131.658251 
L 291.003298 132.446304 
L 292.041438 133.462057 
L 292.985201 134.718334 
L 293.834588 136.206568 
L 294.683975 138.130121 
L 295.533362 140.602585 
L 296.382748 143.757742 
L 297.232135 147.746438 
L 298.175899 153.349063 
L 299.119662 160.37797 
L 300.157801 169.909909 
L 301.384693 183.5165 
L 304.970994 225.510323 
L 305.631628 230.038431 
L 306.10351 232.022308 
L 306.481015 232.786017 
L 306.669767 232.884364 
L 306.85852 232.792286 
L 307.141649 232.299007 
L 307.519154 230.992836 
L 307.991036 228.374648 
L 308.65167 223.085536 
L 309.501057 214.144657 
L 311.105455 194.14584 
L 312.804228 173.946217 
L 313.936744 162.883756 
L 314.974884 154.723318 
L 316.013023 148.327055 
L 316.956786 143.828293 
L 317.90055 140.359097 
L 318.844313 137.714209 
L 319.788076 135.714812 
L 320.731839 134.212865 
L 321.769979 132.994631 
L 322.808118 132.113473 
L 323.940634 131.429938 
L 325.261903 130.888487 
L 326.8663 130.474657 
L 328.942579 130.175362 
L 332.056998 129.975757 
L 337.719577 129.87869 
L 353.857928 129.860103 
L 353.857928 129.860103 
" clip-path="url(#p51975824be)" style="fill: none; stroke: #a3a3a3; stroke-linecap: round"/>
   </g>
   <g id="line2d_68">
    <path d="M 259.481607 129.860103 
L 281.093784 129.968932 
L 284.680085 130.205425 
L 286.85074 130.553865 
L 288.455137 131.020721 
L 289.776406 131.631182 
L 290.908922 132.401238 
L 291.947061 133.392939 
L 292.890825 134.618803 
L 293.740211 136.0706 
L 294.589598 137.946936 
L 295.438985 140.359093 
L 296.288372 143.438587 
L 297.137759 147.334494 
L 298.081522 152.813394 
L 299.025285 159.699802 
L 300.063425 169.064652 
L 301.195941 181.381485 
L 303.083467 204.957918 
L 304.404736 220.330703 
L 305.159746 227.043558 
L 305.726004 230.554181 
L 306.197886 232.299007 
L 306.481015 232.792286 
L 306.669767 232.884364 
L 306.85852 232.786017 
L 307.141649 232.283398 
L 307.519154 230.96504 
L 307.991036 228.332345 
L 308.65167 223.024927 
L 309.501057 214.065003 
L 311.105455 194.045877 
L 312.804228 173.84415 
L 313.936744 162.787508 
L 314.974884 154.63509 
L 316.013023 148.247987 
L 316.956786 143.757738 
L 317.90055 140.296764 
L 318.844313 137.659547 
L 319.788076 135.66714 
L 320.731839 134.171458 
L 321.769979 132.959293 
L 322.808118 132.083396 
L 323.940634 131.404766 
L 325.261903 130.868078 
L 326.8663 130.458871 
L 329.036956 130.154811 
L 332.151374 129.965588 
L 338.002706 129.874509 
L 353.857928 129.86 
L 353.857928 129.86 
" clip-path="url(#p51975824be)" style="fill: none; stroke: #e8000b; stroke-linecap: round"/>
   </g>
   <g id="line2d_69">
    <path d="M 259.481607 129.86 
L 281.282537 129.968948 
L 284.774461 130.204064 
L 286.945116 130.558181 
L 288.549514 131.03434 
L 289.870782 131.65825 
L 291.003298 132.446303 
L 292.041438 133.462056 
L 292.985201 134.718333 
L 293.834588 136.206566 
L 294.683975 138.130118 
L 295.533362 140.602581 
L 296.382748 143.757738 
L 297.232135 147.746432 
L 298.175899 153.349056 
L 299.119662 160.377962 
L 300.157801 169.909899 
L 301.384693 183.51649 
L 304.970994 225.51032 
L 305.631628 230.038429 
L 306.10351 232.022308 
L 306.481015 232.786017 
L 306.669767 232.884364 
L 306.85852 232.792286 
L 307.141649 232.299007 
L 307.519154 230.992835 
L 307.991036 228.374646 
L 308.65167 223.085533 
L 309.501057 214.144651 
L 311.105455 194.145831 
L 312.804228 173.946208 
L 313.936744 162.883748 
L 314.974884 154.723311 
L 316.013023 148.327049 
L 316.956786 143.828288 
L 317.90055 140.359093 
L 318.844313 137.714207 
L 319.788076 135.71481 
L 320.731839 134.212863 
L 321.769979 132.99463 
L 322.808118 132.113472 
L 323.940634 131.429938 
L 325.261903 130.888486 
L 326.8663 130.474656 
L 328.942579 130.175362 
L 332.056998 129.975757 
L 337.719577 129.87869 
L 353.857928 129.860103 
L 353.857928 129.860103 
" clip-path="url(#p51975824be)" style="fill: none; stroke: #8b2be2; stroke-linecap: round"/>
   </g>
   <g id="patch_28">
    <path d="M 254.762791 235.46 
L 254.762791 127.28439 
" style="fill: none; stroke: #262626; stroke-width: 0.5; stroke-linejoin: miter; stroke-linecap: square"/>
   </g>
   <g id="patch_29">
    <path d="M 358.576744 235.46 
L 358.576744 127.28439 
" style="fill: none; stroke: #262626; stroke-width: 0.5; stroke-linejoin: miter; stroke-linecap: square"/>
   </g>
   <g id="patch_30">
    <path d="M 254.762791 235.46 
L 358.576744 235.46 
" style="fill: none; stroke: #262626; stroke-width: 0.5; stroke-linejoin: miter; stroke-linecap: square"/>
   </g>
   <g id="patch_31">
    <path d="M 254.762791 127.28439 
L 358.576744 127.28439 
" style="fill: none; stroke: #262626; stroke-width: 0.5; stroke-linejoin: miter; stroke-linecap: square"/>
   </g>
  </g>
 </g>
 <defs>
  <clipPath id="p08fb26241d">
   <rect x="26.372093" y="13.7" width="103.813953" height="108.17561"/>
  </clipPath>
  <clipPath id="pcde0bfe202">
   <rect x="26.372093" y="127.28439" width="103.813953" height="108.17561"/>
  </clipPath>
  <clipPath id="p1cc0ffa5a7">
   <rect x="140.567442" y="13.7" width="103.813953" height="108.17561"/>
  </clipPath>
  <clipPath id="pe5270963e3">
   <rect x="140.567442" y="127.28439" width="103.813953" height="108.17561"/>
  </clipPath>
  <clipPath id="p41d7020d3f">
   <rect x="254.762791" y="13.7" width="103.813953" height="108.17561"/>
  </clipPath>
  <clipPath id="p51975824be">
   <rect x="254.762791" y="127.28439" width="103.813953" height="108.17561"/>
  </clipPath>
 </defs>
</svg>
