<?xml version="1.0" encoding="utf-8" standalone="no"?>
<!DOCTYPE svg PUBLIC "-//W3C//DTD SVG 1.1//EN"
  "http://www.w3.org/Graphics/SVG/1.1/DTD/svg11.dtd">
<svg xmlns:xlink="http://www.w3.org/1999/xlink" width="472.772093pt" height="260.644154pt" viewBox="0 0 472.772093 260.644154" xmlns="http://www.w3.org/2000/svg" version="1.1">
 <metadata>
  <rdf:RDF xmlns:dc="http://purl.org/dc/elements/1.1/" xmlns:cc="http://creativecommons.org/ns#" xmlns:rdf="http://www.w3.org/1999/02/22-rdf-syntax-ns#">
   <cc:Work>
    <dc:type rdf:resource="http://purl.org/dc/dcmitype/StillImage"/>
    <dc:date>2025-04-19T17:28:22.227349</dc:date>
    <dc:format>image/svg+xml</dc:format>
    <dc:creator>
     <cc:Agent>
      <dc:title>Matplotlib v3.8.0, https://matplotlib.org/</dc:title>
     </cc:Agent>
    </dc:creator>
   </cc:Work>
  </rdf:RDF>
 </metadata>
 <defs>
  <style type="text/css">*{stroke-linejoin: round; stroke-linecap: butt}</style>
 </defs>
 <g id="figure_1">
  <g id="patch_1">
   <path d="M 0 260.644154 
L 472.772093 260.644154 
L 472.772093 0 
L 0 0 
L 0 260.644154 
z
" style="fill: none"/>
  </g>
  <g id="axes_1">
   <g id="patch_2">
    <path d="M 26.372093 121.333422 
L 130.186047 121.333422 
L 130.186047 13.157812 
L 26.372093 13.157812 
L 26.372093 121.333422 
z
" style="fill: none"/>
   </g>
   <g id="matplotlib.axis_1">
    <g id="xtick_1">
     <g id="line2d_1">
      <defs>
       <path id="mf9b5bc32a7" d="M 0 0 
L 0 3.5 
" style="stroke: #262626; stroke-width: 0.5"/>
      </defs>
      <g>
       <use xlink:href="#mf9b5bc32a7" x="31.090909" y="121.333422" style="fill: #262626; stroke: #262626; stroke-width: 0.5"/>
      </g>
     </g>
    </g>
    <g id="xtick_2">
     <g id="line2d_2">
      <g>
       <use xlink:href="#mf9b5bc32a7" x="78.27907" y="121.333422" style="fill: #262626; stroke: #262626; stroke-width: 0.5"/>
      </g>
     </g>
    </g>
    <g id="xtick_3">
     <g id="line2d_3">
      <g>
       <use xlink:href="#mf9b5bc32a7" x="125.46723" y="121.333422" style="fill: #262626; stroke: #262626; stroke-width: 0.5"/>
      </g>
     </g>
    </g>
   </g>
   <g id="matplotlib.axis_2">
    <g id="ytick_1">
     <g id="line2d_4">
      <defs>
       <path id="m1661f5dafc" d="M 0 0 
L -3.5 0 
" style="stroke: #262626; stroke-width: 0.5"/>
      </defs>
      <g>
       <use xlink:href="#m1661f5dafc" x="26.372093" y="116.416349" style="fill: #262626; stroke: #262626; stroke-width: 0.5"/>
      </g>
     </g>
     <g id="text_1">
      <!-- 0 -->
      <g style="fill: #262626" transform="translate(14.923343 119.279474) scale(0.08 -0.08)">
       <defs>
        <path id="ArialMT-30" d="M 266 2259 
Q 266 3072 433 3567 
Q 600 4063 929 4331 
Q 1259 4600 1759 4600 
Q 2128 4600 2406 4451 
Q 2684 4303 2865 4023 
Q 3047 3744 3150 3342 
Q 3253 2941 3253 2259 
Q 3253 1453 3087 958 
Q 2922 463 2592 192 
Q 2263 -78 1759 -78 
Q 1097 -78 719 397 
Q 266 969 266 2259 
z
M 844 2259 
Q 844 1131 1108 757 
Q 1372 384 1759 384 
Q 2147 384 2411 759 
Q 2675 1134 2675 2259 
Q 2675 3391 2411 3762 
Q 2147 4134 1753 4134 
Q 1366 4134 1134 3806 
Q 844 3388 844 2259 
z
" transform="scale(0.015625)"/>
       </defs>
       <use xlink:href="#ArialMT-30"/>
      </g>
     </g>
    </g>
    <g id="ytick_2">
     <g id="line2d_5">
      <g>
       <use xlink:href="#m1661f5dafc" x="26.372093" y="18.074886" style="fill: #262626; stroke: #262626; stroke-width: 0.5"/>
      </g>
     </g>
     <g id="text_2">
      <!-- 1 -->
      <g style="fill: #262626" transform="translate(14.923343 20.938011) scale(0.08 -0.08)">
       <defs>
        <path id="ArialMT-31" d="M 2384 0 
L 1822 0 
L 1822 3584 
Q 1619 3391 1289 3197 
Q 959 3003 697 2906 
L 697 3450 
Q 1169 3672 1522 3987 
Q 1875 4303 2022 4600 
L 2384 4600 
L 2384 0 
z
" transform="scale(0.015625)"/>
       </defs>
       <use xlink:href="#ArialMT-31"/>
      </g>
     </g>
    </g>
    <g id="text_3">
     <!-- $|M_{xy}|/|M|$ -->
     <g style="fill: #262626" transform="translate(7.7 88.595617) rotate(-90) scale(0.1 -0.1)">
      <defs>
       <path id="DejaVuSans-7c" d="M 1344 4891 
L 1344 -1509 
L 813 -1509 
L 813 4891 
L 1344 4891 
z
" transform="scale(0.015625)"/>
       <path id="DejaVuSans-Oblique-4d" d="M 1081 4666 
L 2028 4666 
L 2572 1522 
L 4378 4666 
L 5350 4666 
L 4441 0 
L 3828 0 
L 4622 4091 
L 2791 897 
L 2175 897 
L 1581 4103 
L 788 0 
L 172 0 
L 1081 4666 
z
" transform="scale(0.015625)"/>
       <path id="DejaVuSans-Oblique-78" d="M 3841 3500 
L 2234 1784 
L 3219 0 
L 2559 0 
L 1819 1388 
L 531 0 
L -166 0 
L 1556 1844 
L 641 3500 
L 1300 3500 
L 1972 2234 
L 3144 3500 
L 3841 3500 
z
" transform="scale(0.015625)"/>
       <path id="DejaVuSans-Oblique-79" d="M 1588 -325 
Q 1188 -997 936 -1164 
Q 684 -1331 294 -1331 
L -159 -1331 
L -63 -850 
L 269 -850 
Q 509 -850 678 -719 
Q 847 -588 1056 -206 
L 1234 128 
L 459 3500 
L 1069 3500 
L 1650 819 
L 3256 3500 
L 3859 3500 
L 1588 -325 
z
" transform="scale(0.015625)"/>
       <path id="DejaVuSans-2f" d="M 1625 4666 
L 2156 4666 
L 531 -594 
L 0 -594 
L 1625 4666 
z
" transform="scale(0.015625)"/>
      </defs>
      <use xlink:href="#DejaVuSans-7c" transform="translate(0 0.578125)"/>
      <use xlink:href="#DejaVuSans-Oblique-4d" transform="translate(33.691406 0.578125)"/>
      <use xlink:href="#DejaVuSans-Oblique-78" transform="translate(119.970703 -15.828125) scale(0.7)"/>
      <use xlink:href="#DejaVuSans-Oblique-79" transform="translate(161.396484 -15.828125) scale(0.7)"/>
      <use xlink:href="#DejaVuSans-7c" transform="translate(205.556641 0.578125)"/>
      <use xlink:href="#DejaVuSans-2f" transform="translate(239.248047 0.578125)"/>
      <use xlink:href="#DejaVuSans-7c" transform="translate(272.939453 0.578125)"/>
      <use xlink:href="#DejaVuSans-Oblique-4d" transform="translate(306.630859 0.578125)"/>
      <use xlink:href="#DejaVuSans-7c" transform="translate(392.910156 0.578125)"/>
     </g>
    </g>
   </g>
   <g id="PolyCollection_1"/>
   <g id="PolyCollection_2"/>
   <g id="line2d_6">
    <path d="M 31.090909 116.416349 
L 36.375983 82.52366 
L 39.207273 65.825612 
L 41.472304 53.731141 
L 43.454207 44.306945 
L 45.247357 36.856434 
L 46.851755 31.147347 
L 48.2674 26.915196 
L 49.494292 23.888757 
L 50.626808 21.642352 
L 51.664947 20.055969 
L 52.60871 19.012923 
L 53.458097 18.402763 
L 54.213108 18.123411 
L 54.968118 18.092356 
L 55.723129 18.309675 
L 56.47814 18.774821 
L 57.327526 19.592852 
L 58.176913 20.720417 
L 59.120677 22.331886 
L 60.158816 24.533074 
L 61.385708 27.699175 
L 62.706977 31.769719 
L 64.122622 36.856434 
L 65.727019 43.472378 
L 67.520169 51.846745 
L 69.596448 62.683129 
L 71.955856 76.229201 
L 74.975899 94.963823 
L 78.27907 116.416349 
L 83.564144 82.52366 
L 86.395433 65.825612 
L 88.660465 53.731141 
L 90.642368 44.306945 
L 92.435518 36.856434 
L 94.039915 31.147347 
L 95.45556 26.915196 
L 96.682452 23.888757 
L 97.814968 21.642352 
L 98.853108 20.055969 
L 99.796871 19.012923 
L 100.646258 18.402763 
L 101.401268 18.123411 
L 102.156279 18.092356 
L 102.91129 18.309675 
L 103.6663 18.774821 
L 104.515687 19.592852 
L 105.365074 20.720417 
L 106.308837 22.331886 
L 107.346977 24.533074 
L 108.573869 27.699175 
L 109.895137 31.769719 
L 111.310782 36.856434 
L 112.91518 43.472378 
L 114.70833 51.846745 
L 116.784609 62.683129 
L 119.144017 76.229201 
L 122.164059 94.963823 
L 125.46723 116.416349 
L 125.46723 116.416349 
" clip-path="url(#p01bf6b7bfb)" style="fill: none; stroke: #a3a3a3; stroke-linecap: round"/>
   </g>
   <g id="line2d_7">
    <path d="M 31.090909 116.416349 
L 36.375983 82.52366 
L 39.207273 65.825612 
L 41.472304 53.731141 
L 43.454207 44.306945 
L 45.247357 36.856434 
L 46.851755 31.147347 
L 48.2674 26.915196 
L 49.494292 23.888757 
L 50.626808 21.642352 
L 51.664947 20.055969 
L 52.60871 19.012923 
L 53.458097 18.402763 
L 54.213108 18.123411 
L 54.968118 18.092356 
L 55.723129 18.309675 
L 56.47814 18.774821 
L 57.327526 19.592852 
L 58.176913 20.720417 
L 59.120677 22.331886 
L 60.158816 24.533074 
L 61.385708 27.699175 
L 62.706977 31.769719 
L 64.122622 36.856434 
L 65.727019 43.472378 
L 67.520169 51.846745 
L 69.596448 62.683129 
L 71.955856 76.229201 
L 74.975899 94.963823 
L 78.27907 116.416349 
L 83.564144 82.52366 
L 86.395433 65.825612 
L 88.660465 53.731141 
L 90.642368 44.306945 
L 92.435518 36.856434 
L 94.039915 31.147347 
L 95.45556 26.915196 
L 96.682452 23.888757 
L 97.814968 21.642352 
L 98.853108 20.055969 
L 99.796871 19.012923 
L 100.646258 18.402763 
L 101.401268 18.123411 
L 102.156279 18.092356 
L 102.91129 18.309675 
L 103.6663 18.774821 
L 104.515687 19.592852 
L 105.365074 20.720417 
L 106.308837 22.331886 
L 107.346977 24.533074 
L 108.573869 27.699175 
L 109.895137 31.769719 
L 111.310782 36.856434 
L 112.91518 43.472378 
L 114.70833 51.846745 
L 116.784609 62.683129 
L 119.144017 76.229201 
L 122.164059 94.963823 
L 125.46723 116.416349 
L 125.46723 116.416349 
" clip-path="url(#p01bf6b7bfb)" style="fill: none; stroke: #023eff; stroke-linecap: round"/>
   </g>
   <g id="line2d_8"/>
   <g id="line2d_9"/>
   <g id="patch_3">
    <path d="M 26.372093 121.333422 
L 26.372093 13.157812 
" style="fill: none; stroke: #262626; stroke-width: 0.5; stroke-linejoin: miter; stroke-linecap: square"/>
   </g>
   <g id="patch_4">
    <path d="M 130.186047 121.333422 
L 130.186047 13.157812 
" style="fill: none; stroke: #262626; stroke-width: 0.5; stroke-linejoin: miter; stroke-linecap: square"/>
   </g>
   <g id="patch_5">
    <path d="M 26.372093 121.333422 
L 130.186047 121.333422 
" style="fill: none; stroke: #262626; stroke-width: 0.5; stroke-linejoin: miter; stroke-linecap: square"/>
   </g>
   <g id="patch_6">
    <path d="M 26.372093 13.157812 
L 130.186047 13.157812 
" style="fill: none; stroke: #262626; stroke-width: 0.5; stroke-linejoin: miter; stroke-linecap: square"/>
   </g>
   <g id="text_4">
    <!-- $\Omega/2\pi = 0 Hz$ -->
    <g style="fill: #262626" transform="translate(51.02907 7.157812) scale(0.1 -0.1)">
     <defs>
      <path id="DejaVuSans-3a9" d="M 4647 556 
L 4647 0 
L 2772 0 
L 2772 556 
Q 3325 859 3634 1378 
Q 3944 1897 3944 2528 
Q 3944 3278 3531 3731 
Q 3119 4184 2444 4184 
Q 1769 4184 1355 3729 
Q 941 3275 941 2528 
Q 941 1897 1250 1378 
Q 1563 859 2119 556 
L 2119 0 
L 244 0 
L 244 556 
L 1241 556 
Q 747 991 519 1456 
Q 294 1922 294 2497 
Q 294 3491 894 4106 
Q 1491 4722 2444 4722 
Q 3391 4722 3994 4106 
Q 4594 3494 4594 2528 
Q 4594 1922 4372 1459 
Q 4150 997 3647 556 
L 4647 556 
z
" transform="scale(0.015625)"/>
      <path id="DejaVuSans-32" d="M 1228 531 
L 3431 531 
L 3431 0 
L 469 0 
L 469 531 
Q 828 903 1448 1529 
Q 2069 2156 2228 2338 
Q 2531 2678 2651 2914 
Q 2772 3150 2772 3378 
Q 2772 3750 2511 3984 
Q 2250 4219 1831 4219 
Q 1534 4219 1204 4116 
Q 875 4013 500 3803 
L 500 4441 
Q 881 4594 1212 4672 
Q 1544 4750 1819 4750 
Q 2544 4750 2975 4387 
Q 3406 4025 3406 3419 
Q 3406 3131 3298 2873 
Q 3191 2616 2906 2266 
Q 2828 2175 2409 1742 
Q 1991 1309 1228 531 
z
" transform="scale(0.015625)"/>
      <path id="DejaVuSans-Oblique-3c0" d="M 584 3500 
L 3938 3500 
L 3825 2925 
L 3384 2925 
L 2966 775 
Q 2922 550 2981 450 
Q 3038 353 3209 353 
Q 3256 353 3325 363 
Q 3397 369 3419 372 
L 3338 -44 
Q 3222 -84 3103 -103 
Q 2981 -122 2866 -122 
Q 2491 -122 2388 81 
Q 2284 288 2391 838 
L 2797 2925 
L 1506 2925 
L 938 0 
L 350 0 
L 919 2925 
L 472 2925 
L 584 3500 
z
" transform="scale(0.015625)"/>
      <path id="DejaVuSans-3d" d="M 678 2906 
L 4684 2906 
L 4684 2381 
L 678 2381 
L 678 2906 
z
M 678 1631 
L 4684 1631 
L 4684 1100 
L 678 1100 
L 678 1631 
z
" transform="scale(0.015625)"/>
      <path id="DejaVuSans-30" d="M 2034 4250 
Q 1547 4250 1301 3770 
Q 1056 3291 1056 2328 
Q 1056 1369 1301 889 
Q 1547 409 2034 409 
Q 2525 409 2770 889 
Q 3016 1369 3016 2328 
Q 3016 3291 2770 3770 
Q 2525 4250 2034 4250 
z
M 2034 4750 
Q 2819 4750 3233 4129 
Q 3647 3509 3647 2328 
Q 3647 1150 3233 529 
Q 2819 -91 2034 -91 
Q 1250 -91 836 529 
Q 422 1150 422 2328 
Q 422 3509 836 4129 
Q 1250 4750 2034 4750 
z
" transform="scale(0.015625)"/>
      <path id="DejaVuSans-Oblique-48" d="M 1081 4666 
L 1716 4666 
L 1344 2753 
L 3634 2753 
L 4006 4666 
L 4641 4666 
L 3731 0 
L 3097 0 
L 3531 2222 
L 1241 2222 
L 806 0 
L 172 0 
L 1081 4666 
z
" transform="scale(0.015625)"/>
      <path id="DejaVuSans-Oblique-7a" d="M 744 3500 
L 3475 3500 
L 3372 2975 
L 738 459 
L 2913 459 
L 2822 0 
L -19 0 
L 84 525 
L 2719 3041 
L 653 3041 
L 744 3500 
z
" transform="scale(0.015625)"/>
     </defs>
     <use xlink:href="#DejaVuSans-3a9" transform="translate(0 0.78125)"/>
     <use xlink:href="#DejaVuSans-2f" transform="translate(76.416016 0.78125)"/>
     <use xlink:href="#DejaVuSans-32" transform="translate(106.482422 0.78125)"/>
     <use xlink:href="#DejaVuSans-Oblique-3c0" transform="translate(170.105469 0.78125)"/>
     <use xlink:href="#DejaVuSans-3d" transform="translate(249.792969 0.78125)"/>
     <use xlink:href="#DejaVuSans-30" transform="translate(353.064453 0.78125)"/>
     <use xlink:href="#DejaVuSans-Oblique-48" transform="translate(416.6875 0.78125)"/>
     <use xlink:href="#DejaVuSans-Oblique-7a" transform="translate(491.882812 0.78125)"/>
    </g>
   </g>
   <g id="legend_1">
    <g id="line2d_10">
     <path d="M 57.07532 98.427172 
L 65.07532 98.427172 
L 73.07532 98.427172 
" style="fill: none; stroke: #a3a3a3; stroke-width: 1.5; stroke-linecap: round"/>
    </g>
    <g id="text_5">
     <!-- Sim -->
     <g style="fill: #262626" transform="translate(79.47532 101.227172) scale(0.08 -0.08)">
      <defs>
       <path id="ArialMT-53" d="M 288 1472 
L 859 1522 
Q 900 1178 1048 958 
Q 1197 738 1509 602 
Q 1822 466 2213 466 
Q 2559 466 2825 569 
Q 3091 672 3220 851 
Q 3350 1031 3350 1244 
Q 3350 1459 3225 1620 
Q 3100 1781 2813 1891 
Q 2628 1963 1997 2114 
Q 1366 2266 1113 2400 
Q 784 2572 623 2826 
Q 463 3081 463 3397 
Q 463 3744 659 4045 
Q 856 4347 1234 4503 
Q 1613 4659 2075 4659 
Q 2584 4659 2973 4495 
Q 3363 4331 3572 4012 
Q 3781 3694 3797 3291 
L 3216 3247 
Q 3169 3681 2898 3903 
Q 2628 4125 2100 4125 
Q 1550 4125 1298 3923 
Q 1047 3722 1047 3438 
Q 1047 3191 1225 3031 
Q 1400 2872 2139 2705 
Q 2878 2538 3153 2413 
Q 3553 2228 3743 1945 
Q 3934 1663 3934 1294 
Q 3934 928 3725 604 
Q 3516 281 3123 101 
Q 2731 -78 2241 -78 
Q 1619 -78 1198 103 
Q 778 284 539 648 
Q 300 1013 288 1472 
z
" transform="scale(0.015625)"/>
       <path id="ArialMT-69" d="M 425 3934 
L 425 4581 
L 988 4581 
L 988 3934 
L 425 3934 
z
M 425 0 
L 425 3319 
L 988 3319 
L 988 0 
L 425 0 
z
" transform="scale(0.015625)"/>
       <path id="ArialMT-6d" d="M 422 0 
L 422 3319 
L 925 3319 
L 925 2853 
Q 1081 3097 1340 3245 
Q 1600 3394 1931 3394 
Q 2300 3394 2536 3241 
Q 2772 3088 2869 2813 
Q 3263 3394 3894 3394 
Q 4388 3394 4653 3120 
Q 4919 2847 4919 2278 
L 4919 0 
L 4359 0 
L 4359 2091 
Q 4359 2428 4304 2576 
Q 4250 2725 4106 2815 
Q 3963 2906 3769 2906 
Q 3419 2906 3187 2673 
Q 2956 2441 2956 1928 
L 2956 0 
L 2394 0 
L 2394 2156 
Q 2394 2531 2256 2718 
Q 2119 2906 1806 2906 
Q 1569 2906 1367 2781 
Q 1166 2656 1075 2415 
Q 984 2175 984 1722 
L 984 0 
L 422 0 
z
" transform="scale(0.015625)"/>
      </defs>
      <use xlink:href="#ArialMT-53"/>
      <use xlink:href="#ArialMT-69" x="66.699219"/>
      <use xlink:href="#ArialMT-6d" x="88.916016"/>
     </g>
    </g>
    <g id="line2d_11">
     <path d="M 57.07532 109.743422 
L 65.07532 109.743422 
L 73.07532 109.743422 
" style="fill: none; stroke: #023eff; stroke-width: 1.5; stroke-linecap: round"/>
    </g>
    <g id="text_6">
     <!-- Exact -->
     <g style="fill: #262626" transform="translate(79.47532 112.543422) scale(0.08 -0.08)">
      <defs>
       <path id="ArialMT-45" d="M 506 0 
L 506 4581 
L 3819 4581 
L 3819 4041 
L 1113 4041 
L 1113 2638 
L 3647 2638 
L 3647 2100 
L 1113 2100 
L 1113 541 
L 3925 541 
L 3925 0 
L 506 0 
z
" transform="scale(0.015625)"/>
       <path id="ArialMT-78" d="M 47 0 
L 1259 1725 
L 138 3319 
L 841 3319 
L 1350 2541 
Q 1494 2319 1581 2169 
Q 1719 2375 1834 2534 
L 2394 3319 
L 3066 3319 
L 1919 1756 
L 3153 0 
L 2463 0 
L 1781 1031 
L 1600 1309 
L 728 0 
L 47 0 
z
" transform="scale(0.015625)"/>
       <path id="ArialMT-61" d="M 2588 409 
Q 2275 144 1986 34 
Q 1697 -75 1366 -75 
Q 819 -75 525 192 
Q 231 459 231 875 
Q 231 1119 342 1320 
Q 453 1522 633 1644 
Q 813 1766 1038 1828 
Q 1203 1872 1538 1913 
Q 2219 1994 2541 2106 
Q 2544 2222 2544 2253 
Q 2544 2597 2384 2738 
Q 2169 2928 1744 2928 
Q 1347 2928 1158 2789 
Q 969 2650 878 2297 
L 328 2372 
Q 403 2725 575 2942 
Q 747 3159 1072 3276 
Q 1397 3394 1825 3394 
Q 2250 3394 2515 3294 
Q 2781 3194 2906 3042 
Q 3031 2891 3081 2659 
Q 3109 2516 3109 2141 
L 3109 1391 
Q 3109 606 3145 398 
Q 3181 191 3288 0 
L 2700 0 
Q 2613 175 2588 409 
z
M 2541 1666 
Q 2234 1541 1622 1453 
Q 1275 1403 1131 1340 
Q 988 1278 909 1158 
Q 831 1038 831 891 
Q 831 666 1001 516 
Q 1172 366 1500 366 
Q 1825 366 2078 508 
Q 2331 650 2450 897 
Q 2541 1088 2541 1459 
L 2541 1666 
z
" transform="scale(0.015625)"/>
       <path id="ArialMT-63" d="M 2588 1216 
L 3141 1144 
Q 3050 572 2676 248 
Q 2303 -75 1759 -75 
Q 1078 -75 664 370 
Q 250 816 250 1647 
Q 250 2184 428 2587 
Q 606 2991 970 3192 
Q 1334 3394 1763 3394 
Q 2303 3394 2647 3120 
Q 2991 2847 3088 2344 
L 2541 2259 
Q 2463 2594 2264 2762 
Q 2066 2931 1784 2931 
Q 1359 2931 1093 2626 
Q 828 2322 828 1663 
Q 828 994 1084 691 
Q 1341 388 1753 388 
Q 2084 388 2306 591 
Q 2528 794 2588 1216 
z
" transform="scale(0.015625)"/>
       <path id="ArialMT-74" d="M 1650 503 
L 1731 6 
Q 1494 -44 1306 -44 
Q 1000 -44 831 53 
Q 663 150 594 308 
Q 525 466 525 972 
L 525 2881 
L 113 2881 
L 113 3319 
L 525 3319 
L 525 4141 
L 1084 4478 
L 1084 3319 
L 1650 3319 
L 1650 2881 
L 1084 2881 
L 1084 941 
Q 1084 700 1114 631 
Q 1144 563 1211 522 
Q 1278 481 1403 481 
Q 1497 481 1650 503 
z
" transform="scale(0.015625)"/>
      </defs>
      <use xlink:href="#ArialMT-45"/>
      <use xlink:href="#ArialMT-78" x="66.699219"/>
      <use xlink:href="#ArialMT-61" x="116.699219"/>
      <use xlink:href="#ArialMT-63" x="172.314453"/>
      <use xlink:href="#ArialMT-74" x="222.314453"/>
     </g>
    </g>
   </g>
  </g>
  <g id="axes_2">
   <g id="patch_7">
    <path d="M 26.372093 234.917812 
L 130.186047 234.917812 
L 130.186047 126.742203 
L 26.372093 126.742203 
L 26.372093 234.917812 
z
" style="fill: none"/>
   </g>
   <g id="matplotlib.axis_3">
    <g id="xtick_4">
     <g id="line2d_12">
      <g>
       <use xlink:href="#mf9b5bc32a7" x="31.090909" y="234.917812" style="fill: #262626; stroke: #262626; stroke-width: 0.5"/>
      </g>
     </g>
     <g id="text_7">
      <!-- 0.0 -->
      <g style="fill: #262626" transform="translate(25.530909 247.644062) scale(0.08 -0.08)">
       <defs>
        <path id="ArialMT-2e" d="M 581 0 
L 581 641 
L 1222 641 
L 1222 0 
L 581 0 
z
" transform="scale(0.015625)"/>
       </defs>
       <use xlink:href="#ArialMT-30"/>
       <use xlink:href="#ArialMT-2e" x="55.615234"/>
       <use xlink:href="#ArialMT-30" x="83.398438"/>
      </g>
     </g>
    </g>
    <g id="xtick_5">
     <g id="line2d_13">
      <g>
       <use xlink:href="#mf9b5bc32a7" x="78.27907" y="234.917812" style="fill: #262626; stroke: #262626; stroke-width: 0.5"/>
      </g>
     </g>
     <g id="text_8">
      <!-- 2.5 -->
      <g style="fill: #262626" transform="translate(72.71907 247.644062) scale(0.08 -0.08)">
       <defs>
        <path id="ArialMT-32" d="M 3222 541 
L 3222 0 
L 194 0 
Q 188 203 259 391 
Q 375 700 629 1000 
Q 884 1300 1366 1694 
Q 2113 2306 2375 2664 
Q 2638 3022 2638 3341 
Q 2638 3675 2398 3904 
Q 2159 4134 1775 4134 
Q 1369 4134 1125 3890 
Q 881 3647 878 3216 
L 300 3275 
Q 359 3922 746 4261 
Q 1134 4600 1788 4600 
Q 2447 4600 2831 4234 
Q 3216 3869 3216 3328 
Q 3216 3053 3103 2787 
Q 2991 2522 2730 2228 
Q 2469 1934 1863 1422 
Q 1356 997 1212 845 
Q 1069 694 975 541 
L 3222 541 
z
" transform="scale(0.015625)"/>
        <path id="ArialMT-35" d="M 266 1200 
L 856 1250 
Q 922 819 1161 601 
Q 1400 384 1738 384 
Q 2144 384 2425 690 
Q 2706 997 2706 1503 
Q 2706 1984 2436 2262 
Q 2166 2541 1728 2541 
Q 1456 2541 1237 2417 
Q 1019 2294 894 2097 
L 366 2166 
L 809 4519 
L 3088 4519 
L 3088 3981 
L 1259 3981 
L 1013 2750 
Q 1425 3038 1878 3038 
Q 2478 3038 2890 2622 
Q 3303 2206 3303 1553 
Q 3303 931 2941 478 
Q 2500 -78 1738 -78 
Q 1113 -78 717 272 
Q 322 622 266 1200 
z
" transform="scale(0.015625)"/>
       </defs>
       <use xlink:href="#ArialMT-32"/>
       <use xlink:href="#ArialMT-2e" x="55.615234"/>
       <use xlink:href="#ArialMT-35" x="83.398438"/>
      </g>
     </g>
    </g>
    <g id="xtick_6">
     <g id="line2d_14">
      <g>
       <use xlink:href="#mf9b5bc32a7" x="125.46723" y="234.917812" style="fill: #262626; stroke: #262626; stroke-width: 0.5"/>
      </g>
     </g>
     <g id="text_9">
      <!-- 5.0 -->
      <g style="fill: #262626" transform="translate(119.90723 247.644062) scale(0.08 -0.08)">
       <use xlink:href="#ArialMT-35"/>
       <use xlink:href="#ArialMT-2e" x="55.615234"/>
       <use xlink:href="#ArialMT-30" x="83.398438"/>
      </g>
     </g>
    </g>
    <g id="text_10">
     <!-- $t$ (ms) -->
     <g style="fill: #262626" transform="translate(64.92907 258.444154) scale(0.1 -0.1)">
      <defs>
       <path id="DejaVuSans-Oblique-74" d="M 2706 3500 
L 2619 3053 
L 1472 3053 
L 1100 1153 
Q 1081 1047 1072 975 
Q 1063 903 1063 863 
Q 1063 663 1183 572 
Q 1303 481 1569 481 
L 2150 481 
L 2053 0 
L 1503 0 
Q 991 0 739 200 
Q 488 400 488 806 
Q 488 878 497 964 
Q 506 1050 525 1153 
L 897 3053 
L 409 3053 
L 500 3500 
L 978 3500 
L 1172 4494 
L 1747 4494 
L 1556 3500 
L 2706 3500 
z
" transform="scale(0.015625)"/>
       <path id="ArialMT-20" transform="scale(0.015625)"/>
       <path id="ArialMT-28" d="M 1497 -1347 
Q 1031 -759 709 28 
Q 388 816 388 1659 
Q 388 2403 628 3084 
Q 909 3875 1497 4659 
L 1900 4659 
Q 1522 4009 1400 3731 
Q 1209 3300 1100 2831 
Q 966 2247 966 1656 
Q 966 153 1900 -1347 
L 1497 -1347 
z
" transform="scale(0.015625)"/>
       <path id="ArialMT-73" d="M 197 991 
L 753 1078 
Q 800 744 1014 566 
Q 1228 388 1613 388 
Q 2000 388 2187 545 
Q 2375 703 2375 916 
Q 2375 1106 2209 1216 
Q 2094 1291 1634 1406 
Q 1016 1563 777 1677 
Q 538 1791 414 1992 
Q 291 2194 291 2438 
Q 291 2659 392 2848 
Q 494 3038 669 3163 
Q 800 3259 1026 3326 
Q 1253 3394 1513 3394 
Q 1903 3394 2198 3281 
Q 2494 3169 2634 2976 
Q 2775 2784 2828 2463 
L 2278 2388 
Q 2241 2644 2061 2787 
Q 1881 2931 1553 2931 
Q 1166 2931 1000 2803 
Q 834 2675 834 2503 
Q 834 2394 903 2306 
Q 972 2216 1119 2156 
Q 1203 2125 1616 2013 
Q 2213 1853 2448 1751 
Q 2684 1650 2818 1456 
Q 2953 1263 2953 975 
Q 2953 694 2789 445 
Q 2625 197 2315 61 
Q 2006 -75 1616 -75 
Q 969 -75 630 194 
Q 291 463 197 991 
z
" transform="scale(0.015625)"/>
       <path id="ArialMT-29" d="M 791 -1347 
L 388 -1347 
Q 1322 153 1322 1656 
Q 1322 2244 1188 2822 
Q 1081 3291 891 3722 
Q 769 4003 388 4659 
L 791 4659 
Q 1378 3875 1659 3084 
Q 1900 2403 1900 1659 
Q 1900 816 1576 28 
Q 1253 -759 791 -1347 
z
" transform="scale(0.015625)"/>
      </defs>
      <use xlink:href="#DejaVuSans-Oblique-74" transform="translate(0 0.203125)"/>
      <use xlink:href="#ArialMT-20" transform="translate(39.208984 0.203125)"/>
      <use xlink:href="#ArialMT-28" transform="translate(66.992188 0.203125)"/>
      <use xlink:href="#ArialMT-6d" transform="translate(100.292969 0.203125)"/>
      <use xlink:href="#ArialMT-73" transform="translate(183.59375 0.203125)"/>
      <use xlink:href="#ArialMT-29" transform="translate(233.59375 0.203125)"/>
     </g>
    </g>
   </g>
   <g id="matplotlib.axis_4">
    <g id="ytick_3">
     <g id="line2d_15">
      <g>
       <use xlink:href="#m1661f5dafc" x="26.372093" y="232.342203" style="fill: #262626; stroke: #262626; stroke-width: 0.5"/>
      </g>
     </g>
     <g id="text_11">
      <!-- -1 -->
      <g style="fill: #262626" transform="translate(12.259593 235.205328) scale(0.08 -0.08)">
       <defs>
        <path id="ArialMT-2d" d="M 203 1375 
L 203 1941 
L 1931 1941 
L 1931 1375 
L 203 1375 
z
" transform="scale(0.015625)"/>
       </defs>
       <use xlink:href="#ArialMT-2d"/>
       <use xlink:href="#ArialMT-31" x="33.300781"/>
      </g>
     </g>
    </g>
    <g id="ytick_4">
     <g id="line2d_16">
      <g>
       <use xlink:href="#m1661f5dafc" x="26.372093" y="180.830008" style="fill: #262626; stroke: #262626; stroke-width: 0.5"/>
      </g>
     </g>
     <g id="text_12">
      <!-- 0 -->
      <g style="fill: #262626" transform="translate(14.923343 183.693133) scale(0.08 -0.08)">
       <use xlink:href="#ArialMT-30"/>
      </g>
     </g>
    </g>
    <g id="ytick_5">
     <g id="line2d_17">
      <g>
       <use xlink:href="#m1661f5dafc" x="26.372093" y="129.317812" style="fill: #262626; stroke: #262626; stroke-width: 0.5"/>
      </g>
     </g>
     <g id="text_13">
      <!-- 1 -->
      <g style="fill: #262626" transform="translate(14.923343 132.180937) scale(0.08 -0.08)">
       <use xlink:href="#ArialMT-31"/>
      </g>
     </g>
    </g>
    <g id="text_14">
     <!-- $M_{z}/|M|$ -->
     <g style="fill: #262626" transform="translate(8.4 196.530008) rotate(-90) scale(0.1 -0.1)">
      <use xlink:href="#DejaVuSans-Oblique-4d" transform="translate(0 0.578125)"/>
      <use xlink:href="#DejaVuSans-Oblique-7a" transform="translate(86.279297 -15.828125) scale(0.7)"/>
      <use xlink:href="#DejaVuSans-2f" transform="translate(125.756836 0.578125)"/>
      <use xlink:href="#DejaVuSans-7c" transform="translate(159.448242 0.578125)"/>
      <use xlink:href="#DejaVuSans-Oblique-4d" transform="translate(193.139648 0.578125)"/>
      <use xlink:href="#DejaVuSans-7c" transform="translate(279.418945 0.578125)"/>
     </g>
    </g>
   </g>
   <g id="PolyCollection_3"/>
   <g id="PolyCollection_4"/>
   <g id="line2d_18">
    <path d="M 31.090909 129.317812 
L 32.034672 129.41946 
L 33.072812 129.765576 
L 34.110951 130.355523 
L 35.243467 131.27385 
L 36.470359 132.586267 
L 37.791628 134.359107 
L 39.207273 136.656927 
L 40.717294 139.539533 
L 42.416068 143.279233 
L 44.303594 147.994899 
L 46.474249 154.053075 
L 49.02241 161.867104 
L 52.325581 172.771725 
L 61.196956 202.469546 
L 63.745116 210.051276 
L 65.915772 215.855899 
L 67.803298 220.313745 
L 69.502072 223.795219 
L 71.106469 226.579866 
L 72.522114 228.604743 
L 73.843383 230.112345 
L 75.070275 231.171234 
L 76.202791 231.85085 
L 77.24093 232.219218 
L 78.27907 232.342203 
L 79.222833 232.240555 
L 80.260973 231.89444 
L 81.299112 231.304492 
L 82.431628 230.386165 
L 83.65852 229.073748 
L 84.979789 227.300908 
L 86.395433 225.003088 
L 87.905455 222.120483 
L 89.604228 218.380782 
L 91.491755 213.665117 
L 93.66241 207.60694 
L 96.210571 199.792911 
L 99.513742 188.88829 
L 108.385116 159.19047 
L 110.933277 151.608739 
L 113.103932 145.804117 
L 114.991459 141.34627 
L 116.690233 137.864797 
L 118.29463 135.08015 
L 119.710275 133.055272 
L 121.031543 131.54767 
L 122.258436 130.488781 
L 123.390951 129.809165 
L 124.429091 129.440798 
L 125.46723 129.317813 
L 125.46723 129.317813 
" clip-path="url(#p72f9d4b6b9)" style="fill: none; stroke: #a3a3a3; stroke-linecap: round"/>
   </g>
   <g id="line2d_19">
    <path d="M 31.090909 129.317812 
L 32.034672 129.41946 
L 33.072812 129.765576 
L 34.110951 130.355523 
L 35.243467 131.27385 
L 36.470359 132.586267 
L 37.791628 134.359107 
L 39.207273 136.656927 
L 40.717294 139.539533 
L 42.416068 143.279233 
L 44.303594 147.994899 
L 46.474249 154.053075 
L 49.02241 161.867104 
L 52.325581 172.771725 
L 61.196956 202.469546 
L 63.745116 210.051276 
L 65.915772 215.855899 
L 67.803298 220.313745 
L 69.502072 223.795219 
L 71.106469 226.579866 
L 72.522114 228.604743 
L 73.843383 230.112345 
L 75.070275 231.171234 
L 76.202791 231.85085 
L 77.24093 232.219218 
L 78.27907 232.342203 
L 79.222833 232.240555 
L 80.260973 231.89444 
L 81.299112 231.304492 
L 82.431628 230.386165 
L 83.65852 229.073748 
L 84.979789 227.300908 
L 86.395433 225.003088 
L 87.905455 222.120483 
L 89.604228 218.380782 
L 91.491755 213.665117 
L 93.66241 207.60694 
L 96.210571 199.792911 
L 99.513742 188.88829 
L 108.385116 159.19047 
L 110.933277 151.608739 
L 113.103932 145.804117 
L 114.991459 141.34627 
L 116.690233 137.864797 
L 118.29463 135.08015 
L 119.710275 133.055272 
L 121.031543 131.54767 
L 122.258436 130.488781 
L 123.390951 129.809165 
L 124.429091 129.440798 
L 125.46723 129.317812 
L 125.46723 129.317812 
" clip-path="url(#p72f9d4b6b9)" style="fill: none; stroke: #023eff; stroke-linecap: round"/>
   </g>
   <g id="patch_8">
    <path d="M 26.372093 234.917812 
L 26.372093 126.742203 
" style="fill: none; stroke: #262626; stroke-width: 0.5; stroke-linejoin: miter; stroke-linecap: square"/>
   </g>
   <g id="patch_9">
    <path d="M 130.186047 234.917812 
L 130.186047 126.742203 
" style="fill: none; stroke: #262626; stroke-width: 0.5; stroke-linejoin: miter; stroke-linecap: square"/>
   </g>
   <g id="patch_10">
    <path d="M 26.372093 234.917812 
L 130.186047 234.917812 
" style="fill: none; stroke: #262626; stroke-width: 0.5; stroke-linejoin: miter; stroke-linecap: square"/>
   </g>
   <g id="patch_11">
    <path d="M 26.372093 126.742203 
L 130.186047 126.742203 
" style="fill: none; stroke: #262626; stroke-width: 0.5; stroke-linejoin: miter; stroke-linecap: square"/>
   </g>
  </g>
  <g id="axes_3">
   <g id="patch_12">
    <path d="M 140.567442 121.333422 
L 244.381395 121.333422 
L 244.381395 13.157812 
L 140.567442 13.157812 
L 140.567442 121.333422 
z
" style="fill: none"/>
   </g>
   <g id="matplotlib.axis_5">
    <g id="xtick_7">
     <g id="line2d_20">
      <g>
       <use xlink:href="#mf9b5bc32a7" x="145.286258" y="121.333422" style="fill: #262626; stroke: #262626; stroke-width: 0.5"/>
      </g>
     </g>
    </g>
    <g id="xtick_8">
     <g id="line2d_21">
      <g>
       <use xlink:href="#mf9b5bc32a7" x="192.474419" y="121.333422" style="fill: #262626; stroke: #262626; stroke-width: 0.5"/>
      </g>
     </g>
    </g>
    <g id="xtick_9">
     <g id="line2d_22">
      <g>
       <use xlink:href="#mf9b5bc32a7" x="239.662579" y="121.333422" style="fill: #262626; stroke: #262626; stroke-width: 0.5"/>
      </g>
     </g>
    </g>
   </g>
   <g id="matplotlib.axis_6">
    <g id="ytick_6">
     <g id="line2d_23">
      <g>
       <use xlink:href="#m1661f5dafc" x="140.567442" y="116.416349" style="fill: #262626; stroke: #262626; stroke-width: 0.5"/>
      </g>
     </g>
    </g>
    <g id="ytick_7">
     <g id="line2d_24">
      <g>
       <use xlink:href="#m1661f5dafc" x="140.567442" y="18.074886" style="fill: #262626; stroke: #262626; stroke-width: 0.5"/>
      </g>
     </g>
    </g>
   </g>
   <g id="PolyCollection_5"/>
   <g id="PolyCollection_6"/>
   <g id="line2d_25">
    <path d="M 145.286258 116.416349 
L 150.476956 83.144611 
L 153.213869 67.023079 
L 155.478901 54.94938 
L 157.460803 45.555411 
L 159.253953 38.129475 
L 160.858351 32.424513 
L 162.273996 28.166222 
L 163.595264 24.866991 
L 164.822156 22.394355 
L 165.954672 20.616622 
L 166.992812 19.407757 
L 167.936575 18.650909 
L 168.785962 18.240719 
L 169.635349 18.078514 
L 170.484736 18.154001 
L 171.334123 18.455009 
L 172.277886 19.036754 
L 173.316025 19.951541 
L 174.542918 21.358625 
L 175.958562 23.340786 
L 177.940465 26.551909 
L 182.093023 33.410387 
L 183.508668 35.281224 
L 184.641184 36.449579 
L 185.679323 37.211585 
L 186.623087 37.6199 
L 187.472474 37.743112 
L 188.32186 37.631041 
L 189.171247 37.286912 
L 190.115011 36.644532 
L 191.15315 35.647913 
L 192.380042 34.132922 
L 193.890063 31.88389 
L 196.343848 27.751471 
L 199.080761 23.259258 
L 200.685159 21.054808 
L 201.912051 19.713406 
L 203.044567 18.800273 
L 203.98833 18.30938 
L 204.837717 18.09632 
L 205.687104 18.113841 
L 206.53649 18.373361 
L 207.385877 18.884444 
L 208.235264 19.654839 
L 209.179027 20.822191 
L 210.217167 22.491303 
L 211.349683 24.776679 
L 212.576575 27.799835 
L 213.897844 31.685414 
L 215.313488 36.55598 
L 216.917886 42.924038 
L 218.711036 51.038358 
L 220.692939 61.111129 
L 222.95797 73.83346 
L 225.694884 90.528935 
L 229.658689 116.152389 
L 229.753066 116.062413 
L 234.943763 82.813041 
L 237.680677 66.720147 
L 239.662579 56.109235 
L 239.662579 56.109235 
" clip-path="url(#p6f0da8c677)" style="fill: none; stroke: #a3a3a3; stroke-linecap: round"/>
   </g>
   <g id="line2d_26">
    <path d="M 145.286258 116.416349 
L 150.476956 83.144611 
L 153.213869 67.023079 
L 155.478901 54.94938 
L 157.460803 45.555411 
L 159.253953 38.129475 
L 160.858351 32.424513 
L 162.273996 28.166222 
L 163.595264 24.866991 
L 164.822156 22.394355 
L 165.954672 20.616622 
L 166.992812 19.407757 
L 167.936575 18.650909 
L 168.785962 18.240719 
L 169.635349 18.078514 
L 170.484736 18.154001 
L 171.334123 18.455009 
L 172.277886 19.036754 
L 173.316025 19.951541 
L 174.542918 21.358625 
L 175.958562 23.340786 
L 177.940465 26.551909 
L 182.093023 33.410387 
L 183.508668 35.281224 
L 184.641184 36.449579 
L 185.679323 37.211585 
L 186.623087 37.6199 
L 187.472474 37.743112 
L 188.32186 37.631041 
L 189.171247 37.286912 
L 190.115011 36.644532 
L 191.15315 35.647913 
L 192.380042 34.132922 
L 193.890063 31.88389 
L 196.343848 27.751471 
L 199.080761 23.259258 
L 200.685159 21.054808 
L 201.912051 19.713406 
L 203.044567 18.800273 
L 203.98833 18.30938 
L 204.837717 18.09632 
L 205.687104 18.113841 
L 206.53649 18.373361 
L 207.385877 18.884444 
L 208.235264 19.654839 
L 209.179027 20.822191 
L 210.217167 22.491303 
L 211.349683 24.776679 
L 212.576575 27.799835 
L 213.897844 31.685414 
L 215.313488 36.55598 
L 216.917886 42.924038 
L 218.711036 51.038358 
L 220.692939 61.111129 
L 222.95797 73.83346 
L 225.694884 90.528935 
L 229.658689 116.152389 
L 229.753066 116.062413 
L 234.943763 82.813041 
L 237.680677 66.720147 
L 239.662579 56.109235 
L 239.662579 56.109235 
" clip-path="url(#p6f0da8c677)" style="fill: none; stroke: #ff7c00; stroke-linecap: round"/>
   </g>
   <g id="line2d_27"/>
   <g id="line2d_28"/>
   <g id="patch_13">
    <path d="M 140.567442 121.333422 
L 140.567442 13.157812 
" style="fill: none; stroke: #262626; stroke-width: 0.5; stroke-linejoin: miter; stroke-linecap: square"/>
   </g>
   <g id="patch_14">
    <path d="M 244.381395 121.333422 
L 244.381395 13.157812 
" style="fill: none; stroke: #262626; stroke-width: 0.5; stroke-linejoin: miter; stroke-linecap: square"/>
   </g>
   <g id="patch_15">
    <path d="M 140.567442 121.333422 
L 244.381395 121.333422 
" style="fill: none; stroke: #262626; stroke-width: 0.5; stroke-linejoin: miter; stroke-linecap: square"/>
   </g>
   <g id="patch_16">
    <path d="M 140.567442 13.157812 
L 244.381395 13.157812 
" style="fill: none; stroke: #262626; stroke-width: 0.5; stroke-linejoin: miter; stroke-linecap: square"/>
   </g>
   <g id="text_15">
    <!-- $\Omega/2\pi = 100 Hz$ -->
    <g style="fill: #262626" transform="translate(158.874419 7.157812) scale(0.1 -0.1)">
     <defs>
      <path id="DejaVuSans-31" d="M 794 531 
L 1825 531 
L 1825 4091 
L 703 3866 
L 703 4441 
L 1819 4666 
L 2450 4666 
L 2450 531 
L 3481 531 
L 3481 0 
L 794 0 
L 794 531 
z
" transform="scale(0.015625)"/>
     </defs>
     <use xlink:href="#DejaVuSans-3a9" transform="translate(0 0.78125)"/>
     <use xlink:href="#DejaVuSans-2f" transform="translate(76.416016 0.78125)"/>
     <use xlink:href="#DejaVuSans-32" transform="translate(106.482422 0.78125)"/>
     <use xlink:href="#DejaVuSans-Oblique-3c0" transform="translate(170.105469 0.78125)"/>
     <use xlink:href="#DejaVuSans-3d" transform="translate(249.792969 0.78125)"/>
     <use xlink:href="#DejaVuSans-31" transform="translate(353.064453 0.78125)"/>
     <use xlink:href="#DejaVuSans-30" transform="translate(416.6875 0.78125)"/>
     <use xlink:href="#DejaVuSans-30" transform="translate(480.310547 0.78125)"/>
     <use xlink:href="#DejaVuSans-Oblique-48" transform="translate(543.933594 0.78125)"/>
     <use xlink:href="#DejaVuSans-Oblique-7a" transform="translate(619.128906 0.78125)"/>
    </g>
   </g>
   <g id="legend_2">
    <g id="line2d_29">
     <path d="M 171.270669 98.427172 
L 179.270669 98.427172 
L 187.270669 98.427172 
" style="fill: none; stroke: #a3a3a3; stroke-width: 1.5; stroke-linecap: round"/>
    </g>
    <g id="text_16">
     <!-- Sim -->
     <g style="fill: #262626" transform="translate(193.670669 101.227172) scale(0.08 -0.08)">
      <use xlink:href="#ArialMT-53"/>
      <use xlink:href="#ArialMT-69" x="66.699219"/>
      <use xlink:href="#ArialMT-6d" x="88.916016"/>
     </g>
    </g>
    <g id="line2d_30">
     <path d="M 171.270669 109.743422 
L 179.270669 109.743422 
L 187.270669 109.743422 
" style="fill: none; stroke: #ff7c00; stroke-width: 1.5; stroke-linecap: round"/>
    </g>
    <g id="text_17">
     <!-- Exact -->
     <g style="fill: #262626" transform="translate(193.670669 112.543422) scale(0.08 -0.08)">
      <use xlink:href="#ArialMT-45"/>
      <use xlink:href="#ArialMT-78" x="66.699219"/>
      <use xlink:href="#ArialMT-61" x="116.699219"/>
      <use xlink:href="#ArialMT-63" x="172.314453"/>
      <use xlink:href="#ArialMT-74" x="222.314453"/>
     </g>
    </g>
   </g>
  </g>
  <g id="axes_4">
   <g id="patch_17">
    <path d="M 140.567442 234.917812 
L 244.381395 234.917812 
L 244.381395 126.742203 
L 140.567442 126.742203 
L 140.567442 234.917812 
z
" style="fill: none"/>
   </g>
   <g id="matplotlib.axis_7">
    <g id="xtick_10">
     <g id="line2d_31">
      <g>
       <use xlink:href="#mf9b5bc32a7" x="145.286258" y="234.917812" style="fill: #262626; stroke: #262626; stroke-width: 0.5"/>
      </g>
     </g>
     <g id="text_18">
      <!-- 0.0 -->
      <g style="fill: #262626" transform="translate(139.726258 247.644062) scale(0.08 -0.08)">
       <use xlink:href="#ArialMT-30"/>
       <use xlink:href="#ArialMT-2e" x="55.615234"/>
       <use xlink:href="#ArialMT-30" x="83.398438"/>
      </g>
     </g>
    </g>
    <g id="xtick_11">
     <g id="line2d_32">
      <g>
       <use xlink:href="#mf9b5bc32a7" x="192.474419" y="234.917812" style="fill: #262626; stroke: #262626; stroke-width: 0.5"/>
      </g>
     </g>
     <g id="text_19">
      <!-- 2.5 -->
      <g style="fill: #262626" transform="translate(186.914419 247.644062) scale(0.08 -0.08)">
       <use xlink:href="#ArialMT-32"/>
       <use xlink:href="#ArialMT-2e" x="55.615234"/>
       <use xlink:href="#ArialMT-35" x="83.398438"/>
      </g>
     </g>
    </g>
    <g id="xtick_12">
     <g id="line2d_33">
      <g>
       <use xlink:href="#mf9b5bc32a7" x="239.662579" y="234.917812" style="fill: #262626; stroke: #262626; stroke-width: 0.5"/>
      </g>
     </g>
     <g id="text_20">
      <!-- 5.0 -->
      <g style="fill: #262626" transform="translate(234.102579 247.644062) scale(0.08 -0.08)">
       <use xlink:href="#ArialMT-35"/>
       <use xlink:href="#ArialMT-2e" x="55.615234"/>
       <use xlink:href="#ArialMT-30" x="83.398438"/>
      </g>
     </g>
    </g>
    <g id="text_21">
     <!-- $t$ (ms) -->
     <g style="fill: #262626" transform="translate(179.124419 258.444154) scale(0.1 -0.1)">
      <use xlink:href="#DejaVuSans-Oblique-74" transform="translate(0 0.203125)"/>
      <use xlink:href="#ArialMT-20" transform="translate(39.208984 0.203125)"/>
      <use xlink:href="#ArialMT-28" transform="translate(66.992188 0.203125)"/>
      <use xlink:href="#ArialMT-6d" transform="translate(100.292969 0.203125)"/>
      <use xlink:href="#ArialMT-73" transform="translate(183.59375 0.203125)"/>
      <use xlink:href="#ArialMT-29" transform="translate(233.59375 0.203125)"/>
     </g>
    </g>
   </g>
   <g id="matplotlib.axis_8">
    <g id="ytick_8">
     <g id="line2d_34">
      <g>
       <use xlink:href="#m1661f5dafc" x="140.567442" y="232.342203" style="fill: #262626; stroke: #262626; stroke-width: 0.5"/>
      </g>
     </g>
    </g>
    <g id="ytick_9">
     <g id="line2d_35">
      <g>
       <use xlink:href="#m1661f5dafc" x="140.567442" y="180.830008" style="fill: #262626; stroke: #262626; stroke-width: 0.5"/>
      </g>
     </g>
    </g>
    <g id="ytick_10">
     <g id="line2d_36">
      <g>
       <use xlink:href="#m1661f5dafc" x="140.567442" y="129.317812" style="fill: #262626; stroke: #262626; stroke-width: 0.5"/>
      </g>
     </g>
    </g>
   </g>
   <g id="PolyCollection_7"/>
   <g id="PolyCollection_8"/>
   <g id="line2d_37">
    <path d="M 145.286258 129.317812 
L 146.230021 129.419452 
L 147.268161 129.765413 
L 148.3063 130.354649 
L 149.438816 131.270734 
L 150.665708 132.577524 
L 151.986977 134.338171 
L 153.402622 136.612174 
L 155.007019 139.642659 
L 156.800169 143.548063 
L 158.782072 148.4198 
L 161.14148 154.836184 
L 164.255899 164.01058 
L 172.466638 188.539556 
L 174.920423 194.97212 
L 176.902326 199.583178 
L 178.695476 203.213694 
L 180.299873 205.970908 
L 181.715518 207.985582 
L 183.036786 209.491431 
L 184.263679 210.552796 
L 185.396195 211.236603 
L 186.434334 211.609532 
L 187.472474 211.737278 
L 188.416237 211.639979 
L 189.454376 211.298767 
L 190.492516 210.714226 
L 191.625032 209.803169 
L 192.851924 208.501674 
L 194.173192 206.746503 
L 195.588837 204.478049 
L 197.193235 201.453381 
L 198.986385 197.553784 
L 200.968288 192.687495 
L 203.327696 186.276111 
L 206.442114 177.105605 
L 214.652854 152.571216 
L 217.106638 146.132826 
L 219.088541 141.515841 
L 220.881691 137.879138 
L 222.486089 135.115815 
L 223.901734 133.095375 
L 225.223002 131.583884 
L 226.449894 130.517105 
L 227.58241 129.828189 
L 228.62055 129.450517 
L 229.658689 129.317998 
L 230.602452 129.410957 
L 231.640592 129.747419 
L 232.678732 130.327263 
L 233.811247 131.233292 
L 235.03814 132.529489 
L 236.359408 134.279179 
L 237.775053 136.542078 
L 239.37945 139.560923 
L 239.662579 140.140777 
L 239.662579 140.140777 
" clip-path="url(#p60480a61ae)" style="fill: none; stroke: #a3a3a3; stroke-linecap: round"/>
   </g>
   <g id="line2d_38">
    <path d="M 145.286258 129.317812 
L 146.230021 129.419452 
L 147.268161 129.765413 
L 148.3063 130.354649 
L 149.438816 131.270734 
L 150.665708 132.577524 
L 151.986977 134.338171 
L 153.402622 136.612174 
L 155.007019 139.642659 
L 156.800169 143.548063 
L 158.782072 148.4198 
L 161.14148 154.836184 
L 164.255899 164.01058 
L 172.466638 188.539556 
L 174.920423 194.97212 
L 176.902326 199.583178 
L 178.695476 203.213694 
L 180.299873 205.970908 
L 181.715518 207.985582 
L 183.036786 209.491431 
L 184.263679 210.552796 
L 185.396195 211.236603 
L 186.434334 211.609532 
L 187.472474 211.737278 
L 188.416237 211.639979 
L 189.454376 211.298767 
L 190.492516 210.714226 
L 191.625032 209.803169 
L 192.851924 208.501674 
L 194.173192 206.746503 
L 195.588837 204.478049 
L 197.193235 201.453381 
L 198.986385 197.553784 
L 200.968288 192.687495 
L 203.327696 186.276111 
L 206.442114 177.105605 
L 214.652854 152.571216 
L 217.106638 146.132826 
L 219.088541 141.515841 
L 220.881691 137.879138 
L 222.486089 135.115815 
L 223.901734 133.095375 
L 225.223002 131.583884 
L 226.449894 130.517105 
L 227.58241 129.828189 
L 228.62055 129.450517 
L 229.658689 129.317998 
L 230.602452 129.410957 
L 231.640592 129.747419 
L 232.678732 130.327263 
L 233.811247 131.233292 
L 235.03814 132.529489 
L 236.359408 134.279179 
L 237.775053 136.542078 
L 239.37945 139.560923 
L 239.662579 140.140777 
L 239.662579 140.140777 
" clip-path="url(#p60480a61ae)" style="fill: none; stroke: #ff7c00; stroke-linecap: round"/>
   </g>
   <g id="patch_18">
    <path d="M 140.567442 234.917812 
L 140.567442 126.742203 
" style="fill: none; stroke: #262626; stroke-width: 0.5; stroke-linejoin: miter; stroke-linecap: square"/>
   </g>
   <g id="patch_19">
    <path d="M 244.381395 234.917812 
L 244.381395 126.742203 
" style="fill: none; stroke: #262626; stroke-width: 0.5; stroke-linejoin: miter; stroke-linecap: square"/>
   </g>
   <g id="patch_20">
    <path d="M 140.567442 234.917812 
L 244.381395 234.917812 
" style="fill: none; stroke: #262626; stroke-width: 0.5; stroke-linejoin: miter; stroke-linecap: square"/>
   </g>
   <g id="patch_21">
    <path d="M 140.567442 126.742203 
L 244.381395 126.742203 
" style="fill: none; stroke: #262626; stroke-width: 0.5; stroke-linejoin: miter; stroke-linecap: square"/>
   </g>
  </g>
  <g id="axes_5">
   <g id="patch_22">
    <path d="M 254.762791 121.333422 
L 358.576744 121.333422 
L 358.576744 13.157812 
L 254.762791 13.157812 
L 254.762791 121.333422 
z
" style="fill: none"/>
   </g>
   <g id="matplotlib.axis_9">
    <g id="xtick_13">
     <g id="line2d_39">
      <g>
       <use xlink:href="#mf9b5bc32a7" x="259.481607" y="121.333422" style="fill: #262626; stroke: #262626; stroke-width: 0.5"/>
      </g>
     </g>
    </g>
    <g id="xtick_14">
     <g id="line2d_40">
      <g>
       <use xlink:href="#mf9b5bc32a7" x="306.669767" y="121.333422" style="fill: #262626; stroke: #262626; stroke-width: 0.5"/>
      </g>
     </g>
    </g>
    <g id="xtick_15">
     <g id="line2d_41">
      <g>
       <use xlink:href="#mf9b5bc32a7" x="353.857928" y="121.333422" style="fill: #262626; stroke: #262626; stroke-width: 0.5"/>
      </g>
     </g>
    </g>
   </g>
   <g id="matplotlib.axis_10">
    <g id="ytick_11">
     <g id="line2d_42">
      <g>
       <use xlink:href="#m1661f5dafc" x="254.762791" y="116.416349" style="fill: #262626; stroke: #262626; stroke-width: 0.5"/>
      </g>
     </g>
    </g>
    <g id="ytick_12">
     <g id="line2d_43">
      <g>
       <use xlink:href="#m1661f5dafc" x="254.762791" y="18.074886" style="fill: #262626; stroke: #262626; stroke-width: 0.5"/>
      </g>
     </g>
    </g>
   </g>
   <g id="PolyCollection_9"/>
   <g id="PolyCollection_10"/>
   <g id="line2d_44">
    <path d="M 259.481607 116.416349 
L 264.389175 84.990942 
L 267.031712 69.506891 
L 269.202368 58.046504 
L 271.089894 49.198252 
L 272.788668 42.216669 
L 274.393066 36.5192 
L 275.903087 31.962125 
L 277.318732 28.3877 
L 278.64 25.636704 
L 279.866892 23.557862 
L 281.093784 21.900801 
L 282.320677 20.623182 
L 283.547569 19.677158 
L 284.774461 19.011052 
L 286.095729 18.545394 
L 287.605751 18.250242 
L 289.587653 18.101774 
L 293.928964 18.075214 
L 297.515264 18.185844 
L 299.214038 18.448959 
L 300.629683 18.887402 
L 301.856575 19.494511 
L 302.989091 20.290887 
L 304.121607 21.356206 
L 305.254123 22.729361 
L 306.386638 24.445687 
L 307.613531 26.727876 
L 308.840423 29.480905 
L 310.161691 32.999448 
L 311.577336 37.42656 
L 313.087357 42.905529 
L 314.691755 49.569486 
L 316.484905 57.996372 
L 318.466808 68.405148 
L 320.826216 82.061813 
L 323.846258 100.983112 
L 326.205666 116.350369 
L 326.677548 113.393436 
L 331.207611 84.475659 
L 333.850148 69.038581 
L 336.020803 57.628076 
L 337.90833 48.829321 
L 339.607104 41.895425 
L 341.211501 36.244243 
L 342.721522 31.730569 
L 344.137167 28.195632 
L 345.458436 25.479602 
L 346.685328 23.43096 
L 347.91222 21.801395 
L 349.139112 20.548144 
L 350.366004 19.62304 
L 351.592896 18.97421 
L 352.914165 18.523039 
L 353.857928 18.322312 
L 353.857928 18.322312 
" clip-path="url(#p8fc24a0aa8)" style="fill: none; stroke: #a3a3a3; stroke-linecap: round"/>
   </g>
   <g id="line2d_45">
    <path d="M 259.481607 116.416349 
L 264.389175 84.990942 
L 267.031712 69.506891 
L 269.202368 58.046504 
L 271.089894 49.198252 
L 272.788668 42.216669 
L 274.393066 36.5192 
L 275.903087 31.962125 
L 277.318732 28.3877 
L 278.64 25.636704 
L 279.866892 23.557862 
L 281.093784 21.900801 
L 282.320677 20.623182 
L 283.547569 19.677158 
L 284.774461 19.011052 
L 286.095729 18.545394 
L 287.605751 18.250242 
L 289.587653 18.101774 
L 293.928964 18.075214 
L 297.515264 18.185844 
L 299.214038 18.448959 
L 300.629683 18.887402 
L 301.856575 19.494511 
L 302.989091 20.290887 
L 304.121607 21.356206 
L 305.254123 22.729361 
L 306.386638 24.445687 
L 307.613531 26.727876 
L 308.840423 29.480905 
L 310.161691 32.999448 
L 311.577336 37.42656 
L 313.087357 42.905529 
L 314.691755 49.569486 
L 316.484905 57.996372 
L 318.466808 68.405148 
L 320.826216 82.061813 
L 323.846258 100.983112 
L 326.205666 116.350369 
L 326.677548 113.393436 
L 331.207611 84.475659 
L 333.850148 69.038581 
L 336.020803 57.628076 
L 337.90833 48.829321 
L 339.607104 41.895425 
L 341.211501 36.244243 
L 342.721522 31.730569 
L 344.137167 28.195632 
L 345.458436 25.479602 
L 346.685328 23.43096 
L 347.91222 21.801395 
L 349.139112 20.548144 
L 350.366004 19.62304 
L 351.592896 18.97421 
L 352.914165 18.523039 
L 353.857928 18.322312 
L 353.857928 18.322312 
" clip-path="url(#p8fc24a0aa8)" style="fill: none; stroke: #1ac938; stroke-linecap: round"/>
   </g>
   <g id="line2d_46"/>
   <g id="line2d_47"/>
   <g id="patch_23">
    <path d="M 254.762791 121.333422 
L 254.762791 13.157812 
" style="fill: none; stroke: #262626; stroke-width: 0.5; stroke-linejoin: miter; stroke-linecap: square"/>
   </g>
   <g id="patch_24">
    <path d="M 358.576744 121.333422 
L 358.576744 13.157812 
" style="fill: none; stroke: #262626; stroke-width: 0.5; stroke-linejoin: miter; stroke-linecap: square"/>
   </g>
   <g id="patch_25">
    <path d="M 254.762791 121.333422 
L 358.576744 121.333422 
" style="fill: none; stroke: #262626; stroke-width: 0.5; stroke-linejoin: miter; stroke-linecap: square"/>
   </g>
   <g id="patch_26">
    <path d="M 254.762791 13.157812 
L 358.576744 13.157812 
" style="fill: none; stroke: #262626; stroke-width: 0.5; stroke-linejoin: miter; stroke-linecap: square"/>
   </g>
   <g id="text_22">
    <!-- $\Omega/2\pi = 200 Hz$ -->
    <g style="fill: #262626" transform="translate(273.069767 7.157812) scale(0.1 -0.1)">
     <use xlink:href="#DejaVuSans-3a9" transform="translate(0 0.78125)"/>
     <use xlink:href="#DejaVuSans-2f" transform="translate(76.416016 0.78125)"/>
     <use xlink:href="#DejaVuSans-32" transform="translate(106.482422 0.78125)"/>
     <use xlink:href="#DejaVuSans-Oblique-3c0" transform="translate(170.105469 0.78125)"/>
     <use xlink:href="#DejaVuSans-3d" transform="translate(249.792969 0.78125)"/>
     <use xlink:href="#DejaVuSans-32" transform="translate(353.064453 0.78125)"/>
     <use xlink:href="#DejaVuSans-30" transform="translate(416.6875 0.78125)"/>
     <use xlink:href="#DejaVuSans-30" transform="translate(480.310547 0.78125)"/>
     <use xlink:href="#DejaVuSans-Oblique-48" transform="translate(543.933594 0.78125)"/>
     <use xlink:href="#DejaVuSans-Oblique-7a" transform="translate(619.128906 0.78125)"/>
    </g>
   </g>
   <g id="legend_3">
    <g id="line2d_48">
     <path d="M 285.466017 98.427172 
L 293.466017 98.427172 
L 301.466017 98.427172 
" style="fill: none; stroke: #a3a3a3; stroke-width: 1.5; stroke-linecap: round"/>
    </g>
    <g id="text_23">
     <!-- Sim -->
     <g style="fill: #262626" transform="translate(307.866017 101.227172) scale(0.08 -0.08)">
      <use xlink:href="#ArialMT-53"/>
      <use xlink:href="#ArialMT-69" x="66.699219"/>
      <use xlink:href="#ArialMT-6d" x="88.916016"/>
     </g>
    </g>
    <g id="line2d_49">
     <path d="M 285.466017 109.743422 
L 293.466017 109.743422 
L 301.466017 109.743422 
" style="fill: none; stroke: #1ac938; stroke-width: 1.5; stroke-linecap: round"/>
    </g>
    <g id="text_24">
     <!-- Exact -->
     <g style="fill: #262626" transform="translate(307.866017 112.543422) scale(0.08 -0.08)">
      <use xlink:href="#ArialMT-45"/>
      <use xlink:href="#ArialMT-78" x="66.699219"/>
      <use xlink:href="#ArialMT-61" x="116.699219"/>
      <use xlink:href="#ArialMT-63" x="172.314453"/>
      <use xlink:href="#ArialMT-74" x="222.314453"/>
     </g>
    </g>
   </g>
  </g>
  <g id="axes_6">
   <g id="patch_27">
    <path d="M 254.762791 234.917812 
L 358.576744 234.917812 
L 358.576744 126.742203 
L 254.762791 126.742203 
L 254.762791 234.917812 
z
" style="fill: none"/>
   </g>
   <g id="matplotlib.axis_11">
    <g id="xtick_16">
     <g id="line2d_50">
      <g>
       <use xlink:href="#mf9b5bc32a7" x="259.481607" y="234.917812" style="fill: #262626; stroke: #262626; stroke-width: 0.5"/>
      </g>
     </g>
     <g id="text_25">
      <!-- 0.0 -->
      <g style="fill: #262626" transform="translate(253.921607 247.644062) scale(0.08 -0.08)">
       <use xlink:href="#ArialMT-30"/>
       <use xlink:href="#ArialMT-2e" x="55.615234"/>
       <use xlink:href="#ArialMT-30" x="83.398438"/>
      </g>
     </g>
    </g>
    <g id="xtick_17">
     <g id="line2d_51">
      <g>
       <use xlink:href="#mf9b5bc32a7" x="306.669767" y="234.917812" style="fill: #262626; stroke: #262626; stroke-width: 0.5"/>
      </g>
     </g>
     <g id="text_26">
      <!-- 2.5 -->
      <g style="fill: #262626" transform="translate(301.109767 247.644062) scale(0.08 -0.08)">
       <use xlink:href="#ArialMT-32"/>
       <use xlink:href="#ArialMT-2e" x="55.615234"/>
       <use xlink:href="#ArialMT-35" x="83.398438"/>
      </g>
     </g>
    </g>
    <g id="xtick_18">
     <g id="line2d_52">
      <g>
       <use xlink:href="#mf9b5bc32a7" x="353.857928" y="234.917812" style="fill: #262626; stroke: #262626; stroke-width: 0.5"/>
      </g>
     </g>
     <g id="text_27">
      <!-- 5.0 -->
      <g style="fill: #262626" transform="translate(348.297928 247.644062) scale(0.08 -0.08)">
       <use xlink:href="#ArialMT-35"/>
       <use xlink:href="#ArialMT-2e" x="55.615234"/>
       <use xlink:href="#ArialMT-30" x="83.398438"/>
      </g>
     </g>
    </g>
    <g id="text_28">
     <!-- $t$ (ms) -->
     <g style="fill: #262626" transform="translate(293.319767 258.444154) scale(0.1 -0.1)">
      <use xlink:href="#DejaVuSans-Oblique-74" transform="translate(0 0.203125)"/>
      <use xlink:href="#ArialMT-20" transform="translate(39.208984 0.203125)"/>
      <use xlink:href="#ArialMT-28" transform="translate(66.992188 0.203125)"/>
      <use xlink:href="#ArialMT-6d" transform="translate(100.292969 0.203125)"/>
      <use xlink:href="#ArialMT-73" transform="translate(183.59375 0.203125)"/>
      <use xlink:href="#ArialMT-29" transform="translate(233.59375 0.203125)"/>
     </g>
    </g>
   </g>
   <g id="matplotlib.axis_12">
    <g id="ytick_13">
     <g id="line2d_53">
      <g>
       <use xlink:href="#m1661f5dafc" x="254.762791" y="232.342203" style="fill: #262626; stroke: #262626; stroke-width: 0.5"/>
      </g>
     </g>
    </g>
    <g id="ytick_14">
     <g id="line2d_54">
      <g>
       <use xlink:href="#m1661f5dafc" x="254.762791" y="180.830008" style="fill: #262626; stroke: #262626; stroke-width: 0.5"/>
      </g>
     </g>
    </g>
    <g id="ytick_15">
     <g id="line2d_55">
      <g>
       <use xlink:href="#m1661f5dafc" x="254.762791" y="129.317812" style="fill: #262626; stroke: #262626; stroke-width: 0.5"/>
      </g>
     </g>
    </g>
   </g>
   <g id="PolyCollection_11"/>
   <g id="PolyCollection_12"/>
   <g id="line2d_56">
    <path d="M 259.481607 129.317812 
L 260.42537 129.419427 
L 261.46351 129.764926 
L 262.501649 130.352029 
L 263.634165 131.261408 
L 264.861057 132.551406 
L 266.182326 134.275778 
L 267.692347 136.638314 
L 269.391121 139.738161 
L 271.373023 143.843309 
L 273.921184 149.672705 
L 281.848795 168.20831 
L 283.830698 172.090584 
L 285.529471 174.952596 
L 287.039493 177.072586 
L 288.360761 178.564679 
L 289.587653 179.625508 
L 290.720169 180.31453 
L 291.758309 180.694402 
L 292.796448 180.829696 
L 293.740211 180.739322 
L 294.778351 180.406084 
L 295.81649 179.831021 
L 296.949006 178.934389 
L 298.175899 177.657581 
L 299.497167 175.946496 
L 301.007188 173.597727 
L 302.705962 170.511226 
L 304.687865 166.418351 
L 307.236025 160.598884 
L 315.258013 141.851691 
L 317.239915 137.980643 
L 318.938689 135.130388 
L 320.44871 133.022249 
L 321.769979 131.541411 
L 322.996871 130.491614 
L 324.129387 129.813142 
L 325.167526 129.443145 
L 326.205666 129.317824 
L 327.149429 129.417269 
L 328.187569 129.760404 
L 329.225708 130.345185 
L 330.358224 131.252106 
L 331.585116 132.539561 
L 332.906385 134.261373 
L 334.416406 136.621256 
L 336.11518 139.718534 
L 338.097082 143.821321 
L 340.645243 149.648812 
L 348.572854 168.187282 
L 350.554757 172.072232 
L 352.253531 174.937048 
L 353.763552 177.059866 
L 353.857928 177.17821 
L 353.857928 177.17821 
" clip-path="url(#p46f8c4edc1)" style="fill: none; stroke: #a3a3a3; stroke-linecap: round"/>
   </g>
   <g id="line2d_57">
    <path d="M 259.481607 129.317812 
L 260.42537 129.419427 
L 261.46351 129.764926 
L 262.501649 130.352029 
L 263.634165 131.261408 
L 264.861057 132.551406 
L 266.182326 134.275778 
L 267.692347 136.638314 
L 269.391121 139.738161 
L 271.373023 143.843309 
L 273.921184 149.672705 
L 281.848795 168.20831 
L 283.830698 172.090584 
L 285.529471 174.952596 
L 287.039493 177.072586 
L 288.360761 178.564679 
L 289.587653 179.625508 
L 290.720169 180.31453 
L 291.758309 180.694402 
L 292.796448 180.829696 
L 293.740211 180.739322 
L 294.778351 180.406084 
L 295.81649 179.831021 
L 296.949006 178.934389 
L 298.175899 177.657581 
L 299.497167 175.946496 
L 301.007188 173.597727 
L 302.705962 170.511226 
L 304.687865 166.418351 
L 307.236025 160.598884 
L 315.258013 141.851691 
L 317.239915 137.980643 
L 318.938689 135.130388 
L 320.44871 133.022249 
L 321.769979 131.541411 
L 322.996871 130.491614 
L 324.129387 129.813142 
L 325.167526 129.443145 
L 326.205666 129.317824 
L 327.149429 129.417269 
L 328.187569 129.760404 
L 329.225708 130.345185 
L 330.358224 131.252106 
L 331.585116 132.539561 
L 332.906385 134.261373 
L 334.416406 136.621256 
L 336.11518 139.718534 
L 338.097082 143.821321 
L 340.645243 149.648812 
L 348.572854 168.187282 
L 350.554757 172.072232 
L 352.253531 174.937048 
L 353.763552 177.059866 
L 353.857928 177.17821 
L 353.857928 177.17821 
" clip-path="url(#p46f8c4edc1)" style="fill: none; stroke: #1ac938; stroke-linecap: round"/>
   </g>
   <g id="patch_28">
    <path d="M 254.762791 234.917812 
L 254.762791 126.742203 
" style="fill: none; stroke: #262626; stroke-width: 0.5; stroke-linejoin: miter; stroke-linecap: square"/>
   </g>
   <g id="patch_29">
    <path d="M 358.576744 234.917812 
L 358.576744 126.742203 
" style="fill: none; stroke: #262626; stroke-width: 0.5; stroke-linejoin: miter; stroke-linecap: square"/>
   </g>
   <g id="patch_30">
    <path d="M 254.762791 234.917812 
L 358.576744 234.917812 
" style="fill: none; stroke: #262626; stroke-width: 0.5; stroke-linejoin: miter; stroke-linecap: square"/>
   </g>
   <g id="patch_31">
    <path d="M 254.762791 126.742203 
L 358.576744 126.742203 
" style="fill: none; stroke: #262626; stroke-width: 0.5; stroke-linejoin: miter; stroke-linecap: square"/>
   </g>
  </g>
  <g id="axes_7">
   <g id="patch_32">
    <path d="M 368.95814 234.917812 
L 472.772093 234.917812 
L 472.772093 13.157812 
L 368.95814 13.157812 
L 368.95814 234.917812 
z
" style="fill: none"/>
   </g>
   <g id="matplotlib.axis_13">
    <g id="xtick_19">
     <g id="line2d_58">
      <g>
       <use xlink:href="#mf9b5bc32a7" x="373.676956" y="234.917812" style="fill: #262626; stroke: #262626; stroke-width: 0.5"/>
      </g>
     </g>
     <g id="text_29">
      <!-- $\mathdefault{10^{3}}$ -->
      <g style="fill: #262626" transform="translate(367.396956 250.167812) scale(0.08 -0.08)">
       <defs>
        <path id="ArialMT-33" d="M 269 1209 
L 831 1284 
Q 928 806 1161 595 
Q 1394 384 1728 384 
Q 2125 384 2398 659 
Q 2672 934 2672 1341 
Q 2672 1728 2419 1979 
Q 2166 2231 1775 2231 
Q 1616 2231 1378 2169 
L 1441 2663 
Q 1497 2656 1531 2656 
Q 1891 2656 2178 2843 
Q 2466 3031 2466 3422 
Q 2466 3731 2256 3934 
Q 2047 4138 1716 4138 
Q 1388 4138 1169 3931 
Q 950 3725 888 3313 
L 325 3413 
Q 428 3978 793 4289 
Q 1159 4600 1703 4600 
Q 2078 4600 2393 4439 
Q 2709 4278 2876 4000 
Q 3044 3722 3044 3409 
Q 3044 3113 2884 2869 
Q 2725 2625 2413 2481 
Q 2819 2388 3044 2092 
Q 3269 1797 3269 1353 
Q 3269 753 2831 336 
Q 2394 -81 1725 -81 
Q 1122 -81 723 278 
Q 325 638 269 1209 
z
" transform="scale(0.015625)"/>
       </defs>
       <use xlink:href="#ArialMT-31" transform="translate(0 0.99375)"/>
       <use xlink:href="#ArialMT-30" transform="translate(55.615234 0.99375)"/>
       <use xlink:href="#ArialMT-33" transform="translate(112.972813 70.6875) scale(0.7)"/>
      </g>
     </g>
    </g>
    <g id="xtick_20">
     <g id="line2d_59">
      <g>
       <use xlink:href="#mf9b5bc32a7" x="429.226095" y="234.917812" style="fill: #262626; stroke: #262626; stroke-width: 0.5"/>
      </g>
     </g>
     <g id="text_30">
      <!-- $\mathdefault{10^{4}}$ -->
      <g style="fill: #262626" transform="translate(422.946095 250.087812) scale(0.08 -0.08)">
       <defs>
        <path id="ArialMT-34" d="M 2069 0 
L 2069 1097 
L 81 1097 
L 81 1613 
L 2172 4581 
L 2631 4581 
L 2631 1613 
L 3250 1613 
L 3250 1097 
L 2631 1097 
L 2631 0 
L 2069 0 
z
M 2069 1613 
L 2069 3678 
L 634 1613 
L 2069 1613 
z
" transform="scale(0.015625)"/>
       </defs>
       <use xlink:href="#ArialMT-31" transform="translate(0 0.201563)"/>
       <use xlink:href="#ArialMT-30" transform="translate(55.615234 0.201563)"/>
       <use xlink:href="#ArialMT-34" transform="translate(112.972813 69.895313) scale(0.7)"/>
      </g>
     </g>
    </g>
    <g id="xtick_21">
     <g id="line2d_60">
      <defs>
       <path id="m32cd6a5033" d="M 0 0 
L 0 1.75 
" style="stroke: #262626; stroke-width: 0.25"/>
      </defs>
      <g>
       <use xlink:href="#m32cd6a5033" x="371.135166" y="234.917812" style="fill: #262626; stroke: #262626; stroke-width: 0.25"/>
      </g>
     </g>
    </g>
    <g id="xtick_22">
     <g id="line2d_61">
      <g>
       <use xlink:href="#m32cd6a5033" x="390.398913" y="234.917812" style="fill: #262626; stroke: #262626; stroke-width: 0.25"/>
      </g>
     </g>
    </g>
    <g id="xtick_23">
     <g id="line2d_62">
      <g>
       <use xlink:href="#m32cd6a5033" x="400.180631" y="234.917812" style="fill: #262626; stroke: #262626; stroke-width: 0.25"/>
      </g>
     </g>
    </g>
    <g id="xtick_24">
     <g id="line2d_63">
      <g>
       <use xlink:href="#m32cd6a5033" x="407.12087" y="234.917812" style="fill: #262626; stroke: #262626; stroke-width: 0.25"/>
      </g>
     </g>
    </g>
    <g id="xtick_25">
     <g id="line2d_64">
      <g>
       <use xlink:href="#m32cd6a5033" x="412.504138" y="234.917812" style="fill: #262626; stroke: #262626; stroke-width: 0.25"/>
      </g>
     </g>
    </g>
    <g id="xtick_26">
     <g id="line2d_65">
      <g>
       <use xlink:href="#m32cd6a5033" x="416.902588" y="234.917812" style="fill: #262626; stroke: #262626; stroke-width: 0.25"/>
      </g>
     </g>
    </g>
    <g id="xtick_27">
     <g id="line2d_66">
      <g>
       <use xlink:href="#m32cd6a5033" x="420.621424" y="234.917812" style="fill: #262626; stroke: #262626; stroke-width: 0.25"/>
      </g>
     </g>
    </g>
    <g id="xtick_28">
     <g id="line2d_67">
      <g>
       <use xlink:href="#m32cd6a5033" x="423.842827" y="234.917812" style="fill: #262626; stroke: #262626; stroke-width: 0.25"/>
      </g>
     </g>
    </g>
    <g id="xtick_29">
     <g id="line2d_68">
      <g>
       <use xlink:href="#m32cd6a5033" x="426.684306" y="234.917812" style="fill: #262626; stroke: #262626; stroke-width: 0.25"/>
      </g>
     </g>
    </g>
    <g id="xtick_30">
     <g id="line2d_69">
      <g>
       <use xlink:href="#m32cd6a5033" x="445.948052" y="234.917812" style="fill: #262626; stroke: #262626; stroke-width: 0.25"/>
      </g>
     </g>
    </g>
    <g id="xtick_31">
     <g id="line2d_70">
      <g>
       <use xlink:href="#m32cd6a5033" x="455.72977" y="234.917812" style="fill: #262626; stroke: #262626; stroke-width: 0.25"/>
      </g>
     </g>
    </g>
    <g id="xtick_32">
     <g id="line2d_71">
      <g>
       <use xlink:href="#m32cd6a5033" x="462.670009" y="234.917812" style="fill: #262626; stroke: #262626; stroke-width: 0.25"/>
      </g>
     </g>
    </g>
    <g id="xtick_33">
     <g id="line2d_72">
      <g>
       <use xlink:href="#m32cd6a5033" x="468.053277" y="234.917812" style="fill: #262626; stroke: #262626; stroke-width: 0.25"/>
      </g>
     </g>
    </g>
    <g id="xtick_34">
     <g id="line2d_73">
      <g>
       <use xlink:href="#m32cd6a5033" x="472.451727" y="234.917812" style="fill: #262626; stroke: #262626; stroke-width: 0.25"/>
      </g>
     </g>
    </g>
    <g id="text_31">
     <!-- Simulation Steps -->
     <g style="fill: #262626" transform="translate(383.347148 257.7207) scale(0.1 -0.1)">
      <defs>
       <path id="ArialMT-75" d="M 2597 0 
L 2597 488 
Q 2209 -75 1544 -75 
Q 1250 -75 995 37 
Q 741 150 617 320 
Q 494 491 444 738 
Q 409 903 409 1263 
L 409 3319 
L 972 3319 
L 972 1478 
Q 972 1038 1006 884 
Q 1059 663 1231 536 
Q 1403 409 1656 409 
Q 1909 409 2131 539 
Q 2353 669 2445 892 
Q 2538 1116 2538 1541 
L 2538 3319 
L 3100 3319 
L 3100 0 
L 2597 0 
z
" transform="scale(0.015625)"/>
       <path id="ArialMT-6c" d="M 409 0 
L 409 4581 
L 972 4581 
L 972 0 
L 409 0 
z
" transform="scale(0.015625)"/>
       <path id="ArialMT-6f" d="M 213 1659 
Q 213 2581 725 3025 
Q 1153 3394 1769 3394 
Q 2453 3394 2887 2945 
Q 3322 2497 3322 1706 
Q 3322 1066 3130 698 
Q 2938 331 2570 128 
Q 2203 -75 1769 -75 
Q 1072 -75 642 372 
Q 213 819 213 1659 
z
M 791 1659 
Q 791 1022 1069 705 
Q 1347 388 1769 388 
Q 2188 388 2466 706 
Q 2744 1025 2744 1678 
Q 2744 2294 2464 2611 
Q 2184 2928 1769 2928 
Q 1347 2928 1069 2612 
Q 791 2297 791 1659 
z
" transform="scale(0.015625)"/>
       <path id="ArialMT-6e" d="M 422 0 
L 422 3319 
L 928 3319 
L 928 2847 
Q 1294 3394 1984 3394 
Q 2284 3394 2536 3286 
Q 2788 3178 2913 3003 
Q 3038 2828 3088 2588 
Q 3119 2431 3119 2041 
L 3119 0 
L 2556 0 
L 2556 2019 
Q 2556 2363 2490 2533 
Q 2425 2703 2258 2804 
Q 2091 2906 1866 2906 
Q 1506 2906 1245 2678 
Q 984 2450 984 1813 
L 984 0 
L 422 0 
z
" transform="scale(0.015625)"/>
       <path id="ArialMT-65" d="M 2694 1069 
L 3275 997 
Q 3138 488 2766 206 
Q 2394 -75 1816 -75 
Q 1088 -75 661 373 
Q 234 822 234 1631 
Q 234 2469 665 2931 
Q 1097 3394 1784 3394 
Q 2450 3394 2872 2941 
Q 3294 2488 3294 1666 
Q 3294 1616 3291 1516 
L 816 1516 
Q 847 969 1125 678 
Q 1403 388 1819 388 
Q 2128 388 2347 550 
Q 2566 713 2694 1069 
z
M 847 1978 
L 2700 1978 
Q 2663 2397 2488 2606 
Q 2219 2931 1791 2931 
Q 1403 2931 1139 2672 
Q 875 2413 847 1978 
z
" transform="scale(0.015625)"/>
       <path id="ArialMT-70" d="M 422 -1272 
L 422 3319 
L 934 3319 
L 934 2888 
Q 1116 3141 1344 3267 
Q 1572 3394 1897 3394 
Q 2322 3394 2647 3175 
Q 2972 2956 3137 2557 
Q 3303 2159 3303 1684 
Q 3303 1175 3120 767 
Q 2938 359 2589 142 
Q 2241 -75 1856 -75 
Q 1575 -75 1351 44 
Q 1128 163 984 344 
L 984 -1272 
L 422 -1272 
z
M 931 1641 
Q 931 1000 1190 694 
Q 1450 388 1819 388 
Q 2194 388 2461 705 
Q 2728 1022 2728 1688 
Q 2728 2322 2467 2637 
Q 2206 2953 1844 2953 
Q 1484 2953 1207 2617 
Q 931 2281 931 1641 
z
" transform="scale(0.015625)"/>
      </defs>
      <use xlink:href="#ArialMT-53"/>
      <use xlink:href="#ArialMT-69" x="66.699219"/>
      <use xlink:href="#ArialMT-6d" x="88.916016"/>
      <use xlink:href="#ArialMT-75" x="172.216797"/>
      <use xlink:href="#ArialMT-6c" x="227.832031"/>
      <use xlink:href="#ArialMT-61" x="250.048828"/>
      <use xlink:href="#ArialMT-74" x="305.664062"/>
      <use xlink:href="#ArialMT-69" x="333.447266"/>
      <use xlink:href="#ArialMT-6f" x="355.664062"/>
      <use xlink:href="#ArialMT-6e" x="411.279297"/>
      <use xlink:href="#ArialMT-20" x="466.894531"/>
      <use xlink:href="#ArialMT-53" x="494.677734"/>
      <use xlink:href="#ArialMT-74" x="561.376953"/>
      <use xlink:href="#ArialMT-65" x="589.160156"/>
      <use xlink:href="#ArialMT-70" x="644.775391"/>
      <use xlink:href="#ArialMT-73" x="700.390625"/>
     </g>
    </g>
   </g>
   <g id="matplotlib.axis_14">
    <g id="ytick_16">
     <g id="line2d_74">
      <g>
       <use xlink:href="#m1661f5dafc" x="368.95814" y="210.70282" style="fill: #262626; stroke: #262626; stroke-width: 0.5"/>
      </g>
     </g>
     <g id="text_32">
      <!-- $\mathdefault{10^{-15}}$ -->
      <g style="fill: #262626" transform="translate(342.99814 214.82782) scale(0.08 -0.08)">
       <defs>
        <path id="ArialMT-2212" d="M 3381 1997 
L 356 1997 
L 356 2522 
L 3381 2522 
L 3381 1997 
z
" transform="scale(0.015625)"/>
       </defs>
       <use xlink:href="#ArialMT-31" transform="translate(0 0.99375)"/>
       <use xlink:href="#ArialMT-30" transform="translate(55.615234 0.99375)"/>
       <use xlink:href="#ArialMT-2212" transform="translate(112.972813 70.6875) scale(0.7)"/>
       <use xlink:href="#ArialMT-31" transform="translate(153.851719 70.6875) scale(0.7)"/>
       <use xlink:href="#ArialMT-35" transform="translate(192.782383 70.6875) scale(0.7)"/>
      </g>
     </g>
    </g>
    <g id="ytick_17">
     <g id="line2d_75">
      <g>
       <use xlink:href="#m1661f5dafc" x="368.95814" y="176.703411" style="fill: #262626; stroke: #262626; stroke-width: 0.5"/>
      </g>
     </g>
     <g id="text_33">
      <!-- $\mathdefault{10^{-14}}$ -->
      <g style="fill: #262626" transform="translate(342.99814 180.828411) scale(0.08 -0.08)">
       <use xlink:href="#ArialMT-31" transform="translate(0 0.99375)"/>
       <use xlink:href="#ArialMT-30" transform="translate(55.615234 0.99375)"/>
       <use xlink:href="#ArialMT-2212" transform="translate(112.972813 70.6875) scale(0.7)"/>
       <use xlink:href="#ArialMT-31" transform="translate(153.851719 70.6875) scale(0.7)"/>
       <use xlink:href="#ArialMT-34" transform="translate(192.782383 70.6875) scale(0.7)"/>
      </g>
     </g>
    </g>
    <g id="ytick_18">
     <g id="line2d_76">
      <g>
       <use xlink:href="#m1661f5dafc" x="368.95814" y="142.704002" style="fill: #262626; stroke: #262626; stroke-width: 0.5"/>
      </g>
     </g>
     <g id="text_34">
      <!-- $\mathdefault{10^{-13}}$ -->
      <g style="fill: #262626" transform="translate(342.99814 146.829002) scale(0.08 -0.08)">
       <use xlink:href="#ArialMT-31" transform="translate(0 0.99375)"/>
       <use xlink:href="#ArialMT-30" transform="translate(55.615234 0.99375)"/>
       <use xlink:href="#ArialMT-2212" transform="translate(112.972813 70.6875) scale(0.7)"/>
       <use xlink:href="#ArialMT-31" transform="translate(153.851719 70.6875) scale(0.7)"/>
       <use xlink:href="#ArialMT-33" transform="translate(192.782383 70.6875) scale(0.7)"/>
      </g>
     </g>
    </g>
    <g id="ytick_19">
     <g id="line2d_77">
      <g>
       <use xlink:href="#m1661f5dafc" x="368.95814" y="108.704593" style="fill: #262626; stroke: #262626; stroke-width: 0.5"/>
      </g>
     </g>
     <g id="text_35">
      <!-- $\mathdefault{10^{-12}}$ -->
      <g style="fill: #262626" transform="translate(342.99814 112.829593) scale(0.08 -0.08)">
       <use xlink:href="#ArialMT-31" transform="translate(0 0.99375)"/>
       <use xlink:href="#ArialMT-30" transform="translate(55.615234 0.99375)"/>
       <use xlink:href="#ArialMT-2212" transform="translate(112.972813 70.6875) scale(0.7)"/>
       <use xlink:href="#ArialMT-31" transform="translate(153.851719 70.6875) scale(0.7)"/>
       <use xlink:href="#ArialMT-32" transform="translate(192.782383 70.6875) scale(0.7)"/>
      </g>
     </g>
    </g>
    <g id="ytick_20">
     <g id="line2d_78">
      <g>
       <use xlink:href="#m1661f5dafc" x="368.95814" y="74.705184" style="fill: #262626; stroke: #262626; stroke-width: 0.5"/>
      </g>
     </g>
     <g id="text_36">
      <!-- $\mathdefault{10^{-11}}$ -->
      <g style="fill: #262626" transform="translate(342.99814 78.830184) scale(0.08 -0.08)">
       <use xlink:href="#ArialMT-31" transform="translate(0 0.99375)"/>
       <use xlink:href="#ArialMT-30" transform="translate(55.615234 0.99375)"/>
       <use xlink:href="#ArialMT-2212" transform="translate(112.972813 70.6875) scale(0.7)"/>
       <use xlink:href="#ArialMT-31" transform="translate(153.851719 70.6875) scale(0.7)"/>
       <use xlink:href="#ArialMT-31" transform="translate(192.782383 70.6875) scale(0.7)"/>
      </g>
     </g>
    </g>
    <g id="ytick_21">
     <g id="line2d_79">
      <g>
       <use xlink:href="#m1661f5dafc" x="368.95814" y="40.705775" style="fill: #262626; stroke: #262626; stroke-width: 0.5"/>
      </g>
     </g>
     <g id="text_37">
      <!-- $\mathdefault{10^{-10}}$ -->
      <g style="fill: #262626" transform="translate(342.99814 44.830775) scale(0.08 -0.08)">
       <use xlink:href="#ArialMT-31" transform="translate(0 0.99375)"/>
       <use xlink:href="#ArialMT-30" transform="translate(55.615234 0.99375)"/>
       <use xlink:href="#ArialMT-2212" transform="translate(112.972813 70.6875) scale(0.7)"/>
       <use xlink:href="#ArialMT-31" transform="translate(153.851719 70.6875) scale(0.7)"/>
       <use xlink:href="#ArialMT-30" transform="translate(192.782383 70.6875) scale(0.7)"/>
      </g>
     </g>
    </g>
    <g id="ytick_22">
     <g id="line2d_80">
      <defs>
       <path id="m053a574147" d="M 0 0 
L -1.75 0 
" style="stroke: #262626; stroke-width: 0.25"/>
      </defs>
      <g>
       <use xlink:href="#m053a574147" x="368.95814" y="234.467387" style="fill: #262626; stroke: #262626; stroke-width: 0.25"/>
      </g>
     </g>
    </g>
    <g id="ytick_23">
     <g id="line2d_81">
      <g>
       <use xlink:href="#m053a574147" x="368.95814" y="228.480389" style="fill: #262626; stroke: #262626; stroke-width: 0.25"/>
      </g>
     </g>
    </g>
    <g id="ytick_24">
     <g id="line2d_82">
      <g>
       <use xlink:href="#m053a574147" x="368.95814" y="224.232545" style="fill: #262626; stroke: #262626; stroke-width: 0.25"/>
      </g>
     </g>
    </g>
    <g id="ytick_25">
     <g id="line2d_83">
      <g>
       <use xlink:href="#m053a574147" x="368.95814" y="220.937662" style="fill: #262626; stroke: #262626; stroke-width: 0.25"/>
      </g>
     </g>
    </g>
    <g id="ytick_26">
     <g id="line2d_84">
      <g>
       <use xlink:href="#m053a574147" x="368.95814" y="218.245547" style="fill: #262626; stroke: #262626; stroke-width: 0.25"/>
      </g>
     </g>
    </g>
    <g id="ytick_27">
     <g id="line2d_85">
      <g>
       <use xlink:href="#m053a574147" x="368.95814" y="215.969395" style="fill: #262626; stroke: #262626; stroke-width: 0.25"/>
      </g>
     </g>
    </g>
    <g id="ytick_28">
     <g id="line2d_86">
      <g>
       <use xlink:href="#m053a574147" x="368.95814" y="213.997704" style="fill: #262626; stroke: #262626; stroke-width: 0.25"/>
      </g>
     </g>
    </g>
    <g id="ytick_29">
     <g id="line2d_87">
      <g>
       <use xlink:href="#m053a574147" x="368.95814" y="212.258548" style="fill: #262626; stroke: #262626; stroke-width: 0.25"/>
      </g>
     </g>
    </g>
    <g id="ytick_30">
     <g id="line2d_88">
      <g>
       <use xlink:href="#m053a574147" x="368.95814" y="200.467978" style="fill: #262626; stroke: #262626; stroke-width: 0.25"/>
      </g>
     </g>
    </g>
    <g id="ytick_31">
     <g id="line2d_89">
      <g>
       <use xlink:href="#m053a574147" x="368.95814" y="194.48098" style="fill: #262626; stroke: #262626; stroke-width: 0.25"/>
      </g>
     </g>
    </g>
    <g id="ytick_32">
     <g id="line2d_90">
      <g>
       <use xlink:href="#m053a574147" x="368.95814" y="190.233136" style="fill: #262626; stroke: #262626; stroke-width: 0.25"/>
      </g>
     </g>
    </g>
    <g id="ytick_33">
     <g id="line2d_91">
      <g>
       <use xlink:href="#m053a574147" x="368.95814" y="186.938253" style="fill: #262626; stroke: #262626; stroke-width: 0.25"/>
      </g>
     </g>
    </g>
    <g id="ytick_34">
     <g id="line2d_92">
      <g>
       <use xlink:href="#m053a574147" x="368.95814" y="184.246138" style="fill: #262626; stroke: #262626; stroke-width: 0.25"/>
      </g>
     </g>
    </g>
    <g id="ytick_35">
     <g id="line2d_93">
      <g>
       <use xlink:href="#m053a574147" x="368.95814" y="181.969986" style="fill: #262626; stroke: #262626; stroke-width: 0.25"/>
      </g>
     </g>
    </g>
    <g id="ytick_36">
     <g id="line2d_94">
      <g>
       <use xlink:href="#m053a574147" x="368.95814" y="179.998295" style="fill: #262626; stroke: #262626; stroke-width: 0.25"/>
      </g>
     </g>
    </g>
    <g id="ytick_37">
     <g id="line2d_95">
      <g>
       <use xlink:href="#m053a574147" x="368.95814" y="178.259139" style="fill: #262626; stroke: #262626; stroke-width: 0.25"/>
      </g>
     </g>
    </g>
    <g id="ytick_38">
     <g id="line2d_96">
      <g>
       <use xlink:href="#m053a574147" x="368.95814" y="166.468569" style="fill: #262626; stroke: #262626; stroke-width: 0.25"/>
      </g>
     </g>
    </g>
    <g id="ytick_39">
     <g id="line2d_97">
      <g>
       <use xlink:href="#m053a574147" x="368.95814" y="160.481571" style="fill: #262626; stroke: #262626; stroke-width: 0.25"/>
      </g>
     </g>
    </g>
    <g id="ytick_40">
     <g id="line2d_98">
      <g>
       <use xlink:href="#m053a574147" x="368.95814" y="156.233727" style="fill: #262626; stroke: #262626; stroke-width: 0.25"/>
      </g>
     </g>
    </g>
    <g id="ytick_41">
     <g id="line2d_99">
      <g>
       <use xlink:href="#m053a574147" x="368.95814" y="152.938844" style="fill: #262626; stroke: #262626; stroke-width: 0.25"/>
      </g>
     </g>
    </g>
    <g id="ytick_42">
     <g id="line2d_100">
      <g>
       <use xlink:href="#m053a574147" x="368.95814" y="150.246729" style="fill: #262626; stroke: #262626; stroke-width: 0.25"/>
      </g>
     </g>
    </g>
    <g id="ytick_43">
     <g id="line2d_101">
      <g>
       <use xlink:href="#m053a574147" x="368.95814" y="147.970577" style="fill: #262626; stroke: #262626; stroke-width: 0.25"/>
      </g>
     </g>
    </g>
    <g id="ytick_44">
     <g id="line2d_102">
      <g>
       <use xlink:href="#m053a574147" x="368.95814" y="145.998886" style="fill: #262626; stroke: #262626; stroke-width: 0.25"/>
      </g>
     </g>
    </g>
    <g id="ytick_45">
     <g id="line2d_103">
      <g>
       <use xlink:href="#m053a574147" x="368.95814" y="144.25973" style="fill: #262626; stroke: #262626; stroke-width: 0.25"/>
      </g>
     </g>
    </g>
    <g id="ytick_46">
     <g id="line2d_104">
      <g>
       <use xlink:href="#m053a574147" x="368.95814" y="132.46916" style="fill: #262626; stroke: #262626; stroke-width: 0.25"/>
      </g>
     </g>
    </g>
    <g id="ytick_47">
     <g id="line2d_105">
      <g>
       <use xlink:href="#m053a574147" x="368.95814" y="126.482162" style="fill: #262626; stroke: #262626; stroke-width: 0.25"/>
      </g>
     </g>
    </g>
    <g id="ytick_48">
     <g id="line2d_106">
      <g>
       <use xlink:href="#m053a574147" x="368.95814" y="122.234319" style="fill: #262626; stroke: #262626; stroke-width: 0.25"/>
      </g>
     </g>
    </g>
    <g id="ytick_49">
     <g id="line2d_107">
      <g>
       <use xlink:href="#m053a574147" x="368.95814" y="118.939435" style="fill: #262626; stroke: #262626; stroke-width: 0.25"/>
      </g>
     </g>
    </g>
    <g id="ytick_50">
     <g id="line2d_108">
      <g>
       <use xlink:href="#m053a574147" x="368.95814" y="116.24732" style="fill: #262626; stroke: #262626; stroke-width: 0.25"/>
      </g>
     </g>
    </g>
    <g id="ytick_51">
     <g id="line2d_109">
      <g>
       <use xlink:href="#m053a574147" x="368.95814" y="113.971168" style="fill: #262626; stroke: #262626; stroke-width: 0.25"/>
      </g>
     </g>
    </g>
    <g id="ytick_52">
     <g id="line2d_110">
      <g>
       <use xlink:href="#m053a574147" x="368.95814" y="111.999477" style="fill: #262626; stroke: #262626; stroke-width: 0.25"/>
      </g>
     </g>
    </g>
    <g id="ytick_53">
     <g id="line2d_111">
      <g>
       <use xlink:href="#m053a574147" x="368.95814" y="110.260321" style="fill: #262626; stroke: #262626; stroke-width: 0.25"/>
      </g>
     </g>
    </g>
    <g id="ytick_54">
     <g id="line2d_112">
      <g>
       <use xlink:href="#m053a574147" x="368.95814" y="98.469751" style="fill: #262626; stroke: #262626; stroke-width: 0.25"/>
      </g>
     </g>
    </g>
    <g id="ytick_55">
     <g id="line2d_113">
      <g>
       <use xlink:href="#m053a574147" x="368.95814" y="92.482753" style="fill: #262626; stroke: #262626; stroke-width: 0.25"/>
      </g>
     </g>
    </g>
    <g id="ytick_56">
     <g id="line2d_114">
      <g>
       <use xlink:href="#m053a574147" x="368.95814" y="88.23491" style="fill: #262626; stroke: #262626; stroke-width: 0.25"/>
      </g>
     </g>
    </g>
    <g id="ytick_57">
     <g id="line2d_115">
      <g>
       <use xlink:href="#m053a574147" x="368.95814" y="84.940026" style="fill: #262626; stroke: #262626; stroke-width: 0.25"/>
      </g>
     </g>
    </g>
    <g id="ytick_58">
     <g id="line2d_116">
      <g>
       <use xlink:href="#m053a574147" x="368.95814" y="82.247911" style="fill: #262626; stroke: #262626; stroke-width: 0.25"/>
      </g>
     </g>
    </g>
    <g id="ytick_59">
     <g id="line2d_117">
      <g>
       <use xlink:href="#m053a574147" x="368.95814" y="79.971759" style="fill: #262626; stroke: #262626; stroke-width: 0.25"/>
      </g>
     </g>
    </g>
    <g id="ytick_60">
     <g id="line2d_118">
      <g>
       <use xlink:href="#m053a574147" x="368.95814" y="78.000068" style="fill: #262626; stroke: #262626; stroke-width: 0.25"/>
      </g>
     </g>
    </g>
    <g id="ytick_61">
     <g id="line2d_119">
      <g>
       <use xlink:href="#m053a574147" x="368.95814" y="76.260912" style="fill: #262626; stroke: #262626; stroke-width: 0.25"/>
      </g>
     </g>
    </g>
    <g id="ytick_62">
     <g id="line2d_120">
      <g>
       <use xlink:href="#m053a574147" x="368.95814" y="64.470342" style="fill: #262626; stroke: #262626; stroke-width: 0.25"/>
      </g>
     </g>
    </g>
    <g id="ytick_63">
     <g id="line2d_121">
      <g>
       <use xlink:href="#m053a574147" x="368.95814" y="58.483344" style="fill: #262626; stroke: #262626; stroke-width: 0.25"/>
      </g>
     </g>
    </g>
    <g id="ytick_64">
     <g id="line2d_122">
      <g>
       <use xlink:href="#m053a574147" x="368.95814" y="54.235501" style="fill: #262626; stroke: #262626; stroke-width: 0.25"/>
      </g>
     </g>
    </g>
    <g id="ytick_65">
     <g id="line2d_123">
      <g>
       <use xlink:href="#m053a574147" x="368.95814" y="50.940617" style="fill: #262626; stroke: #262626; stroke-width: 0.25"/>
      </g>
     </g>
    </g>
    <g id="ytick_66">
     <g id="line2d_124">
      <g>
       <use xlink:href="#m053a574147" x="368.95814" y="48.248502" style="fill: #262626; stroke: #262626; stroke-width: 0.25"/>
      </g>
     </g>
    </g>
    <g id="ytick_67">
     <g id="line2d_125">
      <g>
       <use xlink:href="#m053a574147" x="368.95814" y="45.972351" style="fill: #262626; stroke: #262626; stroke-width: 0.25"/>
      </g>
     </g>
    </g>
    <g id="ytick_68">
     <g id="line2d_126">
      <g>
       <use xlink:href="#m053a574147" x="368.95814" y="44.000659" style="fill: #262626; stroke: #262626; stroke-width: 0.25"/>
      </g>
     </g>
    </g>
    <g id="ytick_69">
     <g id="line2d_127">
      <g>
       <use xlink:href="#m053a574147" x="368.95814" y="42.261503" style="fill: #262626; stroke: #262626; stroke-width: 0.25"/>
      </g>
     </g>
    </g>
    <g id="ytick_70">
     <g id="line2d_128">
      <g>
       <use xlink:href="#m053a574147" x="368.95814" y="30.470933" style="fill: #262626; stroke: #262626; stroke-width: 0.25"/>
      </g>
     </g>
    </g>
    <g id="ytick_71">
     <g id="line2d_129">
      <g>
       <use xlink:href="#m053a574147" x="368.95814" y="24.483935" style="fill: #262626; stroke: #262626; stroke-width: 0.25"/>
      </g>
     </g>
    </g>
    <g id="ytick_72">
     <g id="line2d_130">
      <g>
       <use xlink:href="#m053a574147" x="368.95814" y="20.236092" style="fill: #262626; stroke: #262626; stroke-width: 0.25"/>
      </g>
     </g>
    </g>
    <g id="ytick_73">
     <g id="line2d_131">
      <g>
       <use xlink:href="#m053a574147" x="368.95814" y="16.941208" style="fill: #262626; stroke: #262626; stroke-width: 0.25"/>
      </g>
     </g>
    </g>
    <g id="ytick_74">
     <g id="line2d_132">
      <g>
       <use xlink:href="#m053a574147" x="368.95814" y="14.249093" style="fill: #262626; stroke: #262626; stroke-width: 0.25"/>
      </g>
     </g>
    </g>
    <g id="text_38">
     <!-- Error (rad) -->
     <g style="fill: #262626" transform="translate(342.893452 147.0925) rotate(-90) scale(0.1 -0.1)">
      <defs>
       <path id="ArialMT-72" d="M 416 0 
L 416 3319 
L 922 3319 
L 922 2816 
Q 1116 3169 1280 3281 
Q 1444 3394 1641 3394 
Q 1925 3394 2219 3213 
L 2025 2691 
Q 1819 2813 1613 2813 
Q 1428 2813 1281 2702 
Q 1134 2591 1072 2394 
Q 978 2094 978 1738 
L 978 0 
L 416 0 
z
" transform="scale(0.015625)"/>
       <path id="ArialMT-64" d="M 2575 0 
L 2575 419 
Q 2259 -75 1647 -75 
Q 1250 -75 917 144 
Q 584 363 401 755 
Q 219 1147 219 1656 
Q 219 2153 384 2558 
Q 550 2963 881 3178 
Q 1213 3394 1622 3394 
Q 1922 3394 2156 3267 
Q 2391 3141 2538 2938 
L 2538 4581 
L 3097 4581 
L 3097 0 
L 2575 0 
z
M 797 1656 
Q 797 1019 1065 703 
Q 1334 388 1700 388 
Q 2069 388 2326 689 
Q 2584 991 2584 1609 
Q 2584 2291 2321 2609 
Q 2059 2928 1675 2928 
Q 1300 2928 1048 2622 
Q 797 2316 797 1656 
z
" transform="scale(0.015625)"/>
      </defs>
      <use xlink:href="#ArialMT-45"/>
      <use xlink:href="#ArialMT-72" x="66.699219"/>
      <use xlink:href="#ArialMT-72" x="100"/>
      <use xlink:href="#ArialMT-6f" x="133.300781"/>
      <use xlink:href="#ArialMT-72" x="188.916016"/>
      <use xlink:href="#ArialMT-20" x="222.216797"/>
      <use xlink:href="#ArialMT-28" x="250"/>
      <use xlink:href="#ArialMT-72" x="283.300781"/>
      <use xlink:href="#ArialMT-61" x="316.601562"/>
      <use xlink:href="#ArialMT-64" x="372.216797"/>
      <use xlink:href="#ArialMT-29" x="427.832031"/>
     </g>
    </g>
   </g>
   <g id="PolyCollection_13"/>
   <g id="PolyCollection_14"/>
   <g id="PolyCollection_15"/>
   <g id="line2d_133">
    <path d="M 373.676956 43.707448 
L 412.504138 138.850421 
L 429.226095 184.77231 
L 468.053277 224.837812 
" clip-path="url(#p40249a1eaf)" style="fill: none; stroke: #023eff; stroke-linecap: round"/>
    <defs>
     <path id="mdcab1add03" d="M 0 2.4 
C 0.636487 2.4 1.246992 2.147121 1.697056 1.697056 
C 2.147121 1.246992 2.4 0.636487 2.4 0 
C 2.4 -0.636487 2.147121 -1.246992 1.697056 -1.697056 
C 1.246992 -2.147121 0.636487 -2.4 0 -2.4 
C -0.636487 -2.4 -1.246992 -2.147121 -1.697056 -1.697056 
C -2.147121 -1.246992 -2.4 -0.636487 -2.4 0 
C -2.4 0.636487 -2.147121 1.246992 -1.697056 1.697056 
C -1.246992 2.147121 -0.636487 2.4 0 2.4 
z
" style="stroke: #ffffff; stroke-width: 0.75"/>
    </defs>
    <g clip-path="url(#p40249a1eaf)">
     <use xlink:href="#mdcab1add03" x="429.226095" y="184.77231" style="fill: #023eff; stroke: #ffffff; stroke-width: 0.75"/>
    </g>
   </g>
   <g id="line2d_134">
    <path d="M 373.676956 37.11788 
L 412.504138 132.040205 
L 429.226095 171.7631 
L 468.053277 188.007476 
" clip-path="url(#p40249a1eaf)" style="fill: none; stroke: #ff7c00; stroke-linecap: round"/>
    <defs>
     <path id="m4edde17b30" d="M 0 2.4 
C 0.636487 2.4 1.246992 2.147121 1.697056 1.697056 
C 2.147121 1.246992 2.4 0.636487 2.4 0 
C 2.4 -0.636487 2.147121 -1.246992 1.697056 -1.697056 
C 1.246992 -2.147121 0.636487 -2.4 0 -2.4 
C -0.636487 -2.4 -1.246992 -2.147121 -1.697056 -1.697056 
C -2.147121 -1.246992 -2.4 -0.636487 -2.4 0 
C -2.4 0.636487 -2.147121 1.246992 -1.697056 1.697056 
C -1.246992 2.147121 -0.636487 2.4 0 2.4 
z
" style="stroke: #ffffff; stroke-width: 0.75"/>
    </defs>
    <g clip-path="url(#p40249a1eaf)">
     <use xlink:href="#m4edde17b30" x="429.226095" y="171.7631" style="fill: #ff7c00; stroke: #ffffff; stroke-width: 0.75"/>
    </g>
   </g>
   <g id="line2d_135">
    <path d="M 373.676956 23.237812 
L 412.504138 118.274274 
L 429.226095 160.094637 
L 468.053277 191.945895 
" clip-path="url(#p40249a1eaf)" style="fill: none; stroke: #1ac938; stroke-linecap: round"/>
    <defs>
     <path id="m9ec3209786" d="M 0 2.4 
C 0.636487 2.4 1.246992 2.147121 1.697056 1.697056 
C 2.147121 1.246992 2.4 0.636487 2.4 0 
C 2.4 -0.636487 2.147121 -1.246992 1.697056 -1.697056 
C 1.246992 -2.147121 0.636487 -2.4 0 -2.4 
C -0.636487 -2.4 -1.246992 -2.147121 -1.697056 -1.697056 
C -2.147121 -1.246992 -2.4 -0.636487 -2.4 0 
C -2.4 0.636487 -2.147121 1.246992 -1.697056 1.697056 
C -1.246992 2.147121 -0.636487 2.4 0 2.4 
z
" style="stroke: #ffffff; stroke-width: 0.75"/>
    </defs>
    <g clip-path="url(#p40249a1eaf)">
     <use xlink:href="#m9ec3209786" x="429.226095" y="160.094637" style="fill: #1ac938; stroke: #ffffff; stroke-width: 0.75"/>
    </g>
   </g>
   <g id="patch_33">
    <path d="M 368.95814 234.917812 
L 368.95814 13.157812 
" style="fill: none; stroke: #262626; stroke-width: 0.5; stroke-linejoin: miter; stroke-linecap: square"/>
   </g>
   <g id="patch_34">
    <path d="M 472.772093 234.917812 
L 472.772093 13.157812 
" style="fill: none; stroke: #262626; stroke-width: 0.5; stroke-linejoin: miter; stroke-linecap: square"/>
   </g>
   <g id="patch_35">
    <path d="M 368.95814 234.917812 
L 472.772093 234.917812 
" style="fill: none; stroke: #262626; stroke-width: 0.5; stroke-linejoin: miter; stroke-linecap: square"/>
   </g>
   <g id="patch_36">
    <path d="M 368.95814 13.157812 
L 472.772093 13.157812 
" style="fill: none; stroke: #262626; stroke-width: 0.5; stroke-linejoin: miter; stroke-linecap: square"/>
   </g>
  </g>
 </g>
 <defs>
  <clipPath id="p01bf6b7bfb">
   <rect x="26.372093" y="13.157812" width="103.813953" height="108.17561"/>
  </clipPath>
  <clipPath id="p72f9d4b6b9">
   <rect x="26.372093" y="126.742203" width="103.813953" height="108.17561"/>
  </clipPath>
  <clipPath id="p6f0da8c677">
   <rect x="140.567442" y="13.157812" width="103.813953" height="108.17561"/>
  </clipPath>
  <clipPath id="p60480a61ae">
   <rect x="140.567442" y="126.742203" width="103.813953" height="108.17561"/>
  </clipPath>
  <clipPath id="p8fc24a0aa8">
   <rect x="254.762791" y="13.157812" width="103.813953" height="108.17561"/>
  </clipPath>
  <clipPath id="p46f8c4edc1">
   <rect x="254.762791" y="126.742203" width="103.813953" height="108.17561"/>
  </clipPath>
  <clipPath id="p40249a1eaf">
   <rect x="368.95814" y="13.157812" width="103.813953" height="221.76"/>
  </clipPath>
 </defs>
</svg>
